<?xml version="1.0" standalone="no"?>
<!DOCTYPE svg PUBLIC "-//W3C//DTD SVG 1.1//EN" "http://www.w3.org/Graphics/SVG/1.1/DTD/svg11.dtd" >
<svg xmlns="http://www.w3.org/2000/svg" xmlns:xlink="http://www.w3.org/1999/xlink" version="1.1">
<metadata>
Created by FontForge 20170731 at Sat Jun 25 20:46:31 2016
 By Aleksey,,,
Copyright (c) 2016 Miguel Reyes under exclusive license to Schwartzco Inc. / Commercial Type. All rights reserved.
</metadata>
<defs>
<font id="Canela-RegularItalic" horiz-adv-x="391" >
  <font-face 
    font-family="Canela"
    font-weight="400"
    font-style="italic"
    font-stretch="normal"
    units-per-em="1000"
    panose-1="0 0 0 0 0 0 0 0 0 0"
    ascent="775"
    descent="-225"
    x-height="477"
    cap-height="732"
    bbox="-123 -260 984 1140"
    underline-thickness="20"
    underline-position="-120"
    slope="-9"
    unicode-range="U+000D-FB04"
  />
<missing-glyph horiz-adv-x="161" 
 />
    <glyph glyph-name="f_b" unicode="fb" horiz-adv-x="750" 
d="M-2 -165l131 622h-64l5 20h63l16 74q21 103 82 165t134 62q36 0 101 -25l77 25l-108 -490q77 204 194 204q105 0 105 -157q0 -139 -75.5 -244.5t-188.5 -105.5q-76 0 -122.5 51.5t-24.5 154.5l82 387q15 75 -1 127.5t-50 52.5q-30 0 -59 -43.5t-45 -122.5l-24 -115h88
l-4 -20h-88l-131 -622h-93zM476 3q47 0 86 54.5t58.5 130t19.5 149.5q0 55 -13 77.5t-40 22.5q-35 0 -74.5 -48t-90.5 -182l-7 -34q-19 -86 0.5 -128t60.5 -42z" />
    <glyph glyph-name="f_f_b" unicode="ffb" horiz-adv-x="989" 
d="M226 477h146l16 74q7 33 20 66q-9 47 -30.5 84t-46.5 37q-51 0 -85 -166zM129 457h-64l5 20h64l11 54q21 103 80.5 165t128.5 62q47 0 71 -14l-7 -104q32 66 81 102t105 36q36 0 101 -25l77 25l-108 -490q77 204 194 204q105 0 105 -157q0 -139 -75.5 -244.5
t-188.5 -105.5q-76 0 -122.5 51.5t-24.5 154.5l82 387q15 75 -1 127.5t-50 52.5q-30 0 -59 -43.5t-45 -122.5l-24 -115h88l-4 -20h-88l-131 -622h-93l131 622h-146l-131 -622h-93zM715 3q47 0 86 54.5t58.5 130t19.5 149.5q0 55 -13 77.5t-40 22.5q-35 0 -74.5 -48
t-90.5 -182l-7 -34q-19 -86 0.5 -128t60.5 -42z" />
    <glyph glyph-name="f_f_h" unicode="ffh" horiz-adv-x="1001" 
d="M368 457h-146l-131 -622h-93l131 622h-64l5 20h64l11 54q22 107 72.5 167t119.5 60q28 0 55 -10l7 -105l-7 -2q-50 78 -63 90q-9 7 -15 7q-33 0 -68 -166l-20 -95h146l16 74q21 103 82 165t134 62q36 0 101 -25l77 25l-122 -543q44 114 100.5 185.5t120.5 71.5
q47 0 69 -41.5t7 -116.5l-41 -193q-17 -65 -13 -95t43 -38v-2l-159 -15l74 337q19 87 -33 87q-41 0 -82.5 -61.5t-98.5 -196.5l-1 -6q-20 -95 -9 -149v-2h-135v2q28 54 56 185l86 391q17 75 0 127.5t-51 52.5q-30 0 -59 -43.5t-45 -122.5l-24 -115h88l-4 -20h-88l-131 -622
h-93z" />
    <glyph glyph-name="f_f_j" unicode="ffj" horiz-adv-x="707" 
d="M600 -1q-22 -98 -74.5 -151.5t-122.5 -62.5l-1 6q72 40 93 140l79 367q24 125 -10 159h-103l-131 -622h-93l131 622h-146l-131 -622h-93l131 622h-64l5 20h64l11 54q22 107 72.5 167t119.5 60q28 0 55 -10l7 -105l-7 -2q-50 78 -63 90q-9 7 -15 7q-33 0 -68 -166l-20 -95
h146l16 74q23 106 80.5 166.5t135.5 60.5q51 0 84 -24l9 -131l-8 -2q-25 50 -37.5 73.5t-31.5 43.5t-38 20q-32 0 -53.5 -40.5t-39.5 -125.5l-24 -115h95q85 0 151 20z" />
    <glyph glyph-name="f_f_k" unicode="ffk" horiz-adv-x="958" 
d="M671 248l146 137q31 30 38.5 49.5t-4.5 40.5v2h132v-2q-77 -32 -147 -102l-83 -77l93 -204q29 -65 69 -90v-2h-133zM129 457h-64l5 20h64l11 54q22 107 72.5 167t119.5 60q28 0 55 -10l7 -105l-7 -2q-50 78 -63 90q-9 7 -15 7q-33 0 -68 -166l-20 -95h146l16 74
q21 103 82 165t134 62q36 0 101 -25l77 25l-136 -628q-20 -96 -9 -148v-2h-135v2q28 54 56 185l86 391q17 75 0 127.5t-51 52.5q-30 0 -59 -43.5t-45 -122.5l-24 -115h88l-4 -20h-88l-131 -622h-93l131 622h-146l-131 -622h-93z" />
    <glyph glyph-name="f_h" unicode="fh" horiz-adv-x="762" 
d="M222 457l-131 -622h-93l131 622h-64l5 20h63l16 74q21 103 82 165t134 62q36 0 101 -25l77 25l-122 -543q44 114 100.5 185.5t120.5 71.5q47 0 69 -41.5t7 -116.5l-41 -193q-17 -65 -13 -95t43 -38v-2l-159 -15l74 337q19 87 -33 87q-41 0 -82.5 -61.5t-98.5 -196.5
l-2 -10q-18 -96 -8 -145v-2h-135v2q28 54 56 185l86 391q17 75 0 127.5t-51 52.5q-30 0 -59 -43.5t-45 -122.5l-24 -115h88l-4 -20h-88z" />
    <glyph glyph-name="f_j" unicode="fj" horiz-adv-x="468" 
d="M361 -1q-22 -98 -74.5 -151.5t-122.5 -62.5l-1 6q72 40 93 140l79 367q24 125 -10 159h-103l-131 -622h-93l131 622h-64l5 20h63l16 74q23 106 80.5 166.5t135.5 60.5q51 0 84 -24l9 -131l-8 -2q-25 50 -37.5 73.5t-31.5 43.5t-38 20q-32 0 -53.5 -40.5t-39.5 -125.5
l-24 -115h95q85 0 151 20z" />
    <glyph glyph-name="f_k" unicode="fk" horiz-adv-x="719" 
d="M-2 -165l131 622h-64l5 20h63l16 74q21 103 82 165t134 62q36 0 101 -25l77 25l-136 -628q-20 -96 -9 -148v-2h-135v2q28 54 56 185l86 391q17 75 0 127.5t-51 52.5q-30 0 -59 -43.5t-45 -122.5l-24 -115h88l-4 -20h-88l-131 -622h-93zM432 248l146 137q31 30 38.5 49.5
t-4.5 40.5v2h132v-2q-77 -32 -147 -102l-83 -77l93 -204q29 -65 69 -90v-2h-133z" />
    <glyph glyph-name="f_t" unicode="ft" horiz-adv-x="560" 
d="M129 457h-64l5 20h63l16 74q21 103 81 165t130 62q28 0 56 -10l8 -115l-8 -2q-48 82 -65 97q-11 10 -21 10q-46 0 -80 -166l-24 -115h108l147 107h9l-23 -107h116l-4 -20h-116l-71 -334q-16 -72 17 -72q22 0 48.5 22t45.5 49l10 -7q-71 -130 -155 -130q-90 0 -62 139
l71 333h-145l-131 -622h-93z" />
    <glyph glyph-name="f_f_t" unicode="fft" horiz-adv-x="799" 
d="M129 457h-64l5 20h64l11 54q22 107 72.5 167t119.5 60q28 0 55 -10l7 -105l-7 -2q-50 78 -63 90q-9 7 -15 7q-33 0 -68 -166l-20 -95h146l16 74q21 103 81 165t130 62q29 0 56 -10l8 -115l-8 -2q-48 82 -65 97q-11 10 -21 10q-46 0 -80 -166l-24 -115h108l147 107h9
l-23 -107h116l-4 -20h-116l-71 -334q-16 -72 17 -72q22 0 48.5 22t45.5 49l10 -7q-72 -130 -155 -130q-90 0 -62 139l71 333h-145l-131 -622h-93l131 622h-146l-131 -622h-93z" />
    <glyph glyph-name="f_f" unicode="ff" horiz-adv-x="514" 
d="M129 457h-64l5 20h64l11 54q22 107 72.5 167t119.5 60q28 0 55 -10l7 -105l-7 -2q-50 78 -63 90q-9 7 -15 7q-33 0 -68 -166l-20 -95h146l16 74q21 103 81 165t130 62q29 0 56 -10l8 -115l-8 -2q-48 82 -65 97q-11 10 -21 10q-46 0 -80 -166l-24 -115h88l-4 -20h-88
l-131 -622h-93l131 622h-146l-131 -622h-93z" />
    <glyph glyph-name="f_i" unicode="fi" horiz-adv-x="474" 
d="M-2 -165l131 622h-64l5 20h63l16 74q23 106 80.5 166.5t135.5 60.5q51 0 84 -24l9 -131l-8 -2q-25 50 -37.5 73.5t-31.5 43.5t-38 20q-32 0 -53.5 -40.5t-39.5 -125.5l-24 -115h95q85 0 151 20l-66 -310q-27 -128 -16 -185v-2h-135v2q13 23 23 54.5t15 51.5t18 79l24 111
q24 121 -10 159h-103l-131 -622h-93z" />
    <glyph glyph-name="f_l" unicode="fl" horiz-adv-x="482" 
d="M-2 -165l131 622h-64l5 20h63l16 74q21 103 82 165t134 62q34 0 97 -24l76 24l-125 -589q-26 -127 -15 -187v-2h-135v2q26 49 56 185l83 391q16 78 1 129t-49 51q-30 0 -59 -43.5t-45 -122.5l-24 -115h88l-4 -20h-88l-131 -622h-93z" />
    <glyph glyph-name="f_f_i" unicode="ffi" horiz-adv-x="713" 
d="M-2 -165l131 622h-64l5 20h64l11 54q22 107 72.5 167t119.5 60q28 0 55 -10l7 -105l-7 -2q-50 78 -63 90q-9 7 -15 7q-33 0 -68 -166l-20 -95h146l16 74q23 106 80.5 166.5t135.5 60.5q51 0 84 -24l9 -131l-8 -2q-25 50 -37.5 73.5t-31.5 43.5t-38 20q-32 0 -53.5 -40.5
t-39.5 -125.5l-24 -115h95q85 0 151 20l-66 -310q-27 -128 -16 -185v-2h-135v2q13 23 23 54.5t15 51.5t18 79l24 111q24 121 -10 159h-103l-131 -622h-93l131 622h-146l-131 -622h-93z" />
    <glyph glyph-name="f_f_l" unicode="ffl" horiz-adv-x="721" 
d="M129 457h-64l5 20h64l11 54q22 107 72.5 167t119.5 60q28 0 55 -10l7 -105l-7 -2q-50 78 -63 90q-9 7 -15 7q-33 0 -68 -166l-20 -95h146l16 74q21 103 82 165t134 62q34 0 97 -24l76 24l-125 -589q-26 -127 -15 -187v-2h-135v2q26 49 56 185l83 391q16 78 1 129t-49 51
q-30 0 -59 -43.5t-45 -122.5l-24 -115h88l-4 -20h-88l-131 -622h-93l131 622h-146l-131 -622h-93z" />
    <glyph glyph-name="f_b.alt" unicode="&#xe4c5;b" horiz-adv-x="737" 
d="M457 -15q-76 0 -121.5 51.5t-25.5 154.5l83 406q14 63 -3 112t-49 49q-30 0 -59 -43.5t-45 -122.5l-24 -115h88l-4 -20h-89l-65 -307q-19 -94 -8 -148v-2h-132v2q30 61 56 185l57 270h-64l5 20h63l16 74q21 103 82 165t134 62q22 0 42.5 -5.5t36 -12.5t16.5 -7l78 25
l-104 -493q78 207 195 207q105 0 105 -157q0 -139 -75.5 -244.5t-188.5 -105.5zM463 3q47 0 86 54.5t58.5 130t19.5 149.5q0 55 -13 77.5t-40 22.5q-35 0 -74.5 -48t-90.5 -182l-7 -34q-19 -86 0.5 -128t60.5 -42z" />
    <glyph glyph-name="f_f.alt" unicode="&#xe4c5;&#xe4c5;" horiz-adv-x="501" 
d="M3 2q30 61 56 185l57 270h-64l5 20h64l11 54q24 107 73.5 167t118.5 60q28 0 55 -10l7 -105l-7 -2q-50 78 -63 90q-9 7 -15 7q-34 0 -68 -166l-20 -95h146l16 74q21 103 81 165t130 62q28 0 56 -10l8 -115l-8 -2q-48 82 -65 97q-11 10 -21 10q-46 0 -80 -166l-24 -115h88
l-4 -20h-89l-65 -307q-19 -94 -8 -148v-2h-132v2q30 61 56 185l57 270h-147l-65 -307q-19 -94 -8 -148v-2h-132v2z" />
    <glyph glyph-name="f_f_b.alt" unicode="&#xe4c5;&#xe4c5;b" horiz-adv-x="976" 
d="M696 -15q-76 0 -121.5 51.5t-25.5 154.5l83 406q14 63 -3 112t-49 49q-30 0 -59 -43.5t-45 -122.5l-24 -115h88l-4 -20h-89l-65 -307q-19 -94 -8 -148v-2h-132v2q30 61 56 185l57 270h-147l-65 -307q-19 -94 -8 -148v-2h-132v2q30 61 56 185l57 270h-64l5 20h64l11 54
q24 107 73.5 167t118.5 60q28 0 55 -10l7 -105l-7 -2q-50 78 -63 90q-9 7 -15 7q-34 0 -68 -166l-20 -95h146l16 74q21 103 82 165t134 62q22 0 42.5 -5.5t36 -12.5t16.5 -7l78 25l-104 -493q78 207 195 207q105 0 105 -157q0 -139 -75.5 -244.5t-188.5 -105.5zM702 3
q47 0 86 54.5t58.5 130t19.5 149.5q0 55 -13 77.5t-40 22.5q-35 0 -74.5 -48t-90.5 -182l-7 -34q-19 -86 0.5 -128t60.5 -42z" />
    <glyph glyph-name="f_f_h.alt" unicode="&#xe4c5;&#xe4c5;h" horiz-adv-x="988" 
d="M848 328q19 87 -33 87q-41 0 -82.5 -62t-98.5 -197l-2 -8q-20 -91 -8 -146v-2h-135v2q13 24 23 55.5t15 51.5t18 78l87 410q14 63 -3 112t-49 49q-30 0 -59 -43.5t-45 -122.5l-24 -115h88l-4 -20h-89l-65 -307q-19 -94 -8 -148v-2h-132v2q30 61 56 185l57 270h-147
l-65 -307q-19 -94 -8 -148v-2h-132v2q30 61 56 185l57 270h-64l5 20h64l11 54q24 107 73.5 167t118.5 60q28 0 55 -10l7 -105l-7 -2q-50 78 -63 90q-9 7 -15 7q-34 0 -68 -166l-20 -95h146l16 74q21 103 82 165t134 62q22 0 42.5 -5.5t36 -12.5t16.5 -7l78 25l-118 -545
q45 115 101.5 187t120.5 72q47 0 69 -41.5t7 -116.5l-41 -193q-17 -65 -13 -95t43 -38v-2l-159 -15z" />
    <glyph glyph-name="f_f_i.alt" unicode="&#xe4c5;&#xe4c5;i" horiz-adv-x="714" 
d="M16 0v2q30 61 56 185l57 270h-64l5 20h64l11 54q24 107 73.5 167t118.5 60q28 0 55 -10l7 -105l-7 -2q-50 78 -63 90q-9 7 -15 7q-34 0 -68 -166l-20 -95h146l16 74q23 106 80.5 166.5t135.5 60.5q51 0 84 -24l9 -131l-8 -2q-25 50 -37.5 73.5t-31.5 43.5t-38 20
q-31 0 -52.5 -40t-40.5 -126l-24 -115h95q98 0 151 20l-66 -310q-27 -128 -16 -185v-2h-135v2q7 12 13 25.5t10 24t9 30t7.5 29.5t8 37t8.5 39l24 111q19 77 8.5 118t-61.5 41h-61l-65 -307q-19 -94 -8 -148v-2h-132v2q30 61 56 185l57 270h-147l-65 -307q-19 -94 -8 -148
v-2h-132z" />
    <glyph glyph-name="f_f_j.alt" unicode="&#xe4c5;&#xe4c5;j" horiz-adv-x="707" 
d="M600 -1q-22 -98 -74.5 -151.5t-122.5 -62.5l-1 6q72 39 94 140l78 367q19 77 8.5 118t-61.5 41h-61l-65 -307q-19 -94 -8 -148v-2h-132v2q30 61 56 185l57 270h-147l-65 -307q-19 -94 -8 -148v-2h-132v2q30 61 56 185l57 270h-64l5 20h64l11 54q24 107 73.5 167t118.5 60
q28 0 55 -10l7 -105l-7 -2q-50 78 -63 90q-9 7 -15 7q-34 0 -68 -166l-20 -95h146l16 74q23 106 80.5 166.5t135.5 60.5q51 0 84 -24l9 -131l-8 -2q-25 50 -37.5 73.5t-31.5 43.5t-38 20q-31 0 -52.5 -40t-40.5 -126l-24 -115h95q98 0 151 20z" />
    <glyph glyph-name="f_f_k.alt" unicode="&#xe4c5;&#xe4c5;k" horiz-adv-x="945" 
d="M658 248l146 137q31 30 38.5 49.5t-4.5 40.5v2h132v-2q-77 -32 -147 -102l-83 -77l93 -204q29 -65 69 -90v-2h-133zM3 2q30 61 56 185l57 270h-64l5 20h64l11 54q24 107 73.5 167t118.5 60q28 0 55 -10l7 -105l-7 -2q-50 78 -63 90q-9 7 -15 7q-34 0 -68 -166l-20 -95
h146l16 74q21 103 82 165t134 62q21 0 42.5 -5.5t39.5 -12.5l18 -7l78 25l-129 -589q-29 -123 -17 -187l1 -2h-135v2q26 46 47 146l95 430q17 75 0 127.5t-51 52.5q-30 0 -59 -43.5t-45 -122.5l-24 -115h88l-4 -20h-89l-65 -307q-19 -94 -8 -148v-2h-132v2q30 61 56 185
l57 270h-147l-65 -307q-19 -94 -8 -148v-2h-132v2z" />
    <glyph glyph-name="f_f_l.alt" unicode="&#xe4c5;&#xe4c5;l" horiz-adv-x="708" 
d="M3 2q30 61 56 185l57 270h-64l5 20h64l11 54q24 107 73.5 167t118.5 60q28 0 55 -10l7 -105l-7 -2q-50 78 -63 90q-9 7 -15 7q-34 0 -68 -166l-20 -95h146l16 74q21 103 82 165t134 62q22 0 42.5 -5.5t36 -12.5t16.5 -7l78 25l-124 -589q-27 -132 -17 -187l1 -2h-135v2
q28 53 47 146l96 449q14 63 -3 112t-49 49q-30 0 -59 -43.5t-45 -122.5l-24 -115h88l-4 -20h-89l-65 -307q-19 -94 -8 -148v-2h-132v2q30 61 56 185l57 270h-147l-65 -307q-19 -94 -8 -148v-2h-132v2z" />
    <glyph glyph-name="f_f_t.alt" unicode="&#xe4c5;&#xe4c5;t" horiz-adv-x="786" 
d="M739 115q-71 -130 -155 -130q-90 0 -62 139l71 333h-146l-65 -307q-19 -94 -8 -148v-2h-132v2q30 61 56 185l57 270h-147l-65 -307q-19 -94 -8 -148v-2h-132v2q30 61 56 185l57 270h-64l5 20h64l11 54q24 107 73.5 167t118.5 60q28 0 55 -10l7 -105l-7 -2q-50 78 -63 90
q-9 7 -15 7q-34 0 -68 -166l-20 -95h146l16 74q21 103 81 165t130 62q28 0 56 -10l8 -115l-8 -2q-48 82 -65 97q-11 10 -21 10q-44 0 -80 -166l-24 -115h108l147 107h9l-23 -107h116l-4 -20h-116l-71 -334q-16 -72 17 -72q22 0 48.5 22t45.5 49z" />
    <glyph glyph-name="f_h.alt" unicode="&#xe4c5;h" horiz-adv-x="749" 
d="M609 328q19 87 -33 87q-41 0 -82.5 -62t-98.5 -197l-1 -3q-20 -97 -9 -151v-2h-135v2q13 24 23 55.5t15 51.5t18 78l87 410q14 63 -3 112t-49 49q-30 0 -59 -43.5t-45 -122.5l-24 -115h88l-4 -20h-89l-65 -307q-19 -94 -8 -148v-2h-132v2q30 61 56 185l57 270h-64l5 20
h63l16 74q21 103 82 165t134 62q22 0 42.5 -5.5t36 -12.5t16.5 -7l78 25l-118 -545q102 259 222 259q47 0 69 -41.5t7 -116.5l-41 -193q-17 -65 -13 -95t43 -38v-2l-159 -15z" />
    <glyph glyph-name="f_i.alt" unicode="&#xe4c5;i" horiz-adv-x="475" 
d="M16 0v2q30 61 56 185l57 270h-64l5 20h63l16 74q23 106 80.5 166.5t135.5 60.5q51 0 84 -24l9 -131l-8 -2q-25 50 -37.5 73.5t-31.5 43.5t-38 20q-31 0 -52.5 -40t-40.5 -126l-24 -115h95q98 0 151 20l-66 -310q-27 -128 -16 -185v-2h-135v2q7 12 13 25.5t10 24t9 30
t7.5 29.5t8 37t8.5 39l24 111q19 77 8.5 118t-61.5 41h-61l-65 -307q-19 -94 -8 -148v-2h-132z" />
    <glyph glyph-name="f_j.alt" unicode="&#xe4c5;j" horiz-adv-x="468" 
d="M361 -1q-22 -98 -74.5 -151.5t-122.5 -62.5l-1 6q72 39 94 140l78 367q19 77 8.5 118t-61.5 41h-61l-65 -307q-19 -94 -8 -148v-2h-132v2q30 61 56 185l57 270h-64l5 20h63l16 74q23 106 80.5 166.5t135.5 60.5q51 0 84 -24l9 -131l-8 -2q-25 50 -37.5 73.5t-31.5 43.5
t-38 20q-31 0 -52.5 -40t-40.5 -126l-24 -115h95q98 0 151 20z" />
    <glyph glyph-name="f_k.alt" unicode="&#xe4c5;k" horiz-adv-x="706" 
d="M3 0v2q30 61 56 185l57 270h-64l5 20h63l16 74q21 103 82 165t134 62q21 0 42.5 -5.5t39.5 -12.5l18 -7l78 25l-129 -589q-29 -123 -17 -187l1 -2h-135v2q26 46 47 146l95 430q17 75 0 127.5t-51 52.5q-30 0 -59 -43.5t-45 -122.5l-24 -115h88l-4 -20h-89l-65 -307
q-19 -94 -8 -148v-2h-132zM419 248l146 137q31 30 38.5 49.5t-4.5 40.5v2h132v-2q-77 -32 -147 -102l-83 -77l93 -204q29 -65 69 -90v-2h-133z" />
    <glyph glyph-name="f_l.alt" unicode="&#xe4c5;l" horiz-adv-x="469" 
d="M3 0v2q30 61 56 185l57 270h-64l5 20h63l16 74q21 103 82 165t134 62q22 0 42.5 -5.5t36 -12.5t16.5 -7l78 25l-124 -589q-27 -132 -17 -187l1 -2h-135v2q28 53 47 146l96 449q14 63 -3 112t-49 49q-30 0 -59 -43.5t-45 -122.5l-24 -115h88l-4 -20h-89l-65 -307
q-19 -94 -8 -148v-2h-132z" />
    <glyph glyph-name="f_t.alt" unicode="&#xe4c5;t" horiz-adv-x="547" 
d="M500 115q-72 -130 -155 -130q-90 0 -62 139l71 333h-146l-65 -307q-19 -94 -8 -148v-2h-132v2q30 61 56 185l57 270h-64l5 20h63l16 74q21 103 81 165t130 62q29 0 56 -10l8 -115l-8 -2q-48 82 -65 97q-11 10 -21 10q-46 0 -80 -166l-24 -115h108l147 107h9l-23 -107h116
l-4 -20h-116l-71 -334q-16 -72 17 -72q22 0 48.5 22t45.5 49z" />
    <glyph glyph-name="f_f_k.altfk" unicode="&#xe4c5;&#xe4c5;&#xe4ca;" horiz-adv-x="947" 
d="M821 -10q-65 0 -110 102q-26 56 -52 156l137 129q17 17 26.5 28t17 23.5t7 23.5t-7.5 23v2h132v-2q-77 -32 -147 -102l-86 -79q23 -87 50 -146q23 -50 42 -66.5t36 -16.5q24 0 38 21l3 -2q-12 -47 -31.5 -70.5t-54.5 -23.5zM3 2q30 61 56 185l57 270h-64l5 20h64l11 54
q24 107 73.5 167t118.5 60q28 0 55 -10l7 -105l-7 -2q-50 78 -63 90q-9 7 -15 7q-34 0 -68 -166l-20 -95h146l16 74q21 103 82 165t134 62q21 0 42.5 -5.5t39.5 -12.5l18 -7l78 25l-129 -589q-29 -123 -17 -187l1 -2h-135v2q26 46 47 146l95 430q17 75 0 127.5t-51 52.5
q-30 0 -59 -43.5t-45 -122.5l-24 -115h88l-4 -20h-89l-65 -307q-19 -94 -8 -148v-2h-132v2q30 61 56 185l57 270h-147l-65 -307q-19 -94 -8 -148v-2h-132v2z" />
    <glyph glyph-name="f_k.altfk" unicode="&#xe4c5;&#xe4ca;" horiz-adv-x="707" 
d="M3 0v2q30 61 56 185l57 270h-64l5 20h63l16 74q21 103 82 165t134 62q21 0 42.5 -5.5t39.5 -12.5l18 -7l78 25l-129 -589q-29 -123 -17 -187l1 -2h-135v2q26 46 47 146l95 430q17 75 0 127.5t-51 52.5q-30 0 -59 -43.5t-45 -122.5l-24 -115h88l-4 -20h-89l-65 -307
q-19 -94 -8 -148v-2h-132zM581 -10q-65 0 -110 102q-26 56 -52 156l137 129q18 17 27 27.5t17 23.5t7.5 24t-8.5 23v2h132v-2q-77 -32 -147 -102l-86 -79q23 -87 50 -146q23 -50 42 -66.5t36 -16.5q24 0 38 21l3 -2q-12 -47 -31.5 -70.5t-54.5 -23.5z" />
    <glyph glyph-name="f_f_k.altk" unicode="ff&#xe4ca;" horiz-adv-x="960" 
d="M834 -10q-65 0 -110 102q-26 56 -52 156l137 129q17 17 26.5 28t17 23.5t7 23.5t-7.5 23v2h132v-2q-77 -32 -147 -102l-86 -79q23 -87 50 -146q23 -50 42 -66.5t36 -16.5q25 0 38 21l3 -2q-12 -47 -31.5 -70.5t-54.5 -23.5zM129 457h-64l5 20h64l11 54q22 107 72.5 167
t119.5 60q28 0 55 -10l7 -105l-7 -2q-50 78 -63 90q-9 7 -15 7q-33 0 -68 -166l-20 -95h146l16 74q21 103 82 165t134 62q36 0 101 -25l77 25l-136 -628q-20 -96 -9 -148v-2h-135v2q28 54 56 185l86 391q17 75 0 127.5t-51 52.5q-30 0 -59 -43.5t-45 -122.5l-24 -115h88
l-4 -20h-88l-131 -622h-93l131 622h-146l-131 -622h-93z" />
    <glyph glyph-name="f_k.altk" unicode="f&#xe4ca;" horiz-adv-x="720" 
d="M-2 -165l131 622h-64l5 20h63l16 74q21 103 82 165t134 62q36 0 101 -25l77 25l-136 -628q-20 -96 -9 -148v-2h-135v2q28 54 56 185l86 391q17 75 0 127.5t-51 52.5q-30 0 -59 -43.5t-45 -122.5l-24 -115h88l-4 -20h-88l-131 -622h-93zM594 -10q-65 0 -110 102
q-26 56 -52 156l137 129q18 17 27 27.5t17 23.5t7.5 24t-8.5 23v2h132v-2q-77 -32 -147 -102l-86 -79q23 -87 50 -146q23 -50 42 -66.5t36 -16.5q25 0 38 21l3 -2q-12 -47 -31.5 -70.5t-54.5 -23.5z" />
    <glyph glyph-name=".notdef" horiz-adv-x="161" 
 />
    <glyph glyph-name=".null" horiz-adv-x="0" 
 />
    <glyph glyph-name="nonmarkingreturn" horiz-adv-x="333" 
 />
    <glyph glyph-name="NULL" horiz-adv-x="0" 
 />
    <glyph glyph-name="NULL" horiz-adv-x="0" 
 />
    <glyph glyph-name="CR" unicode="&#xd;" horiz-adv-x="149" 
 />
    <glyph glyph-name="space" unicode=" " horiz-adv-x="149" 
 />
    <glyph glyph-name="exclam" unicode="!" horiz-adv-x="232" 
d="M273 730l-152 -507h-16l63 507l1 2h105zM95 -5q-27 0 -46.5 19.5t-19.5 46.5q0 29 19 48.5t47 19.5t47 -19.5t19 -48.5q0 -27 -19.5 -46.5t-46.5 -19.5z" />
    <glyph glyph-name="quotedbl" unicode="&#x22;" horiz-adv-x="310" 
d="M127 507l-13 225h127l-104 -225h-10zM269 507l-13 225h127l-104 -225h-10z" />
    <glyph glyph-name="numbersign" unicode="#" horiz-adv-x="574" 
d="M415 481h-188l-50 -230h188zM360 231h-188l-51 -231h-25l51 231h-136v20h141l50 230h-138l2 20h141l51 231h25l-51 -231h188l51 231h25l-51 -231h139l-2 -20h-142l-50 -230h139v-20h-144l-51 -231h-25z" />
    <glyph glyph-name="dollar" unicode="$" horiz-adv-x="463" 
d="M463 538l-10 -2q-42 108 -76 150q-16 21 -35 30l-58 -274l26 -24q56 -50 86.5 -99.5t30.5 -120.5q0 -102 -65 -157.5t-169 -55.5h-6l-21 -99h-24l21 100q-28 1 -59 8q-43 9 -68 22l-8 202l10 2q40 -108 83 -162q23 -28 48 -42l66 309l-13 13q-31 29 -43 42t-33 40.5
t-29 56.5t-8 65q0 72 37 121.5t97 69.5q36 12 82 14l16 75h24l-16 -76q18 -1 50 -7q33 -7 61 -18zM219 5q57 0 87 42.5t30 104.5q0 80 -73 146l-8 8l-63 -298q14 -3 27 -3zM303 726q-48 0 -79 -35.5t-31 -88.5q0 -52 36 -102q22 -26 35 -38l56 262q-10 2 -17 2z" />
    <glyph glyph-name="percent" unicode="%" horiz-adv-x="688" 
d="M376 600q0 -104 -58.5 -179t-130.5 -75q-49 0 -78 40.5t-29 106.5q0 104 59 179t131 75q48 0 77 -40.5t29 -106.5zM189 361q29 0 56 55.5t41 126t14 126.5q0 63 -33 63q-42 0 -76 -108.5t-34 -199.5q0 -63 32 -63zM92 15l520 728l18 -12l-522 -730zM648 246
q0 -104 -58.5 -179t-130.5 -75q-49 0 -78 40.5t-29 106.5q0 104 59 179t131 75q48 0 77 -40.5t29 -106.5zM461 7q29 0 56 55.5t41 126t14 126.5q0 63 -33 63q-42 0 -76 -108.5t-34 -199.5q0 -63 32 -63z" />
    <glyph glyph-name="ampersand" unicode="&#x26;" horiz-adv-x="812" 
d="M756 291q0 -125 -97.5 -215.5t-265.5 -90.5q-159 0 -258 82.5t-99 209.5q0 93 50.5 146.5t131.5 59.5q-64 35 -64 115q0 65 44 107t120 42q40 0 76.5 -10.5t52.5 -23.5l8 -113l-10 -3q-37 62 -66 85.5t-71 23.5q-52 0 -83 -30.5t-31 -87.5q0 -93 73 -93q25 0 45 18
l-2 -76q-41 24 -79 24q-65 0 -109.5 -41.5t-44.5 -115.5q0 -110 97 -165.5t243 -55.5q147 0 228 57t81 162q0 69 -44 103.5t-141 34.5q-62 0 -99.5 -15t-37.5 -44q0 -35 48 -35q36 0 70 15l-10 -97q-68 -7 -97.5 29.5t-29.5 88.5q0 56 37.5 93.5t117.5 46.5q33 4 79 9t51 6
q127 11 127 84q0 43 -49 43q-31 0 -69 -16l10 98q47 4 77 -14.5t40.5 -46.5t10.5 -64q0 -72 -44.5 -118.5t-142.5 -54.5q60 -9 93 -50t33 -107z" />
    <glyph glyph-name="quotesingle" unicode="'" horiz-adv-x="168" 
d="M127 507l-13 225h127l-104 -225h-10z" />
    <glyph glyph-name="parenleft" unicode="(" horiz-adv-x="346" 
d="M217 -130q-131 122 -131 339q0 175 84 314t232 232l6 -10q-106 -105 -171 -264t-65 -338q0 -161 54 -266z" />
    <glyph glyph-name="parenright" unicode=")" horiz-adv-x="346" 
d="M150 755q131 -122 131 -339q0 -175 -84 -314t-232 -232l-6 10q106 105 171 264t65 338q0 161 -54 266z" />
    <glyph glyph-name="asterisk" unicode="*" horiz-adv-x="368" 
d="M266 427l-27 139l-87 -111l-48 56l123 69l-132 48l39 64l103 -97l5 141l73 -18l-61 -128l138 39l6 -74l-142 18l79 -118z" />
    <glyph glyph-name="plus" unicode="+" horiz-adv-x="532" 
d="M298 297v-209h-24v209h-209v22h209v209h24v-209h209v-22h-209z" />
    <glyph glyph-name="comma" unicode="," horiz-adv-x="254" 
d="M-22 -128q40 28 63.5 62.5t23.5 59.5q0 27 -35 77v2l107 68q36 -29 36 -73q0 -56 -58.5 -111t-132.5 -92z" />
    <glyph glyph-name="hyphen" unicode="-" horiz-adv-x="285" 
d="M40 251l11 48h214l-10 -48h-215z" />
    <glyph glyph-name="period" unicode="." horiz-adv-x="254" 
d="M102 -5q-27 0 -46.5 20t-19.5 46q0 29 19.5 48t46.5 19t46.5 -19t19.5 -48q0 -26 -20 -46t-46 -20z" />
    <glyph glyph-name="slash" unicode="/" horiz-adv-x="363" 
d="M449 781h28l-572 -911h-28z" />
    <glyph glyph-name="zero" unicode="0" horiz-adv-x="578" 
d="M578 465q0 -126 -48.5 -238t-125.5 -177t-160 -65q-92 0 -147 77t-55 205q0 126 48.5 238t125.5 177t160 65q92 0 147 -77t55 -205zM246 5q67 0 120 86.5t79 209t26 247.5q0 179 -97 179q-67 0 -120 -86.5t-78.5 -208.5t-25.5 -248q0 -179 96 -179z" />
    <glyph glyph-name="one" unicode="1" horiz-adv-x="273" 
d="M174 155q-10 -52 -8 -84t20 -69v-2h-182v2q31 39 44 69.5t23 83.5l74 424h-71l2 10q101 58 190 153h11z" />
    <glyph glyph-name="two" unicode="2" horiz-adv-x="474" 
d="M-31 0l4 15q223 203 306 332t83 254q0 61 -23 93.5t-60 32.5q-41 0 -82 -44.5t-94 -131.5l-10 4l50 165q70 27 144 27q87 0 134.5 -42t47.5 -117q0 -119 -89.5 -228t-294.5 -262h185q50 0 85 22t72 65l6 -4l-68 -181h-396z" />
    <glyph glyph-name="three" unicode="3" horiz-adv-x="470" 
d="M160 -15q-93 0 -135 38l-12 170l10 2q38 -98 70 -144t81 -46q71 0 116.5 84.5t45.5 183.5q0 75 -30 113t-80 38q-55 0 -110 -44l-8 11l264 243h-254l50 98h332l-2 -10l-309 -286q27 13 67 13q75 0 130.5 -49.5t55.5 -142.5q0 -114 -73 -193t-209 -79z" />
    <glyph glyph-name="four" unicode="4" horiz-adv-x="495" 
d="M209 2q25 36 36.5 67.5t21.5 85.5l6 35h-263l2 14l353 528h120l-446 -518h238l42 238h103l-42 -238h71l-9 -24h-67l-6 -35q-10 -55 -8.5 -84.5t13.5 -68.5v-2h-166z" />
    <glyph glyph-name="five" unicode="5" horiz-adv-x="458" 
d="M154 -15q-89 0 -135 38l-12 170l10 2q37 -98 70.5 -144t84.5 -46q69 0 110 81t41 192q0 166 -118 166q-57 0 -116 -42l-6 4l117 326h314l-35 -98h-293l-71 -196q51 30 120 30q86 0 141 -49.5t55 -149.5q0 -120 -78 -202t-199 -82z" />
    <glyph glyph-name="six" unicode="6" horiz-adv-x="498" 
d="M211 -15q-83 0 -130 62t-47 163q0 73 24 148t72 148t131 137t191 104l4 -10q-96 -51 -164.5 -138t-107.5 -194q51 81 135 81q72 0 114.5 -48t42.5 -137q0 -129 -81 -222.5t-184 -93.5zM214 5q61 0 107.5 94t46.5 210q0 137 -79 137q-35 0 -67 -20t-51 -60
q-33 -103 -33 -207q0 -154 76 -154z" />
    <glyph glyph-name="seven" unicode="7" horiz-adv-x="425" 
d="M38 0q120 299 384 634h-322l34 98h364l-1 -10q-241 -367 -348 -722h-111z" />
    <glyph glyph-name="eight" unicode="8" horiz-adv-x="478" 
d="M209 -15q-82 0 -136.5 43.5t-54.5 122.5q0 72 44.5 127.5t135.5 84.5q-86 75 -86 173q0 90 61.5 148t145.5 58q71 0 112.5 -42t41.5 -109q0 -59 -35 -110.5t-117 -76.5q59 -46 92 -91.5t33 -113.5q0 -98 -70 -156t-167 -58zM185 598q0 -54 32 -96t94 -89q95 73 95 195
q0 114 -94 114q-55 0 -91 -35.5t-36 -88.5zM223 5q65 0 105 39.5t40 100.5q0 38 -23.5 76t-43.5 56.5t-76 63.5q-9 8 -14 12q-119 -77 -119 -201q0 -71 35 -109t96 -38z" />
    <glyph glyph-name="nine" unicode="9" horiz-adv-x="498" 
d="M79 -5q95 49 165 137.5t108 194.5q-53 -81 -135 -81q-73 0 -115.5 48t-42.5 137q0 129 81.5 222.5t183.5 93.5q83 0 130.5 -61.5t47.5 -163.5q0 -73 -24 -148t-72 -148t-131.5 -137t-191.5 -104zM247 287q78 0 118 78q33 108 33 208q0 154 -76 154q-61 0 -107.5 -94
t-46.5 -210q0 -136 79 -136z" />
    <glyph glyph-name="colon" unicode=":" horiz-adv-x="262" 
d="M160 307q-27 0 -46.5 20t-19.5 46q0 29 19.5 48t46.5 19t46.5 -19t19.5 -48q0 -26 -20 -46t-46 -20zM107 -5q-27 0 -46.5 20t-19.5 46q0 29 19.5 48t46.5 19t46.5 -19t19.5 -48q0 -26 -20 -46t-46 -20z" />
    <glyph glyph-name="semicolon" unicode=";" horiz-adv-x="252" 
d="M-20 -128q40 28 63.5 62.5t23.5 59.5q0 27 -35 77v2l107 68q36 -29 36 -73q0 -56 -58.5 -111t-132.5 -92zM160 307q-27 0 -46.5 20t-19.5 46q0 29 19.5 48t46.5 19t46.5 -19t19.5 -48q0 -26 -20 -46t-46 -20z" />
    <glyph glyph-name="less" unicode="&#x3c;" horiz-adv-x="530" 
d="M64 293v26l430 208v-26l-407 -195l407 -195v-26z" />
    <glyph glyph-name="equal" unicode="=" horiz-adv-x="532" 
d="M65 377v22h442v-22h-442zM65 237v22h442v-22h-442z" />
    <glyph glyph-name="greater" unicode="&#x3e;" horiz-adv-x="530" 
d="M56 85v26l407 195l-407 195v26l430 -208v-26z" />
    <glyph glyph-name="question" unicode="?" horiz-adv-x="424" 
d="M122 223q17 62 46.5 112t58 81.5t55 61.5t42.5 66.5t16 82.5t-17 74t-48 28q-35 0 -71 -34.5t-88 -105.5l-6 2l46 131q73 25 135 25q72 0 115 -34t43 -103q0 -42 -17.5 -76t-45 -57t-63 -50t-69 -51.5t-65.5 -64.5t-51 -88h-16zM119 -5q-27 0 -46.5 19.5t-19.5 46.5
q0 29 19 48.5t47 19.5t47 -19.5t19 -48.5q0 -27 -19.5 -46.5t-46.5 -19.5z" />
    <glyph glyph-name="at" unicode="@" horiz-adv-x="856" 
d="M423 -161q-170 0 -280 96.5t-110 263.5q0 88 34 168t93.5 139.5t144.5 94.5t182 35q156 0 249 -84t93 -229q0 -122 -65 -206.5t-163 -84.5q-40 0 -67 16t-37.5 40t-14.5 52t2 53q-76 -166 -161 -166q-37 0 -59 33.5t-22 90.5q0 113 76.5 210t188.5 97q43 0 80 -14l37 14
h6l-62 -237q-10 -38 -13.5 -66t-0.5 -52.5t18.5 -37.5t42.5 -13q72 0 119 83.5t47 192.5q0 137 -80.5 212.5t-217.5 75.5q-89 0 -164 -34.5t-124 -93t-76 -134t-27 -158.5q0 -157 92.5 -247t242.5 -90q130 0 214 60l9 -16q-91 -64 -227 -64zM367 93q59 0 134 192l34 130
q-9 24 -42 24q-45 0 -83.5 -47t-58.5 -110t-20 -119q0 -70 36 -70z" />
    <glyph glyph-name="A" unicode="A" horiz-adv-x="519" 
d="M273 568l-128 -272h160zM80 0h-125v2q34 34 56.5 69.5t50.5 96.5l270 571h29l71 -583q14 -102 46 -154v-2h-177v2q33 46 20 159l-13 115h-172l-31 -66q-24 -50 -33 -93.5t-6 -70.5t14 -44v-2z" />
    <glyph glyph-name="B" unicode="B" horiz-adv-x="529" 
d="M5 0v2q28 49 40.5 83.5t21.5 93.5l68 374q12 61 11.5 97t-12.5 79v2q49 0 112.5 2t83.5 2q63 0 105.5 -12.5t62.5 -36t27.5 -47t7.5 -54.5q0 -80 -44.5 -133.5t-130.5 -65.5q68 -12 106 -52t38 -107q0 -101 -72 -164t-213 -63h-212zM213 390h64q43 0 74 18t47.5 48t24 63
t7.5 70q0 62 -24.5 94.5t-87.5 32.5q-23 0 -48 -5zM214 20q87 0 131.5 57.5t44.5 154.5q0 66 -26 102.5t-93 36.5h-62l-60 -339q22 -12 65 -12z" />
    <glyph glyph-name="C" unicode="C" horiz-adv-x="617" 
d="M520 47q-22 -19 -86 -40.5t-124 -21.5q-128 0 -197 85.5t-69 220.5q0 123 53 227.5t146 166.5t204 62q79 0 159 -31l10 -179l-10 -2q-53 108 -91.5 150t-93.5 42q-79 0 -141 -71.5t-93 -177.5t-31 -219q0 -122 40.5 -188t115.5 -66q14 0 28.5 3.5t26.5 8t26.5 15t24 17.5
t24.5 23l22.5 24t23.5 29t22 29t23.5 31.5t22.5 30.5l10 -3z" />
    <glyph glyph-name="D" unicode="D" horiz-adv-x="624" 
d="M3 2q27 39 38 67.5t18 78.5l80 435q8 52 7 81t-14 66v2q52 0 108 2t105 2q279 0 279 -291q0 -192 -111.5 -318.5t-289.5 -126.5h-220v2zM270 717l-125 -700l75 2q97 2 164.5 68t96.5 160.5t29 207.5q0 262 -181 262h-59z" />
    <glyph glyph-name="E" unicode="E" horiz-adv-x="518" 
d="M420 0h-416v2q45 81 58 160l75 408q9 55 8 83t-10 77v2h365l12 -172l-10 -2q-74 149 -118 153l-111 5l-61 -337h53q10 0 22 5.5t21 12t22 19.5t20 20.5t20 23t16 19.5h10l-38 -217h-10q-2 4 -8.5 16.5t-10 19t-10 17.5t-12 17.5t-13 13.5t-15.5 10t-17 3h-53l-62 -343
l130 5q31 1 71 31.5t67 61t66 80.5l9 -3z" />
    <glyph glyph-name="F" unicode="F" horiz-adv-x="495" 
d="M174 0h-171v2q27 46 40 80.5t22 91.5l69 384q12 61 11.5 94.5t-12.5 77.5v2h389l12 -172l-10 -2q-26 48 -41.5 74.5t-37.5 52t-40 26.5l-134 6l-60 -328h68q44 0 122 100h10l-39 -217h-10q-10 23 -14.5 31.5t-17 28.5t-26 28.5t-28.5 8.5h-68l-36 -195q-12 -61 -11 -94
t13 -78v-2z" />
    <glyph glyph-name="G" unicode="G" horiz-adv-x="642" 
d="M633 330q-28 -45 -40 -80t-22 -97l-10 -62q-1 -1 -30 -22.5t-44.5 -30t-46.5 -24t-65 -22.5t-71 -7q-124 0 -192 82.5t-68 220.5q0 119 53 224.5t148.5 170t209.5 64.5q91 0 160 -31l10 -179l-10 -2q-50 107 -89.5 149.5t-96.5 42.5q-80 0 -143.5 -71.5t-96 -179.5
t-32.5 -226q0 -245 148 -245q79 0 124.5 65t45.5 168q1 40 -15 92v2h173v-2z" />
    <glyph glyph-name="H" unicode="H" horiz-adv-x="628" 
d="M5 2q27 46 40 80.5t22 91.5l66 384q10 59 10 94t-12 78l-1 2h174v-2q-27 -42 -39.5 -76t-24.5 -96l-29 -171h256l29 171q12 60 11 93.5t-13 78.5v2h173v-2q-27 -42 -38.5 -75.5t-24.5 -96.5l-66 -384q-10 -59 -10 -94t12 -78v-2h-172v2q28 47 41 81t22 91l33 193h-257
l-33 -193q-10 -59 -10 -94t12 -78v-2h-171v2z" />
    <glyph glyph-name="I" unicode="I" horiz-adv-x="264" 
d="M3 0v2q27 46 40 80.5t22 91.5l69 384q12 61 11.5 94.5t-12.5 77.5v2h173v-2q-28 -42 -39.5 -74t-24.5 -98l-70 -384q-11 -65 -10 -94t12 -78v-2h-171z" />
    <glyph glyph-name="J" unicode="J" horiz-adv-x="360" 
d="M275 168q-17 -95 -64.5 -139t-116.5 -44q-51 0 -94 22l13 158l10 2q27 -92 43.5 -127t36.5 -35q35 0 47 76l84 477q10 60 9.5 93.5t-12.5 78.5v2h174v-2q-28 -44 -40.5 -78.5t-22.5 -93.5z" />
    <glyph glyph-name="K" unicode="K" horiz-adv-x="546" 
d="M3 2q27 46 40 80.5t22 91.5l69 384q12 61 11.5 94.5t-12.5 77.5v2h174l-1 -2q-28 -42 -39.5 -74t-24.5 -98l-70 -384q-11 -65 -10 -94t12 -78v-2h-171v2zM374 0l-162 361l193 220q93 100 73 149v2h129v-2q-54 -32 -89 -63t-83 -84l-134 -150l138 -308q20 -47 35.5 -72
t43.5 -51l1 -2h-145z" />
    <glyph glyph-name="L" unicode="L" horiz-adv-x="496" 
d="M3 0v2q27 47 38.5 78t23.5 94l69 384q10 63 10.5 94.5t-11.5 77.5v2h173v-2q-28 -41 -39.5 -73.5t-24.5 -98.5l-97 -544l109 5q47 2 95.5 50t109.5 130l10 -4l-72 -195h-394z" />
    <glyph glyph-name="M" unicode="M" horiz-adv-x="734" 
d="M-15 0v2q40 50 56.5 86.5t28.5 103.5l67 390l-4 -14q9 61 2.5 93.5t-38.5 68.5l1 2h159l103 -552l275 552h172v-2q-47 -37 -66 -69t-29 -93l-67 -394q-10 -59 -10 -94t12 -78l-1 -2h-173l1 2q28 47 41 81t22 91l80 469l-312 -622h-22l-114 621l-74 -450q-11 -63 -7 -102
t30 -88l-1 -2h-132z" />
    <glyph glyph-name="N" unicode="N" horiz-adv-x="586" 
d="M168 623l-75 -431q-12 -65 -7 -102.5t31 -87.5v-2h-124v2q26 32 40.5 62.5t19.5 51.5t15 76l69 378l-1 -2q11 60 7 94t-34 68v2h131l241 -559l65 367q12 66 8.5 102t-25.5 88v2h123v-2q-38 -53 -53.5 -88.5t-27.5 -101.5l-98 -540l-31 -3z" />
    <glyph glyph-name="O" unicode="O" horiz-adv-x="675" 
d="M675 448q0 -118 -52.5 -225t-141 -172.5t-187.5 -65.5q-113 0 -181.5 83t-68.5 216q0 118 52.5 225t140.5 172.5t187 65.5q113 0 182 -83t69 -216zM157 236q0 -108 35.5 -169.5t106.5 -61.5q78 0 140 77.5t92.5 188.5t30.5 225q0 108 -36 169.5t-107 61.5
q-77 0 -139 -77.5t-92.5 -188.5t-30.5 -225z" />
    <glyph glyph-name="P" unicode="P" horiz-adv-x="503" 
d="M3 2q27 46 40 80.5t22 91.5l69 384q12 61 11.5 94.5t-12.5 77.5v2h207q202 0 202 -167q0 -112 -78.5 -188.5t-208.5 -76.5h-60l-23 -126q-11 -63 -10 -93.5t12 -78.5v-2h-171v2zM324 712h-22q-6 0 -32 -2l-71 -390h56q47 0 83 23.5t56 62t30 81t10 86.5q0 78 -28.5 108.5
t-81.5 30.5z" />
    <glyph glyph-name="Q" unicode="Q" horiz-adv-x="675" 
d="M675 448q0 -133 -66.5 -249.5t-169.5 -175.5q-50 -27 -107 -35q38 -33 83 -49q54 -17 104 -17q77 0 135 25l-37 -89q-36 -22 -93 -22q-50 0 -90.5 17t-65.5 44t-38.5 47t-21.5 40v1h-14q-113 0 -181.5 83t-68.5 216q0 118 52.5 225t140.5 172.5t187 65.5q113 0 182 -83
t69 -216zM157 236q0 -108 35.5 -169.5t106.5 -61.5q78 0 140 77.5t92.5 188.5t30.5 225q0 108 -36 169.5t-107 61.5q-77 0 -139 -77.5t-92.5 -188.5t-30.5 -225z" />
    <glyph glyph-name="R" unicode="R" horiz-adv-x="552" 
d="M4 2q26 46 38 80.5t24 97.5l68 374q12 61 11.5 95.5t-12.5 80.5v2h231q181 0 181 -149q0 -71 -42 -129.5t-120 -84.5l56 -232q24 -93 76 -130v-7h-155l-84 353h-71l-32 -174q-12 -62 -11 -97t13 -80v-2h-171v2zM341 713h-27q-27 0 -44 -1l-62 -339h75q70 0 109.5 66
t39.5 150q0 124 -91 124z" />
    <glyph glyph-name="S" unicode="S" horiz-adv-x="463" 
d="M463 538l-10 -2q-41 108 -74.5 149t-75.5 41q-48 0 -79 -35.5t-31 -88.5q0 -13 1.5 -25.5t6.5 -24.5t8.5 -21t13 -21t14 -18.5t17.5 -19.5l17 -17t20 -19t19 -18q56 -50 86.5 -99.5t30.5 -120.5q0 -102 -65 -157.5t-169 -55.5q-97 0 -157 31l-8 202l10 2
q43 -112 84.5 -163.5t96.5 -51.5q57 0 87 42.5t30 104.5q0 13 -2 25t-4 21.5t-8.5 21.5t-9 18.5t-12.5 19t-13 16.5t-16 17t-15.5 15t-17.5 16.5t-16 15.5q-31 29 -43 42t-33 40.5t-29 56.5t-8 65q0 95 63 150t155 55q71 0 133 -26z" />
    <glyph glyph-name="T" unicode="T" horiz-adv-x="591" 
d="M165 0v2q28 47 41 81t22 91l98 542l-82 -4q-8 -1 -18 -6.5t-22.5 -17.5t-23.5 -23.5t-26.5 -31t-25.5 -32t-26.5 -34.5t-24.5 -32l-10 4l65 193h499l-5 -195l-9 -2q-49 121 -68 150q-18 27 -34 27l-81 3l-97 -541q-10 -64 -10.5 -94t11.5 -78v-2h-173z" />
    <glyph glyph-name="U" unicode="U" horiz-adv-x="571" 
d="M256 -15q-103 0 -158 65.5t-32 192.5l58 315q10 60 9.5 93.5t-12.5 78.5v2h174v-2q-43 -67 -63 -172l-57 -312q-43 -236 102 -236q80 0 127.5 64.5t65.5 166.5l55 299q12 66 7 102t-31 88v2h141v-2q-45 -51 -62.5 -87.5t-29.5 -102.5l-56 -299q-10 -55 -26 -98t-43 -80.5
t-70 -57.5t-99 -20z" />
    <glyph glyph-name="V" unicode="V" horiz-adv-x="511" 
d="M198 -8l-73 575q-15 104 -46 163v2h181v-2q-36 -60 -24 -164l48 -402l168 361q61 133 37 205v2h114v-2q-61 -65 -107 -164l-269 -574h-29z" />
    <glyph glyph-name="W" unicode="W" horiz-adv-x="816" 
d="M190 -8l-63 575q-12 102 -46 163v2h181v-2q-35 -58 -24 -164l42 -398l166 363l-3 36q-8 93 -45 163v2h181v-2q-36 -42 -25 -164l34 -402l172 361q62 132 37 205v2h114v-2q-61 -65 -107 -164l-275 -574h-32l-47 496l-229 -496h-31z" />
    <glyph glyph-name="X" unicode="X" horiz-adv-x="540" 
d="M100 0h-143v2q73 49 146 154l143 204l-76 234q-33 102 -74 136v2h198v-2q-15 -16 -17.5 -53t9.5 -77l51 -157l82 110q43 58 53.5 97t1.5 80v2h143v-2q-77 -53 -153 -154l-119 -159l90 -278q32 -102 74 -137v-2h-197v2q15 16 17.5 53t-9.5 77l-65 201l-108 -154
q-80 -113 -47 -177v-2z" />
    <glyph glyph-name="Y" unicode="Y" horiz-adv-x="484" 
d="M114 2q26 38 37.5 67.5t21.5 80.5l33 187l-65 256q-28 97 -66 137v2h194v-2q-18 -16 -22.5 -52.5t5.5 -76.5l58 -231l101 169q72 113 45 191v2h126v-2q-37 -33 -62.5 -67t-70.5 -103l-137 -227l-31 -183q-10 -51 -8 -80.5t16 -67.5l-1 -2h-174v2z" />
    <glyph glyph-name="Z" unicode="Z" horiz-adv-x="512" 
d="M-27 0v11l472 705l-96 -3q-80 -3 -138.5 -51.5t-111.5 -126.5l-10 4l70 193h410v-11l-470 -705l118 3q57 2 109 34.5t85.5 73t70.5 99.5l10 -4l-83 -222h-436z" />
    <glyph glyph-name="bracketleft" unicode="[" horiz-adv-x="365" 
d="M209 755h241l-4 -20h-153l-180 -845h155l-5 -20h-241z" />
    <glyph glyph-name="backslash" unicode="\" horiz-adv-x="361" 
d="M73 781l314 -911h-26l-314 911h26z" />
    <glyph glyph-name="bracketright" unicode="]" horiz-adv-x="365" 
d="M175 -130h-241l4 20h153l180 845h-155l5 20h241z" />
    <glyph glyph-name="asciicircum" unicode="^" horiz-adv-x="412" 
d="M278 652l-199 -179l-8 8l219 274h6l126 -276l-10 -6z" />
    <glyph glyph-name="underscore" unicode="_" horiz-adv-x="496" 
d="M-8 -100l4 20h430l-4 -20h-430z" />
    <glyph glyph-name="grave" unicode="`" horiz-adv-x="300" 
d="M295 542l-155 158l71 49l95 -200z" />
    <glyph glyph-name="a" unicode="a" horiz-adv-x="464" 
d="M302 193q-90 -208 -190 -208q-45 0 -71 38.5t-26 106.5q0 84 38 166t112 139t163 57q56 0 92 -16l39 16h7l-91 -352q-18 -57 -12.5 -85t43.5 -43v-2l-156 -19zM161 58q21 0 43.5 20t43.5 57t37.5 71.5t35.5 81.5l41 153q-12 28 -51 28q-54 0 -100.5 -55t-70.5 -128.5
t-24 -139.5q0 -88 45 -88z" />
    <glyph glyph-name="b" unicode="b" horiz-adv-x="474" 
d="M194 -15q-76 0 -122.5 51.5t-24.5 154.5l83 388q15 105 -21 148v2l158 50l-108 -491q77 204 194 204q105 0 105 -157q0 -139 -75.5 -244.5t-188.5 -105.5zM200 3q47 0 86 54.5t58.5 130t19.5 149.5q0 55 -13 77.5t-40 22.5q-35 0 -74.5 -48t-90.5 -182l-7 -34
q-19 -86 0.5 -128t60.5 -42z" />
    <glyph glyph-name="c" unicode="c" 
d="M350 152q-22 -77 -69 -122t-115 -45q-72 0 -111.5 49t-39.5 134q0 127 80 225.5t195 98.5q69 0 94 -16v-130l-9 -2q-5 9 -17 30.5t-16.5 29.5t-14 23t-15 20.5t-14.5 13.5t-17.5 10.5t-18.5 2.5q-50 0 -98.5 -76.5t-48.5 -181.5q0 -75 28 -114t79 -39q78 0 122 91z" />
    <glyph glyph-name="d" unicode="d" horiz-adv-x="484" 
d="M156 57q83 0 187 263l27 126q-11 23 -50 23q-57 0 -107 -53t-77 -128t-27 -146q0 -85 47 -85zM329 237q-44 -110 -101.5 -181t-119.5 -71q-43 0 -68 34.5t-25 101.5q0 89 37.5 172.5t113 141t170.5 57.5q23 0 44 -3l19 90q24 110 -21 147v2l156 50l-135 -638
q-15 -62 -10 -88.5t44 -34.5v-2l-158 -24l55 246h-1z" />
    <glyph glyph-name="e" unicode="e" 
d="M158 -15q-66 0 -104.5 45.5t-38.5 129.5q0 128 84 230t193 102q38 0 71 -16t33 -55q0 -50 -63 -82.5t-200 -34.5q-14 -53 -14 -106q0 -139 95 -139q74 0 118 79l5 -5q-26 -72 -73 -110t-106 -38zM282 474q-42 0 -82.5 -45t-62.5 -115q103 18 142 53t39 70q0 37 -36 37z
" />
    <glyph glyph-name="f" unicode="f" horiz-adv-x="275" 
d="M129 457h-64l5 20h63l16 74q21 103 81 165t130 62q28 0 56 -10l8 -115l-8 -2q-48 82 -65 97q-11 10 -21 10q-46 0 -80 -166l-24 -115h88l-4 -20h-88l-131 -622h-93z" />
    <glyph glyph-name="g" unicode="g" horiz-adv-x="426" 
d="M136 248q0 -44 9 -64t32 -20q43 0 77.5 69.5t34.5 156.5q0 44 -9 64t-32 20q-43 0 -77.5 -69.5t-34.5 -156.5zM361 -62q0 -70 -70 -117t-184 -47q-82 0 -134 25.5t-52 73.5q0 46 46 78t110 43q-57 24 -57 74q0 34 26.5 59.5t63.5 36.5q-30 18 -47 51t-17 70
q0 78 64.5 142.5t137.5 64.5q37 0 68 -18l154 36l1 -1l-20 -79h-4l-116 32q48 -42 48 -109q0 -78 -64 -142.5t-138 -64.5q-31 0 -55 12q-34 -18 -34 -42q0 -22 26 -33.5t84 -24.5q7 -1 10 -2q82 -19 109 -37q44 -28 44 -81zM136 -197q75 0 120.5 26t45.5 68q0 32 -28 45
t-86 24q-11 2 -17 3q-4 1 -34.5 8t-44.5 12q-87 -30 -87 -100q0 -86 131 -86z" />
    <glyph glyph-name="h" unicode="h" horiz-adv-x="495" 
d="M356 328q19 87 -34 87q-41 0 -81.5 -61t-98.5 -195l-2 -11q-19 -90 -7 -146v-2h-135v2q26 49 56 185l84 392q24 110 -21 147v2l156 50l-120 -546q44 115 101 187.5t121 72.5q47 0 69 -41.5t7 -116.5l-40 -193q-6 -27 -8.5 -40t-4.5 -30.5t-0.5 -25.5t6 -17t13.5 -13
t23 -7v-2l-159 -15z" />
    <glyph glyph-name="i" unicode="i" horiz-adv-x="221" 
d="M246 658q0 -24 -17 -41.5t-42 -17.5q-24 0 -41.5 17.5t-17.5 41.5q0 25 17.5 42.5t41.5 17.5q25 0 42 -17.5t17 -42.5zM1 2q6 10 11 20t9.5 23t7.5 22t7.5 27t6.5 26.5t7.5 32.5t7.5 34l24 111q22 112 -21 147v2l158 50l-66 -310q-27 -128 -16 -185v-2h-136v2z" />
    <glyph glyph-name="j" unicode="j" horiz-adv-x="211" 
d="M242 658q0 -24 -17 -41.5t-42 -17.5q-24 0 -41.5 17.5t-17.5 41.5q0 25 17.5 42.5t41.5 17.5q25 0 42 -17.5t17 -42.5zM-93 -209q71 39 93 140l79 367q23 113 -22 147v2l157 50l-109 -498q-22 -97 -75 -151t-122 -63z" />
    <glyph glyph-name="k" unicode="k" horiz-adv-x="454" 
d="M-2 0v2q13 24 23 55.5t15 51.5t18 78l82 392q24 110 -21 147v2l158 50l-131 -628q-20 -96 -9 -148v-2h-135zM168 248l145 137q31 30 38.5 49.5t-4.5 40.5v2h132v-2q-41 -17 -73 -39.5t-74 -62.5l-82 -76l92 -205q29 -65 69 -90v-2h-132z" />
    <glyph glyph-name="l" unicode="l" horiz-adv-x="217" 
d="M-2 0v2q26 49 56 185l84 392q24 110 -21 147v2l156 50l-125 -589q-26 -127 -15 -187v-2h-135z" />
    <glyph glyph-name="m" unicode="m" horiz-adv-x="740" 
d="M602 328q20 87 -25 87q-38 0 -73 -55.5t-100 -198.5q-13 -63 -15 -91.5t5 -67.5v-2h-135v2q33 69 55 184l30 142q19 87 -24 87q-37 0 -73 -57t-100 -199l-2 -11q-19 -92 -8 -146v-2h-135v2q13 24 23 55.5t15 51.5t18 78l24 111q24 111 -22 147v2l154 50l-57 -268
q44 115 100.5 189t117.5 74q44 0 59.5 -40t-0.5 -121l-22 -103q106 264 218 264q48 0 66 -41t1 -117l-42 -195q-17 -65 -12.5 -92t43.5 -35v-2l-158 -19z" />
    <glyph glyph-name="n" unicode="n" horiz-adv-x="501" 
d="M362 328q9 38 0.5 62.5t-34.5 24.5q-41 0 -81.5 -61t-98.5 -195l-2 -11q-20 -95 -9 -146v-2h-135v2q33 64 56 185l24 111q24 111 -21 147v2l154 50l-57 -267q44 116 101.5 189t121.5 73q47 0 69 -41.5t7 -116.5l-41 -193q-17 -65 -13 -95t43 -38v-2l-159 -15z" />
    <glyph glyph-name="o" unicode="o" horiz-adv-x="442" 
d="M427 311q0 -79 -38.5 -155.5t-99.5 -123.5t-122 -47q-74 0 -113 47.5t-39 132.5q0 80 38.5 156.5t99.5 123.5t122 47q74 0 113 -48t39 -133zM110 120q0 -117 60 -117q63 0 112.5 107t49.5 247q0 117 -59 117q-43 0 -81 -49t-60 -131t-22 -174z" />
    <glyph glyph-name="p" unicode="p" horiz-adv-x="485" 
d="M212 3q47 0 86 54.5t58.5 130t19.5 149.5q0 55 -13.5 77.5t-41.5 22.5q-34 0 -74 -48t-93 -182l-14 -75q-8 -65 13.5 -97t58.5 -32zM-45 -225v2q26 48 56 186l70 335q23 113 -20 147v2l154 50l-43 -200q77 195 193 195q105 0 105 -161q0 -86 -34 -165.5t-95 -130
t-133 -50.5q-55 0 -92 24l-17 -84q-21 -102 -9 -148v-2h-135z" />
    <glyph glyph-name="q" unicode="q" horiz-adv-x="473" 
d="M205 -223q33 60 64 200l50 240q-42 -103 -96.5 -167.5t-114.5 -64.5q-43 0 -68 34.5t-25 101.5q0 89 37.5 172.5t113 141t171.5 57.5q63 0 103 -20l23 20h9l-111 -529q-28 -126 -19 -186v-2h-138zM159 57q85 0 182 263l15 75q15 74 -42 74q-54 0 -102.5 -53t-75.5 -127.5
t-27 -143.5q0 -88 50 -88z" />
    <glyph glyph-name="r" unicode="r" horiz-adv-x="343" 
d="M2 2q13 24 23 55.5t15 51.5t18 78l24 111q24 109 -20 147v2l150 50l-62 -292q116 287 223 287l-43 -123h-4q-10 7 -22 7q-36 0 -69.5 -49.5t-86.5 -167.5l-2 -11q-21 -88 -9 -146v-2h-135v2z" />
    <glyph glyph-name="s" unicode="s" horiz-adv-x="331" 
d="M310 348l-6 -2q-36 74 -58.5 101t-54.5 27q-29 0 -45.5 -20t-16.5 -49q0 -27 16.5 -50.5t40.5 -43.5t48 -41.5t40.5 -54.5t16.5 -73q0 -73 -46.5 -115t-117.5 -42q-73 0 -116 28l-5 142l6 2q37 -82 69 -118t68 -36q30 0 50 22t20 60q0 31 -16.5 57t-39.5 46.5t-46.5 41.5
t-40 52.5t-16.5 69.5q0 68 44 104t110 36q59 0 97 -15z" />
    <glyph glyph-name="t" unicode="t" horiz-adv-x="318" 
d="M116 -15q-90 0 -62 139l72 333h-52v8l165 119h9l-23 -107h116l-4 -20h-116l-71 -334q-16 -72 17 -72q22 0 48.5 22t45.5 49l10 -7q-71 -130 -155 -130z" />
    <glyph glyph-name="u" unicode="u" horiz-adv-x="470" 
d="M302 194q-93 -209 -203 -209q-46 0 -68.5 39.5t-3.5 108.5l54 204q18 57 13 90t-42 48v2h156l-86 -338q-10 -38 -1.5 -62.5t34.5 -24.5q38 0 81.5 66.5t96.5 198.5l14 54q12 31 5 60.5t-44 43.5v2h160l-87 -337q-12 -43 -14 -64.5t8 -37.5t37 -26v-2l-161 -19z" />
    <glyph glyph-name="v" unicode="v" horiz-adv-x="374" 
d="M78 344q0 55 -8 82t-32 49v2h133l9 -329l80 127q54 84 61.5 130t-29.5 70v2h127v-2l-315 -485h-15z" />
    <glyph glyph-name="w" unicode="w" horiz-adv-x="570" 
d="M79 344q-2 53 -11 80.5t-30 50.5v2h134l7 -320l124 207q-3 66 -45 111v2h138l4 -315l64 113q48 81 52 129t-29 71v2h123v-2l-285 -485h-15l-6 333l-198 -333h-16z" />
    <glyph glyph-name="x" unicode="x" horiz-adv-x="440" 
d="M98 0h-128v2q65 44 132 122l82 101l-50 135q-30 78 -65 115v2h159v-2q-13 -8 -14.5 -33t14.5 -74l31 -84l43 55q84 104 40 136v2h128v-2q-76 -55 -127 -122l-75 -93l54 -144q25 -66 67 -114v-2h-157v2q23 30 -5 106l-34 92l-51 -62q-74 -92 -44 -136v-2z" />
    <glyph glyph-name="y" unicode="y" horiz-adv-x="368" 
d="M-84 -125q128 -12 189 101l9 16l-35 352q-6 59 -15 84.5t-34 46.5v2h133l31 -339l75 137q33 60 45.5 96.5t5.5 62t-36 41.5v2h128v-2l-309 -543q-47 -84 -98 -117t-113 -40z" />
    <glyph glyph-name="z" unicode="z" horiz-adv-x="393" 
d="M-28 0v7l332 453l-97 -4q-51 -3 -152 -98l-4 2l49 117h315v-8l-331 -452l109 2q27 0 58.5 17.5t53.5 37t56 53.5l4 -2l-55 -125h-338z" />
    <glyph glyph-name="braceleft" unicode="{" horiz-adv-x="340" 
d="M222 -130q-170 0 -170 106q0 43 27.5 89t55 89.5t27.5 79.5q0 68 -97 68h-21l5 21h21q113 0 131 87q8 38 -8.5 107t-10.5 107q12 63 70.5 97t156.5 34h16l-4 -20h-16q-59 0 -91.5 -25t-40.5 -82q-7 -44 -3 -107t-3 -90q-14 -61 -56 -88t-112 -29l-1 -3q121 0 121 -98
q0 -48 -41 -131t-41 -124q0 -37 22.5 -52.5t67.5 -15.5h15l-4 -20h-16z" />
    <glyph glyph-name="bar" unicode="|" horiz-adv-x="205" 
d="M115 -130v911h25v-911h-25z" />
    <glyph glyph-name="braceright" unicode="}" horiz-adv-x="340" 
d="M142 755q170 0 170 -106q0 -43 -27.5 -89t-55 -89.5t-27.5 -79.5q0 -68 97 -68h21l-5 -21h-21q-113 0 -131 -87q-8 -38 8.5 -107t10.5 -107q-12 -63 -70.5 -97t-156.5 -34h-16l4 20h16q59 0 91.5 25t40.5 82q7 44 3 107t3 90q14 61 56 88t112 29l1 3q-121 0 -121 98
q0 48 41 131t41 124q0 37 -22.5 52.5t-67.5 15.5h-15l4 20h16z" />
    <glyph glyph-name="asciitilde" unicode="~" horiz-adv-x="452" 
d="M154 330q17 0 39 -7l53 -15q74 -22 113 -22q29 0 44 12.5t24 40.5l9 -1q-3 -43 -24.5 -79.5t-70.5 -36.5q-26 0 -103 22t-103 22q-54 0 -68 -55l-10 1q3 43 26 80.5t71 37.5z" />
    <glyph glyph-name="uni00A0" unicode="&#xa0;" horiz-adv-x="149" 
 />
    <glyph glyph-name="exclamdown" unicode="&#xa1;" horiz-adv-x="232" 
d="M-35 -243l152 507h16l-63 -507l-1 -2h-105zM143 492q27 0 46.5 -19.5t19.5 -46.5q0 -29 -19 -48.5t-47 -19.5t-47 19.5t-19 48.5q0 27 19.5 46.5t46.5 19.5z" />
    <glyph glyph-name="cent" unicode="&#xa2;" 
d="M350 152q-21 -74 -68 -121q-40 -40 -101 -45l-21 -100h-25l21 99q-66 5 -102 49q-39 50 -39 134q0 94 45 174.5t120 121.5q40 22 83 26l14 67h25l-14 -65h2q69 0 94 -16v-130l-9 -2q-4 8 -12.5 23.5t-12.5 23t-11 19t-11.5 18t-10.5 14.5t-11.5 13t-11.5 9q-4 4 -11 6
l-85 -405q14 -2 24 -2q78 0 122 91zM213 454q-40 -29 -69 -94.5t-29 -143.5q0 -77 28 -115q13 -18 31 -28l85 401q-23 -2 -46 -20z" />
    <glyph glyph-name="sterling" unicode="&#xa3;" horiz-adv-x="533" 
d="M424 0h-448v8q24 14 38.5 25t35 36t36 60t34.5 95t38 143h-74l6 19h72l2 9l17 77q28 136 93.5 205.5t139.5 69.5q40 0 107 -30l10 -178l-10 -2q-90 190 -129 190q-18 0 -35.5 -46.5t-58.5 -190.5l-11 -41q-1 -4 -8 -27.5t-11 -35.5h117l-6 -19h-117
q-34 -103 -73.5 -165.5t-91.5 -108.5h232q58 0 94 20t71 68l8 -3z" />
    <glyph glyph-name="yen" unicode="&#xa5;" horiz-adv-x="482" 
d="M113 2q26 38 37.5 67.5t21.5 80.5l7 41h-155l3 20h156l19 110h-152l4 20h151l-60 252q-21 88 -66 137v2h198v-2q-18 -15 -23 -52.5t5 -76.5l51 -229l95 167q72 127 45 191v2h126v-2q-77 -69 -133 -170l-128 -219h148l-4 -20h-150l-19 -110h147l-4 -20h-146l-7 -41
q-10 -51 -8 -80.5t16 -67.5l-1 -2h-174v2z" />
    <glyph glyph-name="brokenbar" unicode="&#xa6;" horiz-adv-x="205" 
d="M115 365v416h25v-416h-25zM115 -130v415h25v-415h-25z" />
    <glyph glyph-name="section" unicode="&#xa7;" horiz-adv-x="520" 
d="M246 191q63 -42 89 -73q64 30 64 104q0 26 -8.5 47.5t-29.5 42.5t-35 32.5t-47 34.5q-58 40 -86 76q-67 -30 -67 -107q0 -48 30.5 -83t89.5 -74zM180 -164q-86 0 -146 34l-9 136l7 2q57 -154 161 -154q47 0 76.5 31.5t29.5 80.5q0 19 -6 36t-11 27.5t-23 26.5t-23 20
t-31.5 22t-29.5 20q-60 39 -91.5 80.5t-31.5 100.5q0 60 33 105.5t98 65.5q-25 42 -25 92q0 77 54 131t157 54q86 0 123 -29l8 -116l-7 -3q-55 129 -146 129q-52 0 -81 -35t-29 -85q0 -49 28 -83t85 -72q60 -37 91.5 -79.5t31.5 -101.5q0 -60 -31.5 -105.5t-94.5 -64.5
q30 -43 30 -97q0 -73 -51 -121t-146 -48z" />
    <glyph glyph-name="dieresis" unicode="&#xa8;" horiz-adv-x="306" 
d="M194 658q0 -24 -17.5 -41.5t-41.5 -17.5q-25 0 -42 17.5t-17 41.5q0 25 17 42.5t42 17.5q24 0 41.5 -17.5t17.5 -42.5zM374 658q0 -24 -17.5 -41.5t-42.5 -17.5q-24 0 -41.5 17.5t-17.5 41.5q0 25 17.5 42.5t41.5 17.5q25 0 42.5 -17.5t17.5 -42.5z" />
    <glyph glyph-name="copyright" unicode="&#xa9;" horiz-adv-x="834" 
d="M46 366q0 159 111 269.5t270 110.5t270.5 -110.5t111.5 -269.5t-111.5 -270t-270.5 -111t-270 111t-111 270zM72 366q0 -149 104 -254t251 -105q146 0 250 105t104 254t-103.5 253.5t-250.5 104.5t-251 -104.5t-104 -253.5zM584 196q-14 -10 -58.5 -24.5t-92.5 -14.5
q-98 0 -158.5 59.5t-60.5 149.5q0 88 65 149t165 61q62 0 138 -27l11 -100l-6 -2q-42 62 -74 87t-77 25q-72 0 -107 -52.5t-35 -140.5t34.5 -140.5t104.5 -52.5q54 0 87.5 33.5t68.5 102.5l6 -2z" />
    <glyph glyph-name="ordfeminine" unicode="&#xaa;" horiz-adv-x="373" 
d="M177 415q50 0 113 166l34 128q-8 20 -35 20q-57 0 -100.5 -85t-43.5 -165q0 -64 32 -64zM279 516q-66 -166 -146 -166q-35 0 -56 30.5t-21 84.5q0 103 69.5 192.5t177.5 89.5q41 0 74 -12l35 12h6l-72 -276q-13 -42 -8.5 -64t32.5 -36v-1l-132 -15z" />
    <glyph glyph-name="guillemotleft" unicode="&#xab;" horiz-adv-x="418" 
d="M322 52l-115 175l5 20l189 175l6 -6l-130 -186l52 -175zM172 52l-115 175l5 20l189 175l6 -6l-130 -186l52 -175z" />
    <glyph glyph-name="registered" unicode="&#xae;" horiz-adv-x="476" 
d="M45 541q0 86 62 146t150 60q87 0 147.5 -59.5t60.5 -146.5q0 -86 -62 -145.5t-149 -59.5q-88 0 -148.5 59t-60.5 146zM70 541q0 -78 53.5 -131t131.5 -53t131.5 53t53.5 131q0 79 -53.5 132t-131.5 53q-79 0 -132 -53t-53 -132zM171 433q12 25 12 54v112q0 27 -12 52v2
h97q75 0 75 -54q0 -43 -45 -59l37 -67q16 -31 36 -40v-1h-65l-53 103h-26v-48q0 -33 12 -54v-1h-68v1zM260 640h-14q-12 0 -19 -1v-91h33q38 0 38 49q0 43 -38 43z" />
    <glyph glyph-name="macron" unicode="&#xaf;" horiz-adv-x="306" 
d="M109 645h244l-10 -49h-243z" />
    <glyph glyph-name="degree" unicode="&#xb0;" horiz-adv-x="317" 
d="M61 615q0 54 39.5 93t95.5 39t93 -38.5t37 -93.5t-39.5 -94t-94.5 -39q-56 0 -93.5 38.5t-37.5 94.5zM87 615q0 -48 29.5 -79.5t77.5 -31.5q47 0 76.5 31.5t29.5 79.5t-29.5 79t-76.5 31q-48 0 -77.5 -31t-29.5 -79z" />
    <glyph glyph-name="acute" unicode="&#xb4;" horiz-adv-x="306" 
d="M274 749l55 -64l-202 -134l-7 8z" />
    <glyph glyph-name="paragraph" unicode="&#xb6;" horiz-adv-x="495" 
d="M184 -35l1 1q28 66 48 158l51 243h-24q-90 0 -142.5 41.5t-52.5 122.5q0 92 68 146.5t185 54.5h92v-1q-32 -76 -50 -158l-94 -449q-21 -95 -18 -158v-1h-64zM289 -35v1q32 76 50 158l94 449q21 96 18 158v1h63v-1q-30 -69 -49 -158l-95 -449q-20 -108 -17 -158v-1h-64z
" />
    <glyph glyph-name="periodcentered" unicode="&#xb7;" horiz-adv-x="241" 
d="M125 206q-27 0 -46.5 20t-19.5 46q0 29 19.5 48t46.5 19t46.5 -19t19.5 -48q0 -26 -20 -46t-46 -20z" />
    <glyph glyph-name="cedilla" unicode="&#xb8;" horiz-adv-x="306" 
d="M-8 -246q111 32 111 89q0 8 -2 14.5t-7 11t-8.5 7.5t-11.5 5t-11 2.5t-11 2.5l-9 1l-1 2l84 113h25l-48 -62q66 -19 66 -72q0 -92 -174 -123z" />
    <glyph glyph-name="ordmasculine" unicode="&#xba;" horiz-adv-x="365" 
d="M400 594q0 -93 -68 -168.5t-146 -75.5q-62 0 -96 40.5t-34 112.5q0 92 68 168t145 76q63 0 97 -40t34 -113zM146 446q0 -82 42 -82q47 0 84.5 91.5t37.5 195.5q0 82 -42 82q-49 0 -85.5 -90.5t-36.5 -196.5z" />
    <glyph glyph-name="guillemotright" unicode="&#xbb;" horiz-adv-x="418" 
d="M250 422l115 -175l-5 -20l-189 -175l-6 6l130 186l-52 175zM100 422l115 -175l-5 -20l-189 -175l-6 6l130 186l-52 175z" />
    <glyph glyph-name="onequarter" unicode="&#xbc;" horiz-adv-x="623" 
d="M200 462q-10 -62 0 -107v-1h-120v1q27 41 41 107l39 195h-37l2 6q59 26 125 82h6zM61 15l520 728l18 -12l-522 -730zM364 1q26 42 36 99h-126l1 6l191 279h97l-267 -268h108l21 100h84l-19 -100h36l-6 -17h-34q-10 -57 0 -99v-1h-122v1z" />
    <glyph glyph-name="onehalf" unicode="&#xbd;" horiz-adv-x="636" 
d="M61 15l520 728l18 -12l-522 -730zM324 0l2 8q116 116 157.5 184.5t41.5 132.5q0 53 -29 53q-25 0 -85 -85q-2 -3 -3.5 -5t-3.5 -5t-4 -5l-5 1l26 97q43 16 81 16q50 0 76.5 -23t26.5 -63q0 -57 -50 -111.5t-157 -126.5h88q27 0 45.5 12t41.5 38l3 -1l-43 -117h-209z
M211 462q-10 -62 0 -107v-1h-120v1q27 41 41 107l39 195h-37l2 6q59 26 125 82h6z" />
    <glyph glyph-name="threequarters" unicode="&#xbe;" horiz-adv-x="653" 
d="M146 347q-53 0 -73 13l-8 102l5 1q23 -55 40 -78.5t41 -23.5q31 0 50 39.5t19 90.5q0 77 -45 77q-24 0 -52 -23l-5 6l135 118h-137l36 67h192l-1 -6l-166 -147q11 4 27 4q42 0 70 -26t28 -74q0 -59 -43.5 -99.5t-112.5 -40.5zM91 15l520 728l18 -12l-522 -730zM394 1
q26 42 36 99h-126l1 6l191 279h97l-267 -268h108l21 100h84l-19 -100h36l-6 -17h-34q-10 -57 0 -99v-1h-122v1z" />
    <glyph glyph-name="questiondown" unicode="&#xbf;" horiz-adv-x="424" 
d="M317 264q-17 -62 -46.5 -112t-58 -81.5t-55 -61.5t-42.5 -66.5t-16 -82.5t17 -74t48 -28q35 0 71 34.5t88 105.5l6 -2l-46 -131q-73 -25 -135 -25q-72 0 -115 34t-43 103q0 42 17.5 76t45 57t63 50t69 51.5t65.5 64.5t51 88h16zM320 492q27 0 46.5 -19.5t19.5 -46.5
q0 -29 -19 -48.5t-47 -19.5t-47 19.5t-19 48.5q0 27 19.5 46.5t46.5 19.5z" />
    <glyph glyph-name="Agrave" unicode="&#xc0;" horiz-adv-x="519" 
d="M273 568l-128 -272h160zM80 0h-125v2q34 34 56.5 69.5t50.5 96.5l270 571h29l71 -583q14 -102 46 -154v-2h-177v2q33 46 20 159l-13 115h-172l-31 -66q-24 -50 -33 -93.5t-6 -70.5t14 -44v-2zM420 782l-204 98l55 79l156 -167z" />
    <glyph glyph-name="Aacute" unicode="&#xc1;" horiz-adv-x="519" 
d="M273 568l-128 -272h160zM80 0h-125v2q34 34 56.5 69.5t50.5 96.5l270 571h29l71 -583q14 -102 46 -154v-2h-177v2q33 46 20 159l-13 115h-172l-31 -66q-24 -50 -33 -93.5t-6 -70.5t14 -44v-2zM457 959l43 -78l-240 -99l-6 10z" />
    <glyph glyph-name="Acircumflex" unicode="&#xc2;" horiz-adv-x="519" 
d="M273 568l-128 -272h160zM80 0h-125v2q34 34 56.5 69.5t50.5 96.5l270 571h29l71 -583q14 -102 46 -154v-2h-177v2q33 46 20 159l-13 115h-172l-31 -66q-24 -50 -33 -93.5t-6 -70.5t14 -44v-2zM363 855l-153 -73l-6 10l167 153h6l108 -153l-9 -10z" />
    <glyph glyph-name="Atilde" unicode="&#xc3;" horiz-adv-x="519" 
d="M273 568l-128 -272h160zM80 0h-125v2q34 34 56.5 69.5t50.5 96.5l270 571h29l71 -583q14 -102 46 -154v-2h-177v2q33 46 20 159l-13 115h-172l-31 -66q-24 -50 -33 -93.5t-6 -70.5t14 -44v-2zM299 905q28 0 71 -20.5t71 -20.5q47 0 74 55l9 -2q-5 -25 -11 -42.5
t-17.5 -39t-31.5 -32.5t-47 -11q-28 0 -71 20t-71 20q-25 0 -42.5 -12t-31.5 -43l-8 2q19 126 106 126z" />
    <glyph glyph-name="Adieresis" unicode="&#xc4;" horiz-adv-x="519" 
d="M273 568l-128 -272h160zM80 0h-125v2q34 34 56.5 69.5t50.5 96.5l270 571h29l71 -583q14 -102 46 -154v-2h-177v2q33 46 20 159l-13 115h-172l-31 -66q-24 -50 -33 -93.5t-6 -70.5t14 -44v-2zM501 868q0 -24 -17 -41.5t-42 -17.5q-24 0 -41.5 17.5t-17.5 41.5
q0 25 17.5 42.5t41.5 17.5q25 0 42 -17.5t17 -42.5zM321 868q0 -24 -17.5 -41.5t-41.5 -17.5q-25 0 -42 17.5t-17 41.5q0 25 17 42.5t42 17.5q24 0 41.5 -17.5t17.5 -42.5z" />
    <glyph glyph-name="Aring" unicode="&#xc5;" horiz-adv-x="519" 
d="M273 568l-128 -272h160zM80 0h-125v2q34 34 56.5 69.5t50.5 96.5l270 571h29l71 -583q14 -102 46 -154v-2h-177v2q33 46 20 159l-13 115h-172l-31 -66q-24 -50 -33 -93.5t-6 -70.5t14 -44v-2zM264 867q0 38 25.5 62t64.5 24t64.5 -24t25.5 -62t-25.5 -61.5t-64.5 -23.5
t-64.5 23.5t-25.5 61.5zM303 867q0 -31 13.5 -48.5t37.5 -17.5t37.5 17.5t13.5 48.5t-13.5 49.5t-37.5 18.5t-37.5 -18.5t-13.5 -49.5z" />
    <glyph glyph-name="AE" unicode="&#xc6;" horiz-adv-x="814" 
d="M433 571q8 49 9 64l-226 -339h167zM83 0h-122v2q72 62 142 166l338 504q-4 34 -30 58v2h385l12 -172l-10 -2q-75 149 -119 153l-111 5l-61 -337h54q10 0 22 5.5t21 12t22 19.5t20 20.5t20 23t16 19.5h10l-39 -217h-10q-2 4 -11.5 22.5t-15 27.5t-15 22t-20.5 19t-23 6
h-54l-62 -343l131 5q31 1 71 32t66 60.5t66 80.5l10 -3l-70 -191h-416v2q47 93 58 160l21 114h-176l-45 -67q-53 -85 -69.5 -129.5t-5.5 -77.5v-2z" />
    <glyph glyph-name="Ccedilla" unicode="&#xc7;" horiz-adv-x="617" 
d="M164 -246q111 32 111 89q0 8 -2 14.5t-7 11t-8.5 7.5t-11.5 5t-11 2.5t-11 2.5l-9 1l-1 2l72 97q-53 5 -92 22q-74 35 -112 109.5t-38 173.5q0 123 53 227.5t146 166.5t204 62q79 0 159 -31l10 -179l-10 -2q-53 108 -91.5 150t-93.5 42q-79 0 -141 -71.5t-93 -177.5
t-31 -219q0 -122 40.5 -188t115.5 -66q14 0 28.5 3.5t26.5 8t26.5 15t24 17.5t24.5 23l22.5 24t23.5 29t22 29t23.5 31.5t22.5 30.5l10 -3l-46 -166q-22 -19 -86 -40.5t-124 -21.5l-35 -45q66 -19 66 -72q0 -92 -174 -123z" />
    <glyph glyph-name="Egrave" unicode="&#xc8;" horiz-adv-x="518" 
d="M420 0h-416v2q45 81 58 160l75 408q9 55 8 83t-10 77v2h365l12 -172l-10 -2q-74 149 -118 153l-111 5l-61 -337h53q10 0 22 5.5t21 12t22 19.5t20 20.5t20 23t16 19.5h10l-38 -217h-10q-2 4 -8.5 16.5t-10 19t-10 17.5t-12 17.5t-13 13.5t-15.5 10t-17 3h-53l-62 -343
l130 5q31 1 71 31.5t67 61t66 80.5l9 -3zM410 782l-204 98l55 79l156 -167z" />
    <glyph glyph-name="Eacute" unicode="&#xc9;" horiz-adv-x="518" 
d="M420 0h-416v2q45 81 58 160l75 408q9 55 8 83t-10 77v2h365l12 -172l-10 -2q-74 149 -118 153l-111 5l-61 -337h53q10 0 22 5.5t21 12t22 19.5t20 20.5t20 23t16 19.5h10l-38 -217h-10q-2 4 -8.5 16.5t-10 19t-10 17.5t-12 17.5t-13 13.5t-15.5 10t-17 3h-53l-62 -343
l130 5q31 1 71 31.5t67 61t66 80.5l9 -3zM437 959l43 -78l-240 -99l-6 10z" />
    <glyph glyph-name="Ecircumflex" unicode="&#xca;" horiz-adv-x="518" 
d="M420 0h-416v2q45 81 58 160l75 408q9 55 8 83t-10 77v2h365l12 -172l-10 -2q-74 149 -118 153l-111 5l-61 -337h53q10 0 22 5.5t21 12t22 19.5t20 20.5t20 23t16 19.5h10l-38 -217h-10q-2 4 -8.5 16.5t-10 19t-10 17.5t-12 17.5t-13 13.5t-15.5 10t-17 3h-53l-62 -343
l130 5q31 1 71 31.5t67 61t66 80.5l9 -3zM356 855l-153 -73l-6 10l167 153h6l108 -153l-9 -10z" />
    <glyph glyph-name="Edieresis" unicode="&#xcb;" horiz-adv-x="518" 
d="M420 0h-416v2q45 81 58 160l75 408q9 55 8 83t-10 77v2h365l12 -172l-10 -2q-74 149 -118 153l-111 5l-61 -337h53q10 0 22 5.5t21 12t22 19.5t20 20.5t20 23t16 19.5h10l-38 -217h-10q-2 4 -8.5 16.5t-10 19t-10 17.5t-12 17.5t-13 13.5t-15.5 10t-17 3h-53l-62 -343
l130 5q31 1 71 31.5t67 61t66 80.5l9 -3zM490 868q0 -24 -17 -41.5t-42 -17.5q-24 0 -41.5 17.5t-17.5 41.5q0 25 17.5 42.5t41.5 17.5q25 0 42 -17.5t17 -42.5zM310 868q0 -24 -17.5 -41.5t-41.5 -17.5q-25 0 -42 17.5t-17 41.5q0 25 17 42.5t42 17.5q24 0 41.5 -17.5
t17.5 -42.5z" />
    <glyph glyph-name="Igrave" unicode="&#xcc;" horiz-adv-x="264" 
d="M3 0v2q27 46 40 80.5t22 91.5l69 384q12 61 11.5 94.5t-12.5 77.5v2h173v-2q-28 -42 -39.5 -74t-24.5 -98l-70 -384q-11 -65 -10 -94t12 -78v-2h-171zM305 782l-204 98l55 79l156 -167z" />
    <glyph glyph-name="Iacute" unicode="&#xcd;" horiz-adv-x="264" 
d="M3 0v2q27 46 40 80.5t22 91.5l69 384q12 61 11.5 94.5t-12.5 77.5v2h173v-2q-28 -42 -39.5 -74t-24.5 -98l-70 -384q-11 -65 -10 -94t12 -78v-2h-171zM342 959l43 -78l-240 -99l-6 10z" />
    <glyph glyph-name="Icircumflex" unicode="&#xce;" horiz-adv-x="264" 
d="M3 0v2q27 46 40 80.5t22 91.5l69 384q12 61 11.5 94.5t-12.5 77.5v2h173v-2q-28 -42 -39.5 -74t-24.5 -98l-70 -384q-11 -65 -10 -94t12 -78v-2h-171zM242 855l-153 -73l-6 10l167 153h6l108 -153l-9 -10z" />
    <glyph glyph-name="Idieresis" unicode="&#xcf;" horiz-adv-x="264" 
d="M377 868q0 -24 -17.5 -41.5t-41.5 -17.5t-41.5 17.5t-17.5 41.5q0 25 17.5 42.5t41.5 17.5t41.5 -17.5t17.5 -42.5zM217 868q0 -24 -17.5 -41.5t-42.5 -17.5q-24 0 -41.5 17.5t-17.5 41.5q0 25 17.5 42.5t41.5 17.5q25 0 42.5 -17.5t17.5 -42.5zM3 0v2q27 46 40 80.5
t22 91.5l69 384q12 61 11.5 94.5t-12.5 77.5v2h173v-2q-28 -42 -39.5 -74t-24.5 -98l-70 -384q-11 -65 -10 -94t12 -78v-2h-171z" />
    <glyph glyph-name="Eth" unicode="&#xd0;" horiz-adv-x="635" 
d="M31 377h81l38 206q8 52 7 81t-14 66v2q52 0 108 2t105 2q279 0 279 -291q0 -192 -111.5 -318.5t-289.5 -126.5h-220v2q27 39 38 67.5t18 78.5l38 209h-81zM281 717l-61 -340h161l-4 -20h-161l-60 -340l75 2q97 2 164.5 68t96.5 160.5t29 207.5q0 262 -181 262h-59z" />
    <glyph glyph-name="Ntilde" unicode="&#xd1;" horiz-adv-x="586" 
d="M168 623l-75 -431q-12 -65 -7 -102.5t31 -87.5v-2h-124v2q26 32 40.5 62.5t19.5 51.5t15 76l69 378l-1 -2q11 60 7 94t-34 68v2h131l241 -559l65 367q12 66 8.5 102t-25.5 88v2h123v-2q-38 -53 -53.5 -88.5t-27.5 -101.5l-98 -540l-31 -3zM346 905q28 0 71 -20.5
t71 -20.5q47 0 74 55l9 -2q-5 -25 -11 -42.5t-17.5 -39t-31.5 -32.5t-47 -11q-28 0 -71 20t-71 20q-25 0 -42.5 -12t-31.5 -43l-8 2q19 126 106 126z" />
    <glyph glyph-name="Ograve" unicode="&#xd2;" horiz-adv-x="675" 
d="M675 448q0 -118 -52.5 -225t-141 -172.5t-187.5 -65.5q-113 0 -181.5 83t-68.5 216q0 118 52.5 225t140.5 172.5t187 65.5q113 0 182 -83t69 -216zM157 236q0 -108 35.5 -169.5t106.5 -61.5q78 0 140 77.5t92.5 188.5t30.5 225q0 108 -36 169.5t-107 61.5
q-77 0 -139 -77.5t-92.5 -188.5t-30.5 -225zM510 782l-204 98l55 79l156 -167z" />
    <glyph glyph-name="Oacute" unicode="&#xd3;" horiz-adv-x="675" 
d="M675 448q0 -118 -52.5 -225t-141 -172.5t-187.5 -65.5q-113 0 -181.5 83t-68.5 216q0 118 52.5 225t140.5 172.5t187 65.5q113 0 182 -83t69 -216zM157 236q0 -108 35.5 -169.5t106.5 -61.5q78 0 140 77.5t92.5 188.5t30.5 225q0 108 -36 169.5t-107 61.5
q-77 0 -139 -77.5t-92.5 -188.5t-30.5 -225zM547 959l43 -78l-240 -99l-6 10z" />
    <glyph glyph-name="Ocircumflex" unicode="&#xd4;" horiz-adv-x="675" 
d="M675 448q0 -118 -52.5 -225t-141 -172.5t-187.5 -65.5q-113 0 -181.5 83t-68.5 216q0 118 52.5 225t140.5 172.5t187 65.5q113 0 182 -83t69 -216zM157 236q0 -108 35.5 -169.5t106.5 -61.5q78 0 140 77.5t92.5 188.5t30.5 225q0 108 -36 169.5t-107 61.5
q-77 0 -139 -77.5t-92.5 -188.5t-30.5 -225zM447 855l-153 -73l-6 10l167 153h6l108 -153l-9 -10z" />
    <glyph glyph-name="Otilde" unicode="&#xd5;" horiz-adv-x="675" 
d="M675 448q0 -118 -52.5 -225t-141 -172.5t-187.5 -65.5q-113 0 -181.5 83t-68.5 216q0 118 52.5 225t140.5 172.5t187 65.5q113 0 182 -83t69 -216zM157 236q0 -108 35.5 -169.5t106.5 -61.5q78 0 140 77.5t92.5 188.5t30.5 225q0 108 -36 169.5t-107 61.5
q-77 0 -139 -77.5t-92.5 -188.5t-30.5 -225zM378 905q28 0 71 -20.5t71 -20.5q47 0 74 55l9 -2q-5 -25 -11 -42.5t-17.5 -39t-31.5 -32.5t-47 -11q-28 0 -71 20t-71 20q-25 0 -42.5 -12t-31.5 -43l-8 2q19 126 106 126z" />
    <glyph glyph-name="Odieresis" unicode="&#xd6;" horiz-adv-x="675" 
d="M675 448q0 -118 -52.5 -225t-141 -172.5t-187.5 -65.5q-113 0 -181.5 83t-68.5 216q0 118 52.5 225t140.5 172.5t187 65.5q113 0 182 -83t69 -216zM157 236q0 -108 35.5 -169.5t106.5 -61.5q78 0 140 77.5t92.5 188.5t30.5 225q0 108 -36 169.5t-107 61.5
q-77 0 -139 -77.5t-92.5 -188.5t-30.5 -225zM590 868q0 -24 -17 -41.5t-42 -17.5q-24 0 -41.5 17.5t-17.5 41.5q0 25 17.5 42.5t41.5 17.5q25 0 42 -17.5t17 -42.5zM410 868q0 -24 -17.5 -41.5t-41.5 -17.5q-25 0 -42 17.5t-17 41.5q0 25 17 42.5t42 17.5q24 0 41.5 -17.5
t17.5 -42.5z" />
    <glyph glyph-name="multiply" unicode="&#xd7;" horiz-adv-x="472" 
d="M256 291l-170 -170l-16 17l169 169l-169 169l16 17l170 -169l169 169l16 -17l-169 -169l169 -169l-16 -17z" />
    <glyph glyph-name="Oslash" unicode="&#xd8;" horiz-adv-x="675" 
d="M156 236q0 -74 14 -116l368 520q-36 87 -120 87q-77 0 -139 -77.5t-92.5 -188.5t-30.5 -225zM298 5q78 0 140 77.5t92.5 188.5t30.5 225q0 64 -14 118l-369 -521q36 -88 120 -88zM293 -15q-90 0 -153 54l-48 -68h-28l59 84q-80 83 -80 229q0 118 52.5 225t140.5 172.5
t187 65.5q91 0 152 -54l49 69h28l-60 -84q82 -84 82 -230q0 -118 -52.5 -225t-141 -172.5t-187.5 -65.5z" />
    <glyph glyph-name="Ugrave" unicode="&#xd9;" horiz-adv-x="571" 
d="M256 -15q-103 0 -158 65.5t-32 192.5l58 315q10 60 9.5 93.5t-12.5 78.5v2h174v-2q-43 -67 -63 -172l-57 -312q-43 -236 102 -236q80 0 127.5 64.5t65.5 166.5l55 299q12 66 7 102t-31 88v2h141v-2q-45 -51 -62.5 -87.5t-29.5 -102.5l-56 -299q-10 -55 -26 -98t-43 -80.5
t-70 -57.5t-99 -20zM470 782l-204 98l55 79l156 -167z" />
    <glyph glyph-name="Uacute" unicode="&#xda;" horiz-adv-x="571" 
d="M256 -15q-103 0 -158 65.5t-32 192.5l58 315q10 60 9.5 93.5t-12.5 78.5v2h174v-2q-43 -67 -63 -172l-57 -312q-43 -236 102 -236q80 0 127.5 64.5t65.5 166.5l55 299q12 66 7 102t-31 88v2h141v-2q-45 -51 -62.5 -87.5t-29.5 -102.5l-56 -299q-10 -55 -26 -98t-43 -80.5
t-70 -57.5t-99 -20zM507 959l43 -78l-240 -99l-6 10z" />
    <glyph glyph-name="Ucircumflex" unicode="&#xdb;" horiz-adv-x="571" 
d="M256 -15q-103 0 -158 65.5t-32 192.5l58 315q10 60 9.5 93.5t-12.5 78.5v2h174v-2q-43 -67 -63 -172l-57 -312q-43 -236 102 -236q80 0 127.5 64.5t65.5 166.5l55 299q12 66 7 102t-31 88v2h141v-2q-45 -51 -62.5 -87.5t-29.5 -102.5l-56 -299q-10 -55 -26 -98t-43 -80.5
t-70 -57.5t-99 -20zM406 855l-153 -73l-6 10l167 153h6l108 -153l-9 -10z" />
    <glyph glyph-name="Udieresis" unicode="&#xdc;" horiz-adv-x="571" 
d="M256 -15q-103 0 -158 65.5t-32 192.5l58 315q10 60 9.5 93.5t-12.5 78.5v2h174v-2q-43 -67 -63 -172l-57 -312q-43 -236 102 -236q80 0 127.5 64.5t65.5 166.5l55 299q12 66 7 102t-31 88v2h141v-2q-45 -51 -62.5 -87.5t-29.5 -102.5l-56 -299q-10 -55 -26 -98t-43 -80.5
t-70 -57.5t-99 -20zM549 868q0 -24 -17 -41.5t-42 -17.5q-24 0 -41.5 17.5t-17.5 41.5q0 25 17.5 42.5t41.5 17.5q25 0 42 -17.5t17 -42.5zM369 868q0 -24 -17.5 -41.5t-41.5 -17.5q-25 0 -42 17.5t-17 41.5q0 25 17 42.5t42 17.5q24 0 41.5 -17.5t17.5 -42.5z" />
    <glyph glyph-name="Yacute" unicode="&#xdd;" horiz-adv-x="484" 
d="M114 2q26 38 37.5 67.5t21.5 80.5l33 187l-65 256q-28 97 -66 137v2h194v-2q-18 -16 -22.5 -52.5t5.5 -76.5l58 -231l101 169q72 113 45 191v2h126v-2q-37 -33 -62.5 -67t-70.5 -103l-137 -227l-31 -183q-10 -51 -8 -80.5t16 -67.5l-1 -2h-174v2zM488 959l43 -78
l-240 -99l-6 10z" />
    <glyph glyph-name="Thorn" unicode="&#xde;" horiz-adv-x="504" 
d="M3 2q27 46 40 80.5t22 91.5l69 384q12 61 11.5 94.5t-12.5 77.5v2h173v-2q-44 -69 -57 -139h63q202 0 202 -167q0 -111 -78.5 -186.5t-208.5 -75.5h-57q-9 -58 -8 -86t12 -74v-2h-171v2zM173 182h54q62 0 104.5 41t58.5 95.5t16 114.5q0 77 -28.5 107.5t-82.5 30.5
q-15 0 -51 -3l-2 -10z" />
    <glyph glyph-name="germandbls" unicode="&#xdf;" horiz-adv-x="499" 
d="M-17 -165l133 622h-65l4 20h65l8 36q26 127 92 196.5t159 69.5q68 0 107.5 -34t39.5 -98q0 -45 -21.5 -82.5t-52 -61.5t-61.5 -45t-52.5 -43.5t-21.5 -46.5q0 -21 16 -41t38.5 -37.5t45.5 -38t39 -51.5t16 -69q0 -66 -42.5 -106t-110.5 -40q-33 0 -72 9.5t-52 18.5
l-5 142l6 2q38 -83 68.5 -118.5t68.5 -35.5q31 0 49.5 19.5t18.5 53.5q0 29 -16 55t-39 46l-46 40t-39 47.5t-16 59.5q0 36 21 64.5t50.5 50.5t59 47.5t50.5 69.5t21 102q0 101 -73 101q-54 0 -88.5 -50t-55.5 -153l-154 -721h-93z" />
    <glyph glyph-name="agrave" unicode="&#xe0;" horiz-adv-x="464" 
d="M302 193q-90 -208 -190 -208q-45 0 -71 38.5t-26 106.5q0 84 38 166t112 139t163 57q56 0 92 -16l39 16h7l-91 -352q-18 -57 -12.5 -85t43.5 -43v-2l-156 -19zM161 58q21 0 43.5 20t43.5 57t37.5 71.5t35.5 81.5l41 153q-12 28 -51 28q-54 0 -100.5 -55t-70.5 -128.5
t-24 -139.5q0 -88 45 -88zM348 542l-155 158l71 49l95 -200z" />
    <glyph glyph-name="aacute" unicode="&#xe1;" horiz-adv-x="464" 
d="M302 193q-90 -208 -190 -208q-45 0 -71 38.5t-26 106.5q0 84 38 166t112 139t163 57q56 0 92 -16l39 16h7l-91 -352q-18 -57 -12.5 -85t43.5 -43v-2l-156 -19zM161 58q21 0 43.5 20t43.5 57t37.5 71.5t35.5 81.5l41 153q-12 28 -51 28q-54 0 -100.5 -55t-70.5 -128.5
t-24 -139.5q0 -88 45 -88zM389 749l55 -64l-202 -134l-7 8z" />
    <glyph glyph-name="acircumflex" unicode="&#xe2;" horiz-adv-x="464" 
d="M302 193q-90 -208 -190 -208q-45 0 -71 38.5t-26 106.5q0 84 38 166t112 139t163 57q56 0 92 -16l39 16h7l-91 -352q-18 -57 -12.5 -85t43.5 -43v-2l-156 -19zM161 58q21 0 43.5 20t43.5 57t37.5 71.5t35.5 81.5l41 153q-12 28 -51 28q-54 0 -100.5 -55t-70.5 -128.5
t-24 -139.5q0 -88 45 -88zM322 626l-139 -86l-6 10l156 169h5l91 -169l-10 -10z" />
    <glyph glyph-name="atilde" unicode="&#xe3;" horiz-adv-x="464" 
d="M302 193q-90 -208 -190 -208q-45 0 -71 38.5t-26 106.5q0 84 38 166t112 139t163 57q56 0 92 -16l39 16h7l-91 -352q-18 -57 -12.5 -85t43.5 -43v-2l-156 -19zM161 58q21 0 43.5 20t43.5 57t37.5 71.5t35.5 81.5l41 153q-12 28 -51 28q-54 0 -100.5 -55t-70.5 -128.5
t-24 -139.5q0 -88 45 -88zM275 677q23 0 63 -15.5t63 -15.5q47 0 60 46l9 -1q-5 -39 -28 -75.5t-63 -36.5q-22 0 -63.5 16t-66.5 16q-50 0 -63 -46l-9 1q3 37 28.5 74t69.5 37z" />
    <glyph glyph-name="adieresis" unicode="&#xe4;" horiz-adv-x="464" 
d="M302 193q-90 -208 -190 -208q-45 0 -71 38.5t-26 106.5q0 84 38 166t112 139t163 57q56 0 92 -16l39 16h7l-91 -352q-18 -57 -12.5 -85t43.5 -43v-2l-156 -19zM161 58q21 0 43.5 20t43.5 57t37.5 71.5t35.5 81.5l41 153q-12 28 -51 28q-54 0 -100.5 -55t-70.5 -128.5
t-24 -139.5q0 -88 45 -88zM287 658q0 -24 -17.5 -41.5t-41.5 -17.5q-25 0 -42 17.5t-17 41.5q0 25 17 42.5t42 17.5q24 0 41.5 -17.5t17.5 -42.5zM467 658q0 -24 -17.5 -41.5t-42.5 -17.5q-24 0 -41.5 17.5t-17.5 41.5q0 25 17.5 42.5t41.5 17.5q25 0 42.5 -17.5t17.5 -42.5
z" />
    <glyph glyph-name="aring" unicode="&#xe5;" horiz-adv-x="464" 
d="M302 193q-90 -208 -190 -208q-45 0 -71 38.5t-26 106.5q0 84 38 166t112 139t163 57q56 0 92 -16l39 16h7l-91 -352q-18 -57 -12.5 -85t43.5 -43v-2l-156 -19zM161 58q21 0 43.5 20t43.5 57t37.5 71.5t35.5 81.5l41 153q-12 28 -51 28q-54 0 -100.5 -55t-70.5 -128.5
t-24 -139.5q0 -88 45 -88zM228 652q0 38 25.5 62t64.5 24t64.5 -24t25.5 -62t-25.5 -61.5t-64.5 -23.5t-64.5 23.5t-25.5 61.5zM267 652q0 -66 51 -66t51 66q0 31 -13.5 49.5t-37.5 18.5t-37.5 -18.5t-13.5 -49.5z" />
    <glyph glyph-name="ae" unicode="&#xe6;" horiz-adv-x="673" 
d="M298 177q-89 -192 -187 -192q-43 0 -69.5 39t-26.5 106q0 83 38.5 166t109.5 139.5t153 56.5q78 0 117 -52q70 52 141 52q40 0 72.5 -16t32.5 -55q0 -50 -63 -82.5t-200 -34.5q-14 -53 -14 -106q0 -136 95 -136q73 0 118 78l4 -5q-26 -71 -72.5 -109t-106.5 -38
q-65 0 -103.5 45t-38.5 127v17zM161 58q67 0 161 229q18 45 45 84q-1 55 -14 76.5t-41 21.5q-52 0 -99 -54.5t-72 -129t-25 -139.5q0 -88 45 -88zM564 474q-42 0 -82.5 -45t-62.5 -115q103 18 142.5 53t39.5 70q0 37 -37 37z" />
    <glyph glyph-name="ccedilla" unicode="&#xe7;" 
d="M11 -246q111 32 111 89q0 8 -2 14.5t-7 11t-8.5 7.5t-11.5 5t-11 2.5t-12 2.5l-8 1l-1 2l73 99q-49 7 -80 46q-39 50 -39 134q0 127 80 225.5t195 98.5q69 0 94 -16v-130l-9 -2q-5 9 -17 30.5t-16.5 29.5t-14 23t-15 20.5t-14.5 13.5t-17.5 10.5t-18.5 2.5
q-50 0 -98.5 -76.5t-48.5 -181.5q0 -75 28 -114t79 -39q78 0 122 91l6 -2q-22 -77 -69 -122t-115 -45h-9l-35 -45q66 -19 66 -72q0 -92 -174 -123z" />
    <glyph glyph-name="egrave" unicode="&#xe8;" 
d="M158 -15q-66 0 -104.5 45.5t-38.5 129.5q0 128 84 230t193 102q38 0 71 -16t33 -55q0 -50 -63 -82.5t-200 -34.5q-14 -53 -14 -106q0 -139 95 -139q74 0 118 79l5 -5q-26 -72 -73 -110t-106 -38zM282 474q-42 0 -82.5 -45t-62.5 -115q103 18 142 53t39 70q0 37 -36 37z
M317 542l-155 158l71 49l95 -200z" />
    <glyph glyph-name="eacute" unicode="&#xe9;" 
d="M158 -15q-66 0 -104.5 45.5t-38.5 129.5q0 128 84 230t193 102q38 0 71 -16t33 -55q0 -50 -63 -82.5t-200 -34.5q-14 -53 -14 -106q0 -139 95 -139q74 0 118 79l5 -5q-26 -72 -73 -110t-106 -38zM282 474q-42 0 -82.5 -45t-62.5 -115q103 18 142 53t39 70q0 37 -36 37z
M351 749l55 -64l-202 -134l-7 8z" />
    <glyph glyph-name="ecircumflex" unicode="&#xea;" 
d="M158 -15q-66 0 -104.5 45.5t-38.5 129.5q0 128 84 230t193 102q38 0 71 -16t33 -55q0 -50 -63 -82.5t-200 -34.5q-14 -53 -14 -106q0 -139 95 -139q74 0 118 79l5 -5q-26 -72 -73 -110t-106 -38zM282 474q-42 0 -82.5 -45t-62.5 -115q103 18 142 53t39 70q0 37 -36 37z
M284 626l-139 -86l-6 10l156 169h5l91 -169l-10 -10z" />
    <glyph glyph-name="edieresis" unicode="&#xeb;" 
d="M158 -15q-66 0 -104.5 45.5t-38.5 129.5q0 128 84 230t193 102q38 0 71 -16t33 -55q0 -50 -63 -82.5t-200 -34.5q-14 -53 -14 -106q0 -139 95 -139q74 0 118 79l5 -5q-26 -72 -73 -110t-106 -38zM282 474q-42 0 -82.5 -45t-62.5 -115q103 18 142 53t39 70q0 37 -36 37z
M237 658q0 -24 -17.5 -41.5t-41.5 -17.5q-25 0 -42 17.5t-17 41.5q0 25 17 42.5t42 17.5q24 0 41.5 -17.5t17.5 -42.5zM417 658q0 -24 -17.5 -41.5t-42.5 -17.5q-24 0 -41.5 17.5t-17.5 41.5q0 25 17.5 42.5t41.5 17.5q25 0 42.5 -17.5t17.5 -42.5z" />
    <glyph glyph-name="igrave" unicode="&#xec;" horiz-adv-x="221" 
d="M2 2q27 54 56 185l24 111q23 105 -31 147v2l168 50l-65 -308q-27 -132 -17 -187v-2h-135v2zM216 542l-155 158l71 49l95 -200z" />
    <glyph glyph-name="iacute" unicode="&#xed;" horiz-adv-x="221" 
d="M2 2q27 54 56 185l24 111q23 105 -31 147v2l168 50l-65 -308q-27 -132 -17 -187v-2h-135v2zM265 749l55 -64l-202 -134l-7 8z" />
    <glyph glyph-name="icircumflex" unicode="&#xee;" horiz-adv-x="221" 
d="M2 2q27 54 56 185l24 111q23 105 -31 147v2l168 50l-65 -308q-27 -132 -17 -187v-2h-135v2zM189 626l-139 -86l-6 10l156 169h5l91 -169l-10 -10z" />
    <glyph glyph-name="idieresis" unicode="&#xef;" horiz-adv-x="221" 
d="M165 658q0 -24 -17.5 -41.5t-41.5 -17.5q-25 0 -42 17.5t-17 41.5q0 25 17 42.5t42 17.5q24 0 41.5 -17.5t17.5 -42.5zM319 658q0 -24 -17 -41.5t-42 -17.5q-24 0 -41.5 17.5t-17.5 41.5q0 25 17.5 42.5t41.5 17.5q25 0 42 -17.5t17 -42.5zM2 2q27 54 56 185l24 111
q23 105 -31 147v2l168 50l-65 -308q-27 -132 -17 -187v-2h-135v2z" />
    <glyph glyph-name="eth" unicode="&#xf0;" horiz-adv-x="447" 
d="M168 -15q-69 0 -108.5 48t-39.5 132q0 80 38.5 156.5t99.5 123.5t122 47q25 0 55 -6q-19 97 -55 155l-140 -77l-8 15l139 77q-46 72 -120 112l5 10q96 -40 158 -99l122 68l8 -16l-117 -64q113 -121 113 -293q0 -160 -81 -274.5t-191 -114.5zM115 120q0 -117 61 -117
t111 108t50 246q0 117 -59 117q-43 0 -81 -49t-60 -131t-22 -174z" />
    <glyph glyph-name="ntilde" unicode="&#xf1;" horiz-adv-x="501" 
d="M362 328q9 38 0.5 62.5t-34.5 24.5q-41 0 -81.5 -61t-98.5 -195l-2 -11q-20 -95 -9 -146v-2h-135v2q33 64 56 185l24 111q24 111 -21 147v2l154 50l-57 -267q44 116 101.5 189t121.5 73q47 0 69 -41.5t7 -116.5l-41 -193q-17 -65 -13 -95t43 -38v-2l-159 -15zM261 677
q23 0 63 -15.5t63 -15.5q47 0 60 46l9 -1q-5 -39 -28 -75.5t-63 -36.5q-22 0 -63.5 16t-66.5 16q-50 0 -63 -46l-9 1q3 37 28.5 74t69.5 37z" />
    <glyph glyph-name="ograve" unicode="&#xf2;" horiz-adv-x="442" 
d="M427 311q0 -79 -38.5 -155.5t-99.5 -123.5t-122 -47q-74 0 -113 47.5t-39 132.5q0 80 38.5 156.5t99.5 123.5t122 47q74 0 113 -48t39 -133zM110 120q0 -117 60 -117q63 0 112.5 107t49.5 247q0 117 -59 117q-43 0 -81 -49t-60 -131t-22 -174zM334 542l-155 158l71 49
l95 -200z" />
    <glyph glyph-name="oacute" unicode="&#xf3;" horiz-adv-x="442" 
d="M427 311q0 -79 -38.5 -155.5t-99.5 -123.5t-122 -47q-74 0 -113 47.5t-39 132.5q0 80 38.5 156.5t99.5 123.5t122 47q74 0 113 -48t39 -133zM110 120q0 -117 60 -117q63 0 112.5 107t49.5 247q0 117 -59 117q-43 0 -81 -49t-60 -131t-22 -174zM367 749l55 -64l-202 -134
l-7 8z" />
    <glyph glyph-name="ocircumflex" unicode="&#xf4;" horiz-adv-x="442" 
d="M427 311q0 -79 -38.5 -155.5t-99.5 -123.5t-122 -47q-74 0 -113 47.5t-39 132.5q0 80 38.5 156.5t99.5 123.5t122 47q74 0 113 -48t39 -133zM110 120q0 -117 60 -117q63 0 112.5 107t49.5 247q0 117 -59 117q-43 0 -81 -49t-60 -131t-22 -174zM291 626l-139 -86l-6 10
l156 169h5l91 -169l-10 -10z" />
    <glyph glyph-name="otilde" unicode="&#xf5;" horiz-adv-x="442" 
d="M427 311q0 -79 -38.5 -155.5t-99.5 -123.5t-122 -47q-74 0 -113 47.5t-39 132.5q0 80 38.5 156.5t99.5 123.5t122 47q74 0 113 -48t39 -133zM110 120q0 -117 60 -117q63 0 112.5 107t49.5 247q0 117 -59 117q-43 0 -81 -49t-60 -131t-22 -174zM235 677q23 0 63 -15.5
t63 -15.5q47 0 60 46l9 -1q-5 -39 -28 -75.5t-63 -36.5q-22 0 -63.5 16t-66.5 16q-50 0 -63 -46l-9 1q3 37 28.5 74t69.5 37z" />
    <glyph glyph-name="odieresis" unicode="&#xf6;" horiz-adv-x="442" 
d="M427 311q0 -79 -38.5 -155.5t-99.5 -123.5t-122 -47q-74 0 -113 47.5t-39 132.5q0 80 38.5 156.5t99.5 123.5t122 47q74 0 113 -48t39 -133zM110 120q0 -117 60 -117q63 0 112.5 107t49.5 247q0 117 -59 117q-43 0 -81 -49t-60 -131t-22 -174zM255 658q0 -24 -17.5 -41.5
t-41.5 -17.5q-25 0 -42 17.5t-17 41.5q0 25 17 42.5t42 17.5q24 0 41.5 -17.5t17.5 -42.5zM435 658q0 -24 -17.5 -41.5t-42.5 -17.5q-24 0 -41.5 17.5t-17.5 41.5q0 25 17.5 42.5t41.5 17.5q25 0 42.5 -17.5t17.5 -42.5z" />
    <glyph glyph-name="divide" unicode="&#xf7;" horiz-adv-x="545" 
d="M72 297v22h442v-22h-442zM268 76q-27 0 -46.5 20t-19.5 46q0 29 19.5 48t46.5 19t46.5 -19t19.5 -48q0 -26 -20 -46t-46 -20zM268 400q-27 0 -46.5 20t-19.5 46q0 29 19.5 48t46.5 19t46.5 -19t19.5 -48q0 -26 -20 -46t-46 -20z" />
    <glyph glyph-name="oslash" unicode="&#xf8;" horiz-adv-x="442" 
d="M427 311q0 -79 -38.5 -155.5t-99.5 -123.5t-122 -47t-98 33l-64 -85h-27l76 101q-39 46 -39 131q0 80 38.5 156.5t99.5 123.5t122 47q59 0 98 -33l64 85h27l-76 -101q39 -49 39 -132zM110 108l219 293q-11 73 -56 73q-43 0 -81 -49t-60 -131t-22 -174v-12zM332 368
l-219 -292q11 -73 57 -73q63 0 112.5 107t49.5 247v11z" />
    <glyph glyph-name="ugrave" unicode="&#xf9;" horiz-adv-x="470" 
d="M302 194q-93 -209 -203 -209q-46 0 -68.5 39.5t-3.5 108.5l54 204q18 57 13 90t-42 48v2h156l-86 -338q-10 -38 -1.5 -62.5t34.5 -24.5q38 0 81.5 66.5t96.5 198.5l14 54q12 31 5 60.5t-44 43.5v2h160l-87 -337q-12 -43 -14 -64.5t8 -37.5t37 -26v-2l-161 -19zM341 542
l-155 158l71 49l95 -200z" />
    <glyph glyph-name="uacute" unicode="&#xfa;" horiz-adv-x="470" 
d="M302 194q-93 -209 -203 -209q-46 0 -68.5 39.5t-3.5 108.5l54 204q18 57 13 90t-42 48v2h156l-86 -338q-10 -38 -1.5 -62.5t34.5 -24.5q38 0 81.5 66.5t96.5 198.5l14 54q12 31 5 60.5t-44 43.5v2h160l-87 -337q-12 -43 -14 -64.5t8 -37.5t37 -26v-2l-161 -19zM399 749
l55 -64l-202 -134l-7 8z" />
    <glyph glyph-name="ucircumflex" unicode="&#xfb;" horiz-adv-x="470" 
d="M302 194q-93 -209 -203 -209q-46 0 -68.5 39.5t-3.5 108.5l54 204q18 57 13 90t-42 48v2h156l-86 -338q-10 -38 -1.5 -62.5t34.5 -24.5q38 0 81.5 66.5t96.5 198.5l14 54q12 31 5 60.5t-44 43.5v2h160l-87 -337q-12 -43 -14 -64.5t8 -37.5t37 -26v-2l-161 -19zM304 626
l-139 -86l-6 10l156 169h5l91 -169l-10 -10z" />
    <glyph glyph-name="udieresis" unicode="&#xfc;" horiz-adv-x="470" 
d="M302 194q-93 -209 -203 -209q-46 0 -68.5 39.5t-3.5 108.5l54 204q18 57 13 90t-42 48v2h156l-86 -338q-10 -38 -1.5 -62.5t34.5 -24.5q38 0 81.5 66.5t96.5 198.5l14 54q12 31 5 60.5t-44 43.5v2h160l-87 -337q-12 -43 -14 -64.5t8 -37.5t37 -26v-2l-161 -19zM272 658
q0 -24 -17.5 -41.5t-41.5 -17.5q-25 0 -42 17.5t-17 41.5q0 25 17 42.5t42 17.5q24 0 41.5 -17.5t17.5 -42.5zM452 658q0 -24 -17.5 -41.5t-42.5 -17.5q-24 0 -41.5 17.5t-17.5 41.5q0 25 17.5 42.5t41.5 17.5q25 0 42.5 -17.5t17.5 -42.5z" />
    <glyph glyph-name="yacute" unicode="&#xfd;" horiz-adv-x="368" 
d="M-84 -125q128 -12 189 101l9 16l-35 352q-6 59 -15 84.5t-34 46.5v2h133l31 -339l75 137q33 60 45.5 96.5t5.5 62t-36 41.5v2h128v-2l-309 -543q-47 -84 -98 -117t-113 -40zM340 749l55 -64l-202 -134l-7 8z" />
    <glyph glyph-name="thorn" unicode="&#xfe;" horiz-adv-x="482" 
d="M209 3q47 0 86 54.5t58.5 130t19.5 149.5q0 55 -13.5 77.5t-41.5 22.5q-73 0 -161 -216l-22 -105q-3 -56 19 -84.5t55 -28.5zM87 -225h-135v2q26 48 56 186l128 616q12 44 9 84.5t-30 62.5v2l156 50l-96 -468q76 182 187 182q105 0 105 -161q0 -86 -34 -165.5t-95 -130
t-133 -50.5q-54 0 -92 24l-17 -84q-20 -96 -9 -148v-2z" />
    <glyph glyph-name="ydieresis" unicode="&#xff;" horiz-adv-x="368" 
d="M-84 -125q128 -12 189 101l9 16l-35 352q-6 59 -15 84.5t-34 46.5v2h133l31 -339l75 137q33 60 45.5 96.5t5.5 62t-36 41.5v2h128v-2l-309 -543q-47 -84 -98 -117t-113 -40zM225 658q0 -24 -17.5 -41.5t-41.5 -17.5q-25 0 -42 17.5t-17 41.5q0 25 17 42.5t42 17.5
q24 0 41.5 -17.5t17.5 -42.5zM405 658q0 -24 -17.5 -41.5t-42.5 -17.5q-24 0 -41.5 17.5t-17.5 41.5q0 25 17.5 42.5t41.5 17.5q25 0 42.5 -17.5t17.5 -42.5z" />
    <glyph glyph-name="Amacron" unicode="&#x100;" horiz-adv-x="519" 
d="M273 568l-128 -272h160zM80 0h-125v2q34 34 56.5 69.5t50.5 96.5l270 571h29l71 -583q14 -102 46 -154v-2h-177v2q33 46 20 159l-13 115h-172l-31 -66q-24 -50 -33 -93.5t-6 -70.5t14 -44v-2zM218 883h271l-10 -50h-271z" />
    <glyph glyph-name="amacron" unicode="&#x101;" horiz-adv-x="464" 
d="M302 193q-90 -208 -190 -208q-45 0 -71 38.5t-26 106.5q0 84 38 166t112 139t163 57q56 0 92 -16l39 16h7l-91 -352q-18 -57 -12.5 -85t43.5 -43v-2l-156 -19zM161 58q21 0 43.5 20t43.5 57t37.5 71.5t35.5 81.5l41 153q-12 28 -51 28q-54 0 -100.5 -55t-70.5 -128.5
t-24 -139.5q0 -88 45 -88zM196 645h244l-10 -49h-243z" />
    <glyph glyph-name="Abreve" unicode="&#x102;" horiz-adv-x="519" 
d="M273 568l-128 -272h160zM80 0h-125v2q34 34 56.5 69.5t50.5 96.5l270 571h29l71 -583q14 -102 46 -154v-2h-177v2q33 46 20 159l-13 115h-172l-31 -66q-24 -50 -33 -93.5t-6 -70.5t14 -44v-2zM361 865q88 0 118 77h9q-3 -23 -11.5 -45t-24 -45t-42 -37t-61.5 -14
q-34 0 -58 14t-35.5 37t-15.5 45.5t-3 44.5h9q18 -77 115 -77z" />
    <glyph glyph-name="abreve" unicode="&#x103;" horiz-adv-x="464" 
d="M302 193q-90 -208 -190 -208q-45 0 -71 38.5t-26 106.5q0 84 38 166t112 139t163 57q56 0 92 -16l39 16h7l-91 -352q-18 -57 -12.5 -85t43.5 -43v-2l-156 -19zM161 58q21 0 43.5 20t43.5 57t37.5 71.5t35.5 81.5l41 153q-12 28 -51 28q-54 0 -100.5 -55t-70.5 -128.5
t-24 -139.5q0 -88 45 -88zM319 631q70 0 100 72h9q-5 -50 -32.5 -91t-82.5 -41t-78.5 42t-18.5 90h9q18 -72 94 -72z" />
    <glyph glyph-name="Aogonek" unicode="&#x104;" horiz-adv-x="519" 
d="M228 -248q-35 0 -54.5 19t-19.5 54q0 86 111 157q36 24 47.5 53t11.5 73q0 28 -3 53l-13 115h-172l-31 -66q-24 -50 -33 -93.5t-6 -70.5t14 -44v-2h-125v2q34 34 56.5 69.5t50.5 96.5l270 571h29l71 -583q14 -102 46 -154v-2h-153q-50 -27 -71 -65t-21 -71q0 -50 46 -50
q37 0 72 46l8 -7q-53 -101 -131 -101zM275 572l-130 -276h161z" />
    <glyph glyph-name="aogonek" unicode="&#x105;" horiz-adv-x="464" 
d="M190 -248q-34 0 -54 19t-20 54q0 48 37 93.5t98 76.5l51 198q-90 -208 -190 -208q-45 0 -71 38.5t-26 106.5q0 84 38 166t112 139t163 57q56 0 92 -16l39 16h7l-91 -352q-18 -57 -12.5 -85t43.5 -43v-2q-62 -6 -82 -10q-49 -10 -80 -36.5t-39.5 -51t-8.5 -48.5
q0 -50 45 -50q37 0 72 46l8 -7q-53 -101 -131 -101zM161 58q21 0 43.5 20t43.5 57t37.5 71.5t35.5 81.5l41 153q-12 28 -51 28q-54 0 -100.5 -55t-70.5 -128.5t-24 -139.5q0 -88 45 -88z" />
    <glyph glyph-name="Cacute" unicode="&#x106;" horiz-adv-x="617" 
d="M520 47q-22 -19 -86 -40.5t-124 -21.5q-128 0 -197 85.5t-69 220.5q0 123 53 227.5t146 166.5t204 62q79 0 159 -31l10 -179l-10 -2q-53 108 -91.5 150t-93.5 42q-79 0 -141 -71.5t-93 -177.5t-31 -219q0 -122 40.5 -188t115.5 -66q14 0 28.5 3.5t26.5 8t26.5 15t24 17.5
t24.5 23l22.5 24t23.5 29t22 29t23.5 31.5t22.5 30.5l10 -3zM545 959l43 -78l-240 -99l-6 10z" />
    <glyph glyph-name="cacute" unicode="&#x107;" 
d="M350 152q-22 -77 -69 -122t-115 -45q-72 0 -111.5 49t-39.5 134q0 127 80 225.5t195 98.5q69 0 94 -16v-130l-9 -2q-5 9 -17 30.5t-16.5 29.5t-14 23t-15 20.5t-14.5 13.5t-17.5 10.5t-18.5 2.5q-50 0 -98.5 -76.5t-48.5 -181.5q0 -75 28 -114t79 -39q78 0 122 91z
M368 749l55 -64l-202 -134l-7 8z" />
    <glyph glyph-name="Ccircumflex" unicode="&#x108;" horiz-adv-x="617" 
d="M520 47q-22 -19 -86 -40.5t-124 -21.5q-128 0 -197 85.5t-69 220.5q0 123 53 227.5t146 166.5t204 62q79 0 159 -31l10 -179l-10 -2q-53 108 -91.5 150t-93.5 42q-79 0 -141 -71.5t-93 -177.5t-31 -219q0 -122 40.5 -188t115.5 -66q14 0 28.5 3.5t26.5 8t26.5 15t24 17.5
t24.5 23l22.5 24t23.5 29t22 29t23.5 31.5t22.5 30.5l10 -3zM445 855l-153 -73l-6 10l167 153h6l108 -153l-9 -10z" />
    <glyph glyph-name="ccircumflex" unicode="&#x109;" 
d="M350 152q-22 -77 -69 -122t-115 -45q-72 0 -111.5 49t-39.5 134q0 127 80 225.5t195 98.5q69 0 94 -16v-130l-9 -2q-5 9 -17 30.5t-16.5 29.5t-14 23t-15 20.5t-14.5 13.5t-17.5 10.5t-18.5 2.5q-50 0 -98.5 -76.5t-48.5 -181.5q0 -75 28 -114t79 -39q78 0 122 91z
M292 626l-139 -86l-6 10l156 169h5l91 -169l-10 -10z" />
    <glyph glyph-name="Cdotaccent" unicode="&#x10a;" horiz-adv-x="617" 
d="M520 47q-22 -19 -86 -40.5t-124 -21.5q-128 0 -197 85.5t-69 220.5q0 123 53 227.5t146 166.5t204 62q79 0 159 -31l10 -179l-10 -2q-53 108 -91.5 150t-93.5 42q-79 0 -141 -71.5t-93 -177.5t-31 -219q0 -122 40.5 -188t115.5 -66q14 0 28.5 3.5t26.5 8t26.5 15t24 17.5
t24.5 23l22.5 24t23.5 29t22 29t23.5 31.5t22.5 30.5l10 -3zM501 868q0 -24 -17.5 -41.5t-41.5 -17.5q-25 0 -42.5 17.5t-17.5 41.5q0 25 17.5 42.5t42.5 17.5q24 0 41.5 -17.5t17.5 -42.5z" />
    <glyph glyph-name="cdotaccent" unicode="&#x10b;" 
d="M350 152q-22 -77 -69 -122t-115 -45q-72 0 -111.5 49t-39.5 134q0 127 80 225.5t195 98.5q69 0 94 -16v-130l-9 -2q-5 9 -17 30.5t-16.5 29.5t-14 23t-15 20.5t-14.5 13.5t-17.5 10.5t-18.5 2.5q-50 0 -98.5 -76.5t-48.5 -181.5q0 -75 28 -114t79 -39q78 0 122 91z
M340 658q0 -24 -17.5 -41.5t-41.5 -17.5q-25 0 -42 17.5t-17 41.5q0 25 17 42.5t42 17.5q24 0 41.5 -17.5t17.5 -42.5z" />
    <glyph glyph-name="Ccaron" unicode="&#x10c;" horiz-adv-x="617" 
d="M520 47q-22 -19 -86 -40.5t-124 -21.5q-128 0 -197 85.5t-69 220.5q0 123 53 227.5t146 166.5t204 62q79 0 159 -31l10 -179l-10 -2q-53 108 -91.5 150t-93.5 42q-79 0 -141 -71.5t-93 -177.5t-31 -219q0 -122 40.5 -188t115.5 -66q14 0 28.5 3.5t26.5 8t26.5 15t24 17.5
t24.5 23l22.5 24t23.5 29t22 29t23.5 31.5t22.5 30.5l10 -3zM424 782l-108 153l9 10l113 -73l153 73l6 -10l-167 -153h-6z" />
    <glyph glyph-name="ccaron" unicode="&#x10d;" 
d="M350 152q-22 -77 -69 -122t-115 -45q-72 0 -111.5 49t-39.5 134q0 127 80 225.5t195 98.5q69 0 94 -16v-130l-9 -2q-5 9 -17 30.5t-16.5 29.5t-14 23t-15 20.5t-14.5 13.5t-17.5 10.5t-18.5 2.5q-50 0 -98.5 -76.5t-48.5 -181.5q0 -75 28 -114t79 -39q78 0 122 91z
M270 540l-91 169l10 10l97 -86l139 86l6 -10l-156 -169h-5z" />
    <glyph glyph-name="Dcaron" unicode="&#x10e;" horiz-adv-x="624" 
d="M3 2q27 39 38 67.5t18 78.5l80 435q8 52 7 81t-14 66v2q52 0 108 2t105 2q279 0 279 -291q0 -192 -111.5 -318.5t-289.5 -126.5h-220v2zM270 717l-125 -700l75 2q97 2 164.5 68t96.5 160.5t29 207.5q0 262 -181 262h-59zM370 782l-108 153l9 10l113 -73l153 73l6 -10
l-167 -153h-6z" />
    <glyph glyph-name="dcaron" unicode="&#x10f;" horiz-adv-x="484" 
d="M156 57q83 0 187 263l27 126q-11 23 -50 23q-57 0 -107 -53t-77 -128t-27 -146q0 -85 47 -85zM329 237q-44 -110 -101.5 -181t-119.5 -71q-43 0 -68 34.5t-25 101.5q0 89 37.5 172.5t113 141t170.5 57.5q23 0 44 -3l19 90q24 110 -21 147v2l156 50l-135 -638
q-15 -62 -10 -88.5t44 -34.5v-2l-158 -24l55 246h-1zM579 775h89l-125 -203l-8 2z" />
    <glyph glyph-name="Dcroat" unicode="&#x110;" horiz-adv-x="635" 
d="M31 377h81l38 206q8 52 7 81t-14 66v2q52 0 108 2t105 2q279 0 279 -291q0 -192 -111.5 -318.5t-289.5 -126.5h-220v2q27 39 38 67.5t18 78.5l38 209h-81zM281 717l-61 -340h161l-4 -20h-161l-60 -340l75 2q97 2 164.5 68t96.5 160.5t29 207.5q0 262 -181 262h-59z" />
    <glyph glyph-name="dcroat" unicode="&#x111;" horiz-adv-x="484" 
d="M329 237q-44 -110 -101.5 -181t-119.5 -71q-43 0 -68 34.5t-25 101.5q0 89 37.5 172.5t113 141t170.5 57.5q23 0 44 -3l19 90h-170l4 20h170q6 37 5 64q-2 39 -30 63v2l156 50l-38 -179h66l-4 -20h-66l-93 -439q-15 -62 -10 -88.5t44 -34.5v-2l-158 -24l55 246h-1z
M156 57q83 0 187 263l27 126q-11 23 -50 23q-57 0 -107 -53t-77 -128t-27 -146q0 -85 47 -85z" />
    <glyph glyph-name="Emacron" unicode="&#x112;" horiz-adv-x="518" 
d="M420 0h-416v2q45 81 58 160l75 408q9 55 8 83t-10 77v2h365l12 -172l-10 -2q-74 149 -118 153l-111 5l-61 -337h53q10 0 22 5.5t21 12t22 19.5t20 20.5t20 23t16 19.5h10l-38 -217h-10q-2 4 -8.5 16.5t-10 19t-10 17.5t-12 17.5t-13 13.5t-15.5 10t-17 3h-53l-62 -343
l130 5q31 1 71 31.5t67 61t66 80.5l9 -3zM208 883h271l-10 -50h-271z" />
    <glyph glyph-name="emacron" unicode="&#x113;" 
d="M158 -15q-66 0 -104.5 45.5t-38.5 129.5q0 128 84 230t193 102q38 0 71 -16t33 -55q0 -50 -63 -82.5t-200 -34.5q-14 -53 -14 -106q0 -139 95 -139q74 0 118 79l5 -5q-26 -72 -73 -110t-106 -38zM282 474q-42 0 -82.5 -45t-62.5 -115q103 18 142 53t39 70q0 37 -36 37z
M167 645h244l-10 -49h-243z" />
    <glyph glyph-name="Ebreve" unicode="&#x114;" horiz-adv-x="518" 
d="M420 0h-416v2q45 81 58 160l75 408q9 55 8 83t-10 77v2h365l12 -172l-10 -2q-74 149 -118 153l-111 5l-61 -337h53q10 0 22 5.5t21 12t22 19.5t20 20.5t20 23t16 19.5h10l-38 -217h-10q-2 4 -8.5 16.5t-10 19t-10 17.5t-12 17.5t-13 13.5t-15.5 10t-17 3h-53l-62 -343
l130 5q31 1 71 31.5t67 61t66 80.5l9 -3zM350 865q88 0 118 77h9q-3 -23 -11.5 -45t-24 -45t-42 -37t-61.5 -14q-34 0 -58 14t-35.5 37t-15.5 45.5t-3 44.5h9q18 -77 115 -77z" />
    <glyph glyph-name="ebreve" unicode="&#x115;" 
d="M158 -15q-66 0 -104.5 45.5t-38.5 129.5q0 128 84 230t193 102q38 0 71 -16t33 -55q0 -50 -63 -82.5t-200 -34.5q-14 -53 -14 -106q0 -139 95 -139q74 0 118 79l5 -5q-26 -72 -73 -110t-106 -38zM282 474q-42 0 -82.5 -45t-62.5 -115q103 18 142 53t39 70q0 37 -36 37z
M270 631q70 0 100 72h9q-3 -30 -13 -57.5t-37 -51t-65 -23.5q-55 0 -78.5 42t-18.5 90h9q18 -72 94 -72z" />
    <glyph glyph-name="Edotaccent" unicode="&#x116;" horiz-adv-x="518" 
d="M420 0h-416v2q45 81 58 160l75 408q9 55 8 83t-10 77v2h365l12 -172l-10 -2q-74 149 -118 153l-111 5l-61 -337h53q10 0 22 5.5t21 12t22 19.5t20 20.5t20 23t16 19.5h10l-38 -217h-10q-2 4 -8.5 16.5t-10 19t-10 17.5t-12 17.5t-13 13.5t-15.5 10t-17 3h-53l-62 -343
l130 5q31 1 71 31.5t67 61t66 80.5l9 -3zM403 868q0 -24 -17.5 -41.5t-41.5 -17.5q-25 0 -42.5 17.5t-17.5 41.5q0 25 17.5 42.5t42.5 17.5q24 0 41.5 -17.5t17.5 -42.5z" />
    <glyph glyph-name="edotaccent" unicode="&#x117;" 
d="M158 -15q-66 0 -104.5 45.5t-38.5 129.5q0 128 84 230t193 102q38 0 71 -16t33 -55q0 -50 -63 -82.5t-200 -34.5q-14 -53 -14 -106q0 -139 95 -139q74 0 118 79l5 -5q-26 -72 -73 -110t-106 -38zM282 474q-42 0 -82.5 -45t-62.5 -115q103 18 142 53t39 70q0 37 -36 37z
M331 658q0 -24 -17.5 -41.5t-41.5 -17.5q-25 0 -42 17.5t-17 41.5q0 25 17 42.5t42 17.5q24 0 41.5 -17.5t17.5 -42.5z" />
    <glyph glyph-name="Eogonek" unicode="&#x118;" horiz-adv-x="518" 
d="M420 0h-98q-28 -13 -45 -32q-46 -48 -46 -104q0 -50 45 -50q37 0 72 46l8 -7q-54 -101 -130 -101q-35 0 -54.5 19t-19.5 54q0 75 87 142q25 19 57 33h-292v2q45 81 58 160l75 408q9 55 8 83t-10 77v2h365l12 -172l-10 -2q-74 149 -118 153l-111 5l-61 -337h53
q10 0 22 5.5t21 12t22 19.5t20 20.5t20 23t16 19.5h10l-38 -217h-10q-2 4 -8.5 16.5t-10 19t-10 17.5t-12 17.5t-13 13.5t-15.5 10t-17 3h-53l-62 -343l130 5q31 1 71 31.5t67 61t66 80.5l9 -3z" />
    <glyph glyph-name="eogonek" unicode="&#x119;" 
d="M124 -248q-35 0 -54.5 19t-19.5 54q0 46 34.5 88.5t90.5 72.5q-1 0 -7.5 -0.5t-9.5 -0.5q-66 0 -104.5 45.5t-38.5 129.5q0 128 84 230t193 102q38 0 71 -16t33 -55q0 -50 -63 -82.5t-200 -34.5q-14 -53 -14 -106q0 -139 95 -139q74 0 118 79l5 -5q-16 -52 -50 -89
q-26 -29 -78 -57q-36 -20 -57.5 -53.5t-21.5 -69.5q0 -50 45 -50q37 0 72 46l8 -7q-53 -101 -131 -101zM282 474q-42 0 -82.5 -45t-62.5 -115q103 18 142 53t39 70q0 37 -36 37z" />
    <glyph glyph-name="Ecaron" unicode="&#x11a;" horiz-adv-x="518" 
d="M420 0h-416v2q45 81 58 160l75 408q9 55 8 83t-10 77v2h365l12 -172l-10 -2q-74 149 -118 153l-111 5l-61 -337h53q10 0 22 5.5t21 12t22 19.5t20 20.5t20 23t16 19.5h10l-38 -217h-10q-2 4 -8.5 16.5t-10 19t-10 17.5t-12 17.5t-13 13.5t-15.5 10t-17 3h-53l-62 -343
l130 5q31 1 71 31.5t67 61t66 80.5l9 -3zM343 782l-108 153l9 10l113 -73l153 73l6 -10l-167 -153h-6z" />
    <glyph glyph-name="ecaron" unicode="&#x11b;" 
d="M158 -15q-66 0 -104.5 45.5t-38.5 129.5q0 128 84 230t193 102q38 0 71 -16t33 -55q0 -50 -63 -82.5t-200 -34.5q-14 -53 -14 -106q0 -139 95 -139q74 0 118 79l5 -5q-26 -72 -73 -110t-106 -38zM282 474q-42 0 -82.5 -45t-62.5 -115q103 18 142 53t39 70q0 37 -36 37z
M271 540l-91 169l10 10l97 -86l139 86l6 -10l-156 -169h-5z" />
    <glyph glyph-name="Gcircumflex" unicode="&#x11c;" horiz-adv-x="642" 
d="M633 330q-28 -45 -40 -80t-22 -97l-10 -62q-1 -1 -30 -22.5t-44.5 -30t-46.5 -24t-65 -22.5t-71 -7q-124 0 -192 82.5t-68 220.5q0 119 53 224.5t148.5 170t209.5 64.5q91 0 160 -31l10 -179l-10 -2q-50 107 -89.5 149.5t-96.5 42.5q-80 0 -143.5 -71.5t-96 -179.5
t-32.5 -226q0 -245 148 -245q79 0 124.5 65t45.5 168q1 40 -15 92v2h173v-2zM445 855l-153 -73l-6 10l167 153h6l108 -153l-9 -10z" />
    <glyph glyph-name="gcircumflex" unicode="&#x11d;" horiz-adv-x="426" 
d="M136 248q0 -44 9 -64t32 -20q43 0 77.5 69.5t34.5 156.5q0 44 -9 64t-32 20q-43 0 -77.5 -69.5t-34.5 -156.5zM361 -62q0 -70 -70 -117t-184 -47q-82 0 -134 25.5t-52 73.5q0 46 46 78t110 43q-57 24 -57 74q0 34 26.5 59.5t63.5 36.5q-30 18 -47 51t-17 70
q0 78 64.5 142.5t137.5 64.5q37 0 68 -18l154 36l1 -1l-20 -79h-4l-116 32q48 -42 48 -109q0 -78 -64 -142.5t-138 -64.5q-31 0 -55 12q-34 -18 -34 -42q0 -22 26 -33.5t84 -24.5q7 -1 10 -2q82 -19 109 -37q44 -28 44 -81zM136 -197q75 0 120.5 26t45.5 68q0 32 -28 45
t-86 24q-11 2 -17 3q-4 1 -34.5 8t-44.5 12q-87 -30 -87 -100q0 -86 131 -86zM268 626l-139 -86l-6 10l156 169h5l91 -169l-10 -10z" />
    <glyph glyph-name="Gbreve" unicode="&#x11e;" horiz-adv-x="642" 
d="M633 330q-28 -45 -40 -80t-22 -97l-10 -62q-1 -1 -30 -22.5t-44.5 -30t-46.5 -24t-65 -22.5t-71 -7q-124 0 -192 82.5t-68 220.5q0 119 53 224.5t148.5 170t209.5 64.5q91 0 160 -31l10 -179l-10 -2q-50 107 -89.5 149.5t-96.5 42.5q-80 0 -143.5 -71.5t-96 -179.5
t-32.5 -226q0 -245 148 -245q79 0 124.5 65t45.5 168q1 40 -15 92v2h173v-2zM447 865q88 0 118 77h9q-3 -23 -11.5 -45t-24 -45t-42 -37t-61.5 -14q-34 0 -58 14t-35.5 37t-15.5 45.5t-3 44.5h9q18 -77 115 -77z" />
    <glyph glyph-name="gbreve" unicode="&#x11f;" horiz-adv-x="426" 
d="M136 248q0 -44 9 -64t32 -20q43 0 77.5 69.5t34.5 156.5q0 44 -9 64t-32 20q-43 0 -77.5 -69.5t-34.5 -156.5zM361 -62q0 -70 -70 -117t-184 -47q-82 0 -134 25.5t-52 73.5q0 46 46 78t110 43q-57 24 -57 74q0 34 26.5 59.5t63.5 36.5q-30 18 -47 51t-17 70
q0 78 64.5 142.5t137.5 64.5q37 0 68 -18l154 36l1 -1l-20 -79h-4l-116 32q48 -42 48 -109q0 -78 -64 -142.5t-138 -64.5q-31 0 -55 12q-34 -18 -34 -42q0 -22 26 -33.5t84 -24.5q7 -1 10 -2q82 -19 109 -37q44 -28 44 -81zM136 -197q75 0 120.5 26t45.5 68q0 32 -28 45
t-86 24q-11 2 -17 3q-4 1 -34.5 8t-44.5 12q-87 -30 -87 -100q0 -86 131 -86zM275 631q70 0 100 72h9q-5 -50 -32.5 -91t-82.5 -41t-78.5 42t-18.5 90h9q18 -72 94 -72z" />
    <glyph glyph-name="Gdotaccent" unicode="&#x120;" horiz-adv-x="642" 
d="M633 330q-28 -45 -40 -80t-22 -97l-10 -62q-1 -1 -30 -22.5t-44.5 -30t-46.5 -24t-65 -22.5t-71 -7q-124 0 -192 82.5t-68 220.5q0 119 53 224.5t148.5 170t209.5 64.5q91 0 160 -31l10 -179l-10 -2q-50 107 -89.5 149.5t-96.5 42.5q-80 0 -143.5 -71.5t-96 -179.5
t-32.5 -226q0 -245 148 -245q79 0 124.5 65t45.5 168q1 40 -15 92v2h173v-2zM501 868q0 -24 -17.5 -41.5t-41.5 -17.5q-25 0 -42.5 17.5t-17.5 41.5q0 25 17.5 42.5t42.5 17.5q24 0 41.5 -17.5t17.5 -42.5z" />
    <glyph glyph-name="gdotaccent" unicode="&#x121;" horiz-adv-x="426" 
d="M136 248q0 -44 9 -64t32 -20q43 0 77.5 69.5t34.5 156.5q0 44 -9 64t-32 20q-43 0 -77.5 -69.5t-34.5 -156.5zM361 -62q0 -70 -70 -117t-184 -47q-82 0 -134 25.5t-52 73.5q0 46 46 78t110 43q-57 24 -57 74q0 34 26.5 59.5t63.5 36.5q-30 18 -47 51t-17 70
q0 78 64.5 142.5t137.5 64.5q37 0 68 -18l154 36l1 -1l-20 -79h-4l-116 32q48 -42 48 -109q0 -78 -64 -142.5t-138 -64.5q-31 0 -55 12q-34 -18 -34 -42q0 -22 26 -33.5t84 -24.5q7 -1 10 -2q82 -19 109 -37q44 -28 44 -81zM136 -197q75 0 120.5 26t45.5 68q0 32 -28 45
t-86 24q-11 2 -17 3q-4 1 -34.5 8t-44.5 12q-87 -30 -87 -100q0 -86 131 -86zM326 658q0 -24 -17.5 -41.5t-41.5 -17.5q-25 0 -42 17.5t-17 41.5q0 25 17 42.5t42 17.5q24 0 41.5 -17.5t17.5 -42.5z" />
    <glyph glyph-name="uni0122" unicode="&#x122;" horiz-adv-x="642" 
d="M633 330q-28 -45 -40 -80t-22 -97l-10 -62q-1 -1 -30 -22.5t-44.5 -30t-46.5 -24t-65 -22.5t-71 -7q-124 0 -192 82.5t-68 220.5q0 119 53 224.5t148.5 170t209.5 64.5q91 0 160 -31l10 -179l-10 -2q-50 107 -89.5 149.5t-96.5 42.5q-80 0 -143.5 -71.5t-96 -179.5
t-32.5 -226q0 -245 148 -245q79 0 124.5 65t45.5 168q1 40 -15 92v2h173v-2zM181 -239q29 21 47 46.5t18 43.5q0 24 -27 57v2l79 51q28 -21 28 -55q0 -41 -44 -82t-98 -68z" />
    <glyph glyph-name="uni0123" unicode="&#x123;" horiz-adv-x="426" 
d="M136 248q0 -44 9 -64t32 -20q43 0 77.5 69.5t34.5 156.5q0 44 -9 64t-32 20q-43 0 -77.5 -69.5t-34.5 -156.5zM361 -62q0 -70 -70 -117t-184 -47q-82 0 -134 25.5t-52 73.5q0 46 46 78t110 43q-57 24 -57 74q0 34 26.5 59.5t63.5 36.5q-30 18 -47 51t-17 70
q0 78 64.5 142.5t137.5 64.5q37 0 68 -18l154 36l1 -1l-20 -79h-4l-116 32q48 -42 48 -109q0 -78 -64 -142.5t-138 -64.5q-31 0 -55 12q-34 -18 -34 -42q0 -22 26 -33.5t84 -24.5q7 -1 10 -2q82 -19 109 -37q44 -28 44 -81zM136 -197q75 0 120.5 26t45.5 68q0 32 -28 45
t-86 24q-11 2 -17 3q-4 1 -34.5 8t-44.5 12q-87 -30 -87 -100q0 -86 131 -86zM373 788q-29 -21 -47 -46.5t-18 -43.5q0 -24 27 -57v-2l-79 -51q-28 21 -28 55q0 41 44 82t98 68z" />
    <glyph glyph-name="Hcircumflex" unicode="&#x124;" horiz-adv-x="628" 
d="M5 2q27 46 40 80.5t22 91.5l66 384q10 59 10 94t-12 78l-1 2h174v-2q-27 -42 -39.5 -76t-24.5 -96l-29 -171h256l29 171q12 60 11 93.5t-13 78.5v2h173v-2q-27 -42 -38.5 -75.5t-24.5 -96.5l-66 -384q-10 -59 -10 -94t12 -78v-2h-172v2q28 47 41 81t22 91l33 193h-257
l-33 -193q-10 -59 -10 -94t12 -78v-2h-171v2zM424 855l-153 -73l-6 10l167 153h6l108 -153l-9 -10z" />
    <glyph glyph-name="hcircumflex" unicode="&#x125;" horiz-adv-x="495" 
d="M356 328q19 87 -34 87q-41 0 -81.5 -61t-98.5 -195l-2 -11q-19 -90 -7 -146v-2h-135v2q26 49 56 185l84 392q24 110 -21 147v2l156 50l-120 -546q44 115 101 187.5t121 72.5q47 0 69 -41.5t7 -116.5l-40 -193q-6 -27 -8.5 -40t-4.5 -30.5t-0.5 -25.5t6 -17t13.5 -13
t23 -7v-2l-159 -15zM353 875l-153 -73l-6 10l167 153h6l108 -153l-9 -10z" />
    <glyph glyph-name="Hbar" unicode="&#x126;" horiz-adv-x="648" 
d="M15 2q27 46 40 80.5t22 91.5l64 373h-91l4 20h90q5 24 6 43q8 59 -9 120l-1 2h174v-2q-36 -56 -53 -120l-10 -43h257q5 24 6 43q8 57 -10 120v2h173v-2q-35 -55 -52 -120l-10 -43h92l-4 -20h-91l-64 -373q-10 -59 -10 -94t12 -78v-2h-172v2q28 47 41 81t22 91l33 193
h-257l-33 -193q-10 -59 -10 -94t12 -78v-2h-171v2zM477 387l27 160h-256l-27 -160h256z" />
    <glyph glyph-name="hbar" unicode="&#x127;" horiz-adv-x="495" 
d="M355 328q19 87 -34 87q-41 0 -81.5 -61t-98.5 -195l-2 -11q-19 -90 -7 -146v-2h-135v2q26 49 56 185l84 392h-66l4 20h66q6 37 5 64q-2 39 -30 63v2l156 50l-39 -179h172l-4 -20h-173l-76 -347q44 115 101 187.5t121 72.5q47 0 69 -41.5t7 -116.5l-40 -193
q-6 -27 -8.5 -40t-4.5 -30.5t-0.5 -25.5t6 -17t13.5 -13t23 -7v-2l-159 -15z" />
    <glyph glyph-name="Itilde" unicode="&#x128;" horiz-adv-x="264" 
d="M3 0v2q27 46 40 80.5t22 91.5l69 384q12 61 11.5 94.5t-12.5 77.5v2h173v-2q-28 -42 -39.5 -74t-24.5 -98l-70 -384q-11 -65 -10 -94t12 -78v-2h-171zM174 905q28 0 71 -20.5t71 -20.5q47 0 74 55l9 -2q-5 -25 -11 -42.5t-17.5 -39t-31.5 -32.5t-47 -11q-28 0 -71 20
t-71 20q-25 0 -42.5 -12t-31.5 -43l-8 2q19 126 106 126z" />
    <glyph glyph-name="itilde" unicode="&#x129;" horiz-adv-x="221" 
d="M2 2q27 54 56 185l24 111q23 105 -31 147v2l168 50l-65 -308q-27 -132 -17 -187v-2h-135v2zM132 677q23 0 63 -15.5t63 -15.5q47 0 60 46l9 -1q-5 -39 -28 -75.5t-63 -36.5q-22 0 -63.5 16t-66.5 16q-50 0 -63 -46l-9 1q3 37 28.5 74t69.5 37z" />
    <glyph glyph-name="Imacron" unicode="&#x12a;" horiz-adv-x="264" 
d="M3 0v2q27 46 40 80.5t22 91.5l69 384q12 61 11.5 94.5t-12.5 77.5v2h173v-2q-28 -42 -39.5 -74t-24.5 -98l-70 -384q-11 -65 -10 -94t12 -78v-2h-171zM103 883h271l-10 -50h-271z" />
    <glyph glyph-name="imacron" unicode="&#x12b;" horiz-adv-x="221" 
d="M83 645h193l-10 -49h-193zM2 2q27 54 56 185l24 111q23 105 -31 147v2l168 50l-65 -308q-27 -132 -17 -187v-2h-135v2z" />
    <glyph glyph-name="Ibreve" unicode="&#x12c;" horiz-adv-x="264" 
d="M3 0v2q27 46 40 80.5t22 91.5l69 384q12 61 11.5 94.5t-12.5 77.5v2h173v-2q-28 -42 -39.5 -74t-24.5 -98l-70 -384q-11 -65 -10 -94t12 -78v-2h-171zM245 865q88 0 118 77h9q-3 -23 -11.5 -45t-24 -45t-42 -37t-61.5 -14q-34 0 -58 14t-35.5 37t-15.5 45.5t-3 44.5h9
q18 -77 115 -77z" />
    <glyph glyph-name="ibreve" unicode="&#x12d;" horiz-adv-x="221" 
d="M2 2q27 54 56 185l24 111q23 105 -31 147v2l168 50l-65 -308q-27 -132 -17 -187v-2h-135v2zM189 631q70 0 100 72h9q-5 -50 -32.5 -91t-82.5 -41t-78.5 42t-18.5 90h9q18 -72 94 -72z" />
    <glyph glyph-name="Iogonek" unicode="&#x12e;" horiz-adv-x="264" 
d="M3 0v2q27 46 40 80.5t22 91.5l69 384q12 61 11.5 94.5t-12.5 77.5v2h173v-2q-28 -42 -39.5 -74t-24.5 -98l-70 -384q-11 -65 -10 -94t12 -78v-2h-37q-28 -13 -45 -32q-46 -48 -46 -104q0 -50 45 -50q37 0 72 46l8 -7q-54 -101 -130 -101q-35 0 -54.5 19t-19.5 54
q0 75 87 142q26 19 57 33h-108z" />
    <glyph glyph-name="iogonek" unicode="&#x12f;" horiz-adv-x="221" 
d="M1 2q6 10 11 20t9.5 23t7.5 22t7.5 27t6.5 26.5t7.5 32.5t7.5 34l24 111q22 112 -21 147v2l158 50l-66 -310q-27 -128 -16 -185v-2h-14q-28 -13 -45 -32q-46 -48 -46 -104q0 -50 45 -50q37 0 72 46l8 -7q-54 -101 -130 -101q-35 0 -54.5 19t-19.5 54q0 75 87 142
q26 19 57 33h-96v2zM246 658q0 -24 -17 -41.5t-42 -17.5q-24 0 -41.5 17.5t-17.5 41.5q0 25 17.5 42.5t41.5 17.5q25 0 42 -17.5t17 -42.5z" />
    <glyph glyph-name="Idotaccent" unicode="&#x130;" horiz-adv-x="264" 
d="M3 0v2q27 46 40 80.5t22 91.5l69 384q12 61 11.5 94.5t-12.5 77.5v2h173v-2q-28 -42 -39.5 -74t-24.5 -98l-70 -384q-11 -65 -10 -94t12 -78v-2h-171zM298 868q0 -24 -17.5 -41.5t-41.5 -17.5q-25 0 -42.5 17.5t-17.5 41.5q0 25 17.5 42.5t42.5 17.5q24 0 41.5 -17.5
t17.5 -42.5z" />
    <glyph glyph-name="dotlessi" unicode="&#x131;" horiz-adv-x="221" 
d="M2 2q27 54 56 185l24 111q23 105 -31 147v2l168 50l-65 -308q-27 -132 -17 -187v-2h-135v2z" />
    <glyph glyph-name="IJ" unicode="&#x132;" horiz-adv-x="608" 
d="M2 0v2q27 46 40 80.5t22 91.5l69 384q12 61 11.5 94.5t-12.5 77.5v2h173v-2q-28 -42 -39.5 -74t-24.5 -98l-70 -384q-11 -65 -10 -94t12 -78v-2h-171zM522 168q-17 -95 -64.5 -139t-116.5 -44q-51 0 -94 22l13 158l10 2q27 -92 43.5 -127t36.5 -35q35 0 47 76l84 477
q10 60 9.5 93.5t-12.5 78.5v2h174v-2q-28 -44 -40.5 -78.5t-22.5 -93.5z" />
    <glyph glyph-name="ij" unicode="&#x133;" horiz-adv-x="432" 
d="M246 658q0 -24 -17 -41.5t-42 -17.5q-24 0 -41.5 17.5t-17.5 41.5q0 25 17.5 42.5t41.5 17.5q25 0 42 -17.5t17 -42.5zM1 2q6 10 11 20t9.5 23t7.5 22t7.5 27t6.5 26.5t7.5 32.5t7.5 34l24 111q22 112 -21 147v2l158 50l-66 -310q-27 -128 -16 -185v-2h-136v2zM463 658
q0 -24 -17 -41.5t-42 -17.5q-24 0 -41.5 17.5t-17.5 41.5q0 25 17.5 42.5t41.5 17.5q25 0 42 -17.5t17 -42.5zM128 -209q71 39 93 140l79 367q23 113 -22 147v2l157 50l-109 -498q-22 -97 -75 -151t-122 -63z" />
    <glyph glyph-name="Jcircumflex" unicode="&#x134;" horiz-adv-x="360" 
d="M275 168q-17 -95 -64.5 -139t-116.5 -44q-51 0 -94 22l13 158l10 2q27 -92 43.5 -127t36.5 -35q35 0 47 76l84 477q10 60 9.5 93.5t-12.5 78.5v2h174v-2q-28 -44 -40.5 -78.5t-22.5 -93.5zM341 855l-153 -73l-6 10l167 153h6l108 -153l-9 -10z" />
    <glyph glyph-name="jcircumflex" unicode="&#x135;" horiz-adv-x="211" 
d="M-96 -209q72 40 93 140l79 367q24 111 -22 147v2l158 50l-110 -498q-22 -97 -75 -151t-122 -63zM179 626l-139 -86l-6 10l156 169h5l91 -169l-10 -10z" />
    <glyph glyph-name="uni0136" unicode="&#x136;" horiz-adv-x="546" 
d="M3 2q27 46 40 80.5t22 91.5l69 384q12 61 11.5 94.5t-12.5 77.5v2h174l-1 -2q-28 -42 -39.5 -74t-24.5 -98l-70 -384q-11 -65 -10 -94t12 -78v-2h-171v2zM374 0l-162 361l193 220q93 100 73 149v2h129v-2q-54 -32 -89 -63t-83 -84l-134 -150l138 -308q20 -47 35.5 -72
t43.5 -51l1 -2h-145zM161 -239q29 21 47 46.5t18 43.5q0 24 -27 57v2l79 51q28 -21 28 -55q0 -41 -44 -82t-98 -68z" />
    <glyph glyph-name="uni0137" unicode="&#x137;" horiz-adv-x="454" 
d="M-2 0v2q13 24 23 55.5t15 51.5t18 78l82 392q24 110 -21 147v2l158 50l-131 -628q-20 -96 -9 -148v-2h-135zM168 248l145 137q31 30 38.5 49.5t-4.5 40.5v2h132v-2q-41 -17 -73 -39.5t-74 -62.5l-82 -76l92 -205q29 -65 69 -90v-2h-132zM83 -239q29 21 47 46.5t18 43.5
q0 24 -27 57v2l79 51q28 -21 28 -55q0 -41 -44 -82t-98 -68z" />
    <glyph glyph-name="Lacute" unicode="&#x139;" horiz-adv-x="496" 
d="M3 0v2q27 47 38.5 78t23.5 94l69 384q10 63 10.5 94.5t-11.5 77.5v2h173v-2q-28 -41 -39.5 -73.5t-24.5 -98.5l-97 -544l109 5q47 2 95.5 50t109.5 130l10 -4l-72 -195h-394zM343 959l43 -78l-240 -99l-6 10z" />
    <glyph glyph-name="lacute" unicode="&#x13a;" horiz-adv-x="217" 
d="M-2 0v2q26 49 56 185l84 392q24 110 -21 147v2l156 50l-125 -589q-26 -127 -15 -187v-2h-135zM335 959l43 -78l-240 -99l-6 10z" />
    <glyph glyph-name="uni013B" unicode="&#x13b;" horiz-adv-x="496" 
d="M3 0v2q27 47 38.5 78t23.5 94l69 384q10 63 10.5 94.5t-11.5 77.5v2h173v-2q-28 -41 -39.5 -73.5t-24.5 -98.5l-97 -544l109 5q47 2 95.5 50t109.5 130l10 -4l-72 -195h-394zM121 -239q29 21 47 46.5t18 43.5q0 24 -27 57v2l79 51q28 -21 28 -55q0 -41 -44 -82t-98 -68z
" />
    <glyph glyph-name="uni013C" unicode="&#x13c;" horiz-adv-x="217" 
d="M-2 0v2q26 49 56 185l84 392q24 110 -21 147v2l156 50l-125 -589q-26 -127 -15 -187v-2h-135zM-39 -239q29 21 47 46.5t18 43.5q0 24 -27 57v2l79 51q28 -21 28 -55q0 -41 -44 -82t-98 -68z" />
    <glyph glyph-name="Lcaron" unicode="&#x13d;" horiz-adv-x="496" 
d="M3 0v2q27 47 38.5 78t23.5 94l69 384q10 63 10.5 94.5t-11.5 77.5v2h173v-2q-28 -41 -39.5 -73.5t-24.5 -98.5l-97 -544l109 5q47 2 95.5 50t109.5 130l10 -4l-72 -195h-394zM345 732h89l-125 -203l-8 2z" />
    <glyph glyph-name="lcaron" unicode="&#x13e;" horiz-adv-x="217" 
d="M-2 0v2q26 49 56 185l84 392q24 110 -21 147v2l156 50l-125 -589q-26 -127 -15 -187v-2h-135zM319 775h89l-125 -203l-8 2z" />
    <glyph glyph-name="Ldot" unicode="&#x13f;" horiz-adv-x="496" 
d="M2 0v2q27 47 38.5 78t23.5 94l69 384q10 63 10.5 94.5t-11.5 77.5v2h173v-2q-28 -41 -39.5 -73.5t-24.5 -98.5l-97 -544l109 5q47 2 95.5 50t109.5 130l10 -4l-72 -195h-394zM420 306q-27 0 -46.5 20t-19.5 46q0 29 19.5 48t46.5 19t46.5 -19t19.5 -48q0 -26 -20 -46
t-46 -20z" />
    <glyph glyph-name="ldot" unicode="&#x140;" horiz-adv-x="327" 
d="M-2 0v2q26 49 56 185l84 392q24 110 -21 147v2l156 50l-125 -589q-26 -127 -15 -187v-2h-135zM302 305q-27 0 -46.5 20t-19.5 46q0 29 19.5 48t46.5 19t46.5 -19t19.5 -48q0 -26 -20 -46t-46 -20z" />
    <glyph glyph-name="Lslash" unicode="&#x141;" horiz-adv-x="505" 
d="M13 0v2q27 47 38.5 78t23.5 94l15 83l-72 -38v25l77 41l49 273q10 63 10.5 94.5t-11.5 77.5v2h173v-2q-28 -41 -39.5 -73.5t-24.5 -98.5l-37 -209l201 108v-25l-206 -111l-55 -307l109 5q47 2 95.5 50t109.5 130l10 -4l-72 -195h-394z" />
    <glyph glyph-name="lslash" unicode="&#x142;" horiz-adv-x="236" 
d="M7 0v2q26 49 56 185l27 125l-63 -49v24l69 54l51 238q24 110 -21 147v2l156 50l-75 -350l63 49v-24l-69 -54l-44 -210q-26 -127 -15 -187v-2h-135z" />
    <glyph glyph-name="Nacute" unicode="&#x143;" horiz-adv-x="586" 
d="M168 623l-75 -431q-12 -65 -7 -102.5t31 -87.5v-2h-124v2q26 32 40.5 62.5t19.5 51.5t15 76l69 378l-1 -2q11 60 7 94t-34 68v2h131l241 -559l65 367q12 66 8.5 102t-25.5 88v2h123v-2q-38 -53 -53.5 -88.5t-27.5 -101.5l-98 -540l-31 -3zM524 959l43 -78l-240 -99l-6 10
z" />
    <glyph glyph-name="nacute" unicode="&#x144;" horiz-adv-x="501" 
d="M362 328q9 38 0.5 62.5t-34.5 24.5q-41 0 -81.5 -61t-98.5 -195l-2 -11q-20 -95 -9 -146v-2h-135v2q33 64 56 185l24 111q24 111 -21 147v2l154 50l-57 -267q44 116 101.5 189t121.5 73q47 0 69 -41.5t7 -116.5l-41 -193q-17 -65 -13 -95t43 -38v-2l-159 -15zM394 749
l55 -64l-202 -134l-7 8z" />
    <glyph glyph-name="uni0145" unicode="&#x145;" horiz-adv-x="592" 
d="M168 623l-75 -431q-12 -65 -7 -102.5t31 -87.5v-2h-124v2q26 32 40.5 62.5t19.5 51.5t15 76l69 378l-1 -2q11 60 7 94t-34 68v2h131l241 -559l65 367q12 66 8.5 102t-25.5 88v2h123v-2q-38 -53 -53.5 -88.5t-27.5 -101.5l-98 -540l-31 -3zM151 -239q29 21 47 46.5
t18 43.5q0 24 -27 57v2l79 51q28 -21 28 -55q0 -41 -44 -82t-98 -68z" />
    <glyph glyph-name="uni0146" unicode="&#x146;" horiz-adv-x="501" 
d="M362 328q9 38 0.5 62.5t-34.5 24.5q-41 0 -81.5 -61t-98.5 -195l-2 -11q-20 -95 -9 -146v-2h-135v2q33 64 56 185l24 111q24 111 -21 147v2l154 50l-57 -267q44 116 101.5 189t121.5 73q47 0 69 -41.5t7 -116.5l-41 -193q-17 -65 -13 -95t43 -38v-2l-159 -15zM113 -239
q29 21 47 46.5t18 43.5q0 24 -27 57v2l79 51q28 -21 28 -55q0 -41 -44 -82t-98 -68z" />
    <glyph glyph-name="Ncaron" unicode="&#x147;" horiz-adv-x="586" 
d="M168 623l-75 -431q-12 -65 -7 -102.5t31 -87.5v-2h-124v2q26 32 40.5 62.5t19.5 51.5t15 76l69 378l-1 -2q11 60 7 94t-34 68v2h131l241 -559l65 367q12 66 8.5 102t-25.5 88v2h123v-2q-38 -53 -53.5 -88.5t-27.5 -101.5l-98 -540l-31 -3zM394 782l-108 153l9 10l113 -73
l153 73l6 -10l-167 -153h-6z" />
    <glyph glyph-name="ncaron" unicode="&#x148;" horiz-adv-x="501" 
d="M362 328q9 38 0.5 62.5t-34.5 24.5q-41 0 -81.5 -61t-98.5 -195l-2 -11q-20 -95 -9 -146v-2h-135v2q33 64 56 185l24 111q24 111 -21 147v2l154 50l-57 -267q44 116 101.5 189t121.5 73q47 0 69 -41.5t7 -116.5l-41 -193q-17 -65 -13 -95t43 -38v-2l-159 -15zM297 540
l-91 169l10 10l97 -86l139 86l6 -10l-156 -169h-5z" />
    <glyph glyph-name="napostrophe" unicode="&#x149;" horiz-adv-x="501" 
d="M362 328q9 38 0.5 62.5t-34.5 24.5q-41 0 -81.5 -61t-98.5 -195l-2 -11q-20 -95 -9 -146v-2h-135v2q33 64 56 185l24 111q24 111 -21 147v2l154 50l-57 -267q44 116 101.5 189t121.5 73q47 0 69 -41.5t7 -116.5l-41 -193q-17 -65 -13 -95t43 -38v-2l-159 -15zM-17 513
q35 26 56.5 56.5t21.5 53.5q0 27 -33 68v2l96 62q33 -25 33 -65q0 -50 -53.5 -101.5t-116.5 -81.5z" />
    <glyph glyph-name="Eng" unicode="&#x14a;" horiz-adv-x="593" 
d="M300 -225q-57 0 -98 22l13 158l9 2q45 -111 61 -134q21 -27 47 -28q31 0 63.5 30.5t43.5 96.5l13 76l-10 -1l-274 626l-75 -431q-12 -65 -7 -102.5t31 -87.5v-2h-134v2q40 50 56.5 87t28.5 103l69 378l-1 -2q9 62 2 93.5t-39 68.5v2h141l242 -561l64 369q12 66 8.5 102
t-25.5 88v2h127v-2q-40 -53 -56.5 -89t-28.5 -101l-109 -613q-15 -77 -52 -114.5t-110 -37.5z" />
    <glyph glyph-name="eng" unicode="&#x14b;" horiz-adv-x="488" 
d="M185 -209q71 39 93 140l84 397q9 38 0.5 62.5t-34.5 24.5q-41 0 -81.5 -61t-98.5 -195l-2 -11q-20 -95 -9 -146v-2h-135v2q33 64 56 185l24 111q24 111 -21 147v2l154 50l-57 -267q44 116 101.5 189t121.5 73q47 0 69 -41.5t7 -116.5l-75 -335q-22 -98 -74.5 -151.5
t-121.5 -62.5z" />
    <glyph glyph-name="Omacron" unicode="&#x14c;" horiz-adv-x="675" 
d="M675 448q0 -118 -52.5 -225t-141 -172.5t-187.5 -65.5q-113 0 -181.5 83t-68.5 216q0 118 52.5 225t140.5 172.5t187 65.5q113 0 182 -83t69 -216zM157 236q0 -108 35.5 -169.5t106.5 -61.5q78 0 140 77.5t92.5 188.5t30.5 225q0 108 -36 169.5t-107 61.5
q-77 0 -139 -77.5t-92.5 -188.5t-30.5 -225zM308 883h271l-10 -50h-271z" />
    <glyph glyph-name="omacron" unicode="&#x14d;" horiz-adv-x="442" 
d="M427 311q0 -79 -38.5 -155.5t-99.5 -123.5t-122 -47q-74 0 -113 47.5t-39 132.5q0 80 38.5 156.5t99.5 123.5t122 47q74 0 113 -48t39 -133zM110 120q0 -117 60 -117q63 0 112.5 107t49.5 247q0 117 -59 117q-43 0 -81 -49t-60 -131t-22 -174zM165 645h244l-10 -49h-243z
" />
    <glyph glyph-name="Obreve" unicode="&#x14e;" horiz-adv-x="675" 
d="M675 448q0 -118 -52.5 -225t-141 -172.5t-187.5 -65.5q-113 0 -181.5 83t-68.5 216q0 118 52.5 225t140.5 172.5t187 65.5q113 0 182 -83t69 -216zM157 236q0 -108 35.5 -169.5t106.5 -61.5q78 0 140 77.5t92.5 188.5t30.5 225q0 108 -36 169.5t-107 61.5
q-77 0 -139 -77.5t-92.5 -188.5t-30.5 -225zM450 865q88 0 118 77h9q-3 -23 -11.5 -45t-24 -45t-42 -37t-61.5 -14q-34 0 -58 14t-35.5 37t-15.5 45.5t-3 44.5h9q18 -77 115 -77z" />
    <glyph glyph-name="obreve" unicode="&#x14f;" horiz-adv-x="442" 
d="M427 311q0 -79 -38.5 -155.5t-99.5 -123.5t-122 -47q-74 0 -113 47.5t-39 132.5q0 80 38.5 156.5t99.5 123.5t122 47q74 0 113 -48t39 -133zM110 120q0 -117 60 -117q63 0 112.5 107t49.5 247q0 117 -59 117q-43 0 -81 -49t-60 -131t-22 -174zM288 631q70 0 100 72h9
q-3 -30 -13 -57.5t-37 -51t-65 -23.5q-55 0 -78.5 42t-18.5 90h9q18 -72 94 -72z" />
    <glyph glyph-name="Ohungarumlaut" unicode="&#x150;" horiz-adv-x="675" 
d="M675 448q0 -118 -52.5 -225t-141 -172.5t-187.5 -65.5q-113 0 -181.5 83t-68.5 216q0 118 52.5 225t140.5 172.5t187 65.5q113 0 182 -83t69 -216zM157 236q0 -108 35.5 -169.5t106.5 -61.5q78 0 140 77.5t92.5 188.5t30.5 225q0 108 -36 169.5t-107 61.5
q-77 0 -139 -77.5t-92.5 -188.5t-30.5 -225zM596 949l51 -63l-168 -104l-8 10zM429 949l51 -63l-168 -104l-7 10z" />
    <glyph glyph-name="ohungarumlaut" unicode="&#x151;" horiz-adv-x="442" 
d="M427 311q0 -79 -38.5 -155.5t-99.5 -123.5t-122 -47q-74 0 -113 47.5t-39 132.5q0 80 38.5 156.5t99.5 123.5t122 47q74 0 113 -48t39 -133zM110 120q0 -117 60 -117q63 0 112.5 107t49.5 247q0 117 -59 117q-43 0 -81 -49t-60 -131t-22 -174zM423 729l56 -54l-142 -124
l-10 9zM279 729l56 -54l-142 -124l-9 9z" />
    <glyph glyph-name="OE" unicode="&#x152;" horiz-adv-x="858" 
d="M481 593q10 50 -4 124l-30 -1q-73 -2 -130 -38.5t-91 -97t-51.5 -134.5t-17.5 -156q0 -271 181 -271h15q36 71 49 142zM760 0h-438q-137 0 -207.5 76.5t-70.5 223.5q0 190 112 311t298 121h386l12 -172l-9 -2q-20 37 -31.5 56.5t-28.5 46t-31.5 38.5t-27.5 12l-111 2
l-60 -334h52q13 0 25.5 6t28 20t23 22t25 29t19.5 23h10l-38 -217h-10q-2 4 -11.5 22.5t-15 27.5t-15.5 22t-20.5 19t-23.5 6h-53l-62 -343l130 5q31 1 71 32t65.5 60t67.5 81l9 -3z" />
    <glyph glyph-name="oe" unicode="&#x153;" horiz-adv-x="688" 
d="M579 474q-42 0 -82.5 -45t-62.5 -115q103 18 142 53t39 70q0 37 -36 37zM110 120q0 -117 60 -117q63 0 112.5 107t49.5 247q0 117 -59 117q-43 0 -81 -49t-60 -131t-22 -174zM455 -12q-91 0 -122 93q-76 -96 -166 -96q-74 0 -113 47.5t-39 132.5q0 80 38.5 156.5
t99.5 123.5t122 47q100 0 131 -99q79 99 183 99q38 0 71 -16t33 -55q0 -50 -63 -82.5t-200 -34.5q-14 -53 -14 -106q0 -136 95 -136q73 0 118 78l5 -5q-26 -71 -73 -109t-106 -38z" />
    <glyph glyph-name="Racute" unicode="&#x154;" horiz-adv-x="552" 
d="M4 2q26 46 38 80.5t24 97.5l68 374q12 61 11.5 95.5t-12.5 80.5v2h231q181 0 181 -149q0 -71 -42 -129.5t-120 -84.5l56 -232q24 -93 76 -130v-7h-155l-84 353h-71l-32 -174q-12 -62 -11 -97t13 -80v-2h-171v2zM341 713h-27q-27 0 -44 -1l-62 -339h75q70 0 109.5 66
t39.5 150q0 124 -91 124zM462 959l43 -78l-240 -99l-6 10z" />
    <glyph glyph-name="racute" unicode="&#x155;" horiz-adv-x="343" 
d="M2 2q13 24 23 55.5t15 51.5t18 78l24 111q24 109 -20 147v2l150 50l-62 -292q116 287 223 287l-43 -123h-4q-10 7 -22 7q-36 0 -69.5 -49.5t-86.5 -167.5l-2 -11q-21 -88 -9 -146v-2h-135v2zM345 749l55 -64l-202 -134l-7 8z" />
    <glyph glyph-name="uni0156" unicode="&#x156;" horiz-adv-x="552" 
d="M4 2q26 46 38 80.5t24 97.5l68 374q12 61 11.5 95.5t-12.5 80.5v2h231q181 0 181 -149q0 -71 -42 -129.5t-120 -84.5l56 -232q24 -93 76 -130v-7h-155l-84 353h-71l-32 -174q-12 -62 -11 -97t13 -80v-2h-171v2zM341 713h-27q-27 0 -44 -1l-62 -339h75q70 0 109.5 66
t39.5 150q0 124 -91 124zM163 -239q29 21 47 46.5t18 43.5q0 24 -27 57v2l79 51q28 -21 28 -55q0 -41 -44 -82t-98 -68z" />
    <glyph glyph-name="uni0157" unicode="&#x157;" horiz-adv-x="343" 
d="M2 2q13 24 23 55.5t15 51.5t18 78l24 111q24 109 -20 147v2l150 50l-62 -292q116 287 223 287l-43 -123h-4q-10 7 -22 7q-36 0 -69.5 -49.5t-86.5 -167.5l-2 -11q-21 -88 -9 -146v-2h-135v2zM-39 -239q29 21 47 46.5t18 43.5q0 24 -27 57v2l79 51q28 -21 28 -55
q0 -41 -44 -82t-98 -68z" />
    <glyph glyph-name="Rcaron" unicode="&#x158;" horiz-adv-x="552" 
d="M4 2q26 46 38 80.5t24 97.5l68 374q12 61 11.5 95.5t-12.5 80.5v2h231q181 0 181 -149q0 -71 -42 -129.5t-120 -84.5l56 -232q24 -93 76 -130v-7h-155l-84 353h-71l-32 -174q-12 -62 -11 -97t13 -80v-2h-171v2zM341 713h-27q-27 0 -44 -1l-62 -339h75q70 0 109.5 66
t39.5 150q0 124 -91 124zM347 782l-108 153l9 10l113 -73l153 73l6 -10l-167 -153h-6z" />
    <glyph glyph-name="rcaron" unicode="&#x159;" horiz-adv-x="343" 
d="M2 2q13 24 23 55.5t15 51.5t18 78l24 111q24 109 -20 147v2l150 50l-62 -292q116 287 223 287l-43 -123h-4q-10 7 -22 7q-36 0 -69.5 -49.5t-86.5 -167.5l-2 -11q-21 -88 -9 -146v-2h-135v2zM255 540l-91 169l10 10l97 -86l139 86l6 -10l-156 -169h-5z" />
    <glyph glyph-name="Sacute" unicode="&#x15a;" horiz-adv-x="463" 
d="M463 538l-10 -2q-41 108 -74.5 149t-75.5 41q-48 0 -79 -35.5t-31 -88.5q0 -13 1.5 -25.5t6.5 -24.5t8.5 -21t13 -21t14 -18.5t17.5 -19.5l17 -17t20 -19t19 -18q56 -50 86.5 -99.5t30.5 -120.5q0 -102 -65 -157.5t-169 -55.5q-97 0 -157 31l-8 202l10 2
q43 -112 84.5 -163.5t96.5 -51.5q57 0 87 42.5t30 104.5q0 13 -2 25t-4 21.5t-8.5 21.5t-9 18.5t-12.5 19t-13 16.5t-16 17t-15.5 15t-17.5 16.5t-16 15.5q-31 29 -43 42t-33 40.5t-29 56.5t-8 65q0 95 63 150t155 55q71 0 133 -26zM427 959l43 -78l-240 -99l-6 10z" />
    <glyph glyph-name="sacute" unicode="&#x15b;" horiz-adv-x="331" 
d="M310 348l-6 -2q-36 74 -58.5 101t-54.5 27q-29 0 -45.5 -20t-16.5 -49q0 -27 16.5 -50.5t40.5 -43.5t48 -41.5t40.5 -54.5t16.5 -73q0 -73 -46.5 -115t-117.5 -42q-73 0 -116 28l-5 142l6 2q37 -82 69 -118t68 -36q30 0 50 22t20 60q0 31 -16.5 57t-39.5 46.5t-46.5 41.5
t-40 52.5t-16.5 69.5q0 68 44 104t110 36q59 0 97 -15zM296 749l55 -64l-202 -134l-7 8z" />
    <glyph glyph-name="Scircumflex" unicode="&#x15c;" horiz-adv-x="463" 
d="M463 538l-10 -2q-41 108 -74.5 149t-75.5 41q-48 0 -79 -35.5t-31 -88.5q0 -13 1.5 -25.5t6.5 -24.5t8.5 -21t13 -21t14 -18.5t17.5 -19.5l17 -17t20 -19t19 -18q56 -50 86.5 -99.5t30.5 -120.5q0 -102 -65 -157.5t-169 -55.5q-97 0 -157 31l-8 202l10 2
q43 -112 84.5 -163.5t96.5 -51.5q57 0 87 42.5t30 104.5q0 13 -2 25t-4 21.5t-8.5 21.5t-9 18.5t-12.5 19t-13 16.5t-16 17t-15.5 15t-17.5 16.5t-16 15.5q-31 29 -43 42t-33 40.5t-29 56.5t-8 65q0 95 63 150t155 55q71 0 133 -26zM343 855l-153 -73l-6 10l167 153h6
l108 -153l-9 -10z" />
    <glyph glyph-name="scircumflex" unicode="&#x15d;" horiz-adv-x="331" 
d="M310 348l-6 -2q-36 74 -58.5 101t-54.5 27q-29 0 -45.5 -20t-16.5 -49q0 -27 16.5 -50.5t40.5 -43.5t48 -41.5t40.5 -54.5t16.5 -73q0 -73 -46.5 -115t-117.5 -42q-73 0 -116 28l-5 142l6 2q37 -82 69 -118t68 -36q30 0 50 22t20 60q0 31 -16.5 57t-39.5 46.5t-46.5 41.5
t-40 52.5t-16.5 69.5q0 68 44 104t110 36q59 0 97 -15zM219 626l-139 -86l-6 10l156 169h5l91 -169l-10 -10z" />
    <glyph glyph-name="uni015E" unicode="&#x15e;" horiz-adv-x="463" 
d="M72 -246q111 32 111 89q0 8 -2 14.5t-7 11t-8.5 7.5t-11.5 5t-11 2.5t-11 2.5l-9 1l-1 2l71 96q-97 0 -157 31l-8 202l10 2q43 -112 84.5 -163.5t96.5 -51.5q57 0 87 42.5t30 104.5q0 13 -2 25t-4 21.5t-8.5 21.5t-9 18.5t-12.5 19t-13 16.5t-16 17t-15.5 15t-17.5 16.5
t-16 15.5q-31 29 -43 42t-33 40.5t-29 56.5t-8 65q0 95 63 150t155 55q71 0 133 -26l3 -183l-10 -2q-41 108 -74.5 149t-75.5 41q-48 0 -79 -35.5t-31 -88.5q0 -13 1.5 -25.5t6.5 -24.5t8.5 -21t13 -21t14 -18.5t17.5 -19.5l17 -17t20 -19t19 -18q56 -50 86.5 -99.5
t30.5 -120.5q0 -76 -38 -127.5t-103 -71.5q-29 -10 -68 -13l-35 -46q66 -19 66 -72q0 -92 -174 -123z" />
    <glyph glyph-name="uni015F" unicode="&#x15f;" horiz-adv-x="331" 
d="M-12 -246q111 32 111 89q0 8 -2 14.5t-7 11t-8.5 7.5t-11.5 5t-11 2.5t-11 2.5l-9 1l-1 2l71 97q-29 2 -53 9q-32 11 -45 18l-5 142l6 2q37 -82 69 -118t68 -36q30 0 50 22t20 60q0 31 -16.5 57t-39.5 46.5t-46.5 41.5t-40 52.5t-16.5 69.5q0 68 44 104t110 36
q59 0 97 -15l-1 -129l-6 -2q-36 74 -58.5 101t-54.5 27q-29 0 -45.5 -20t-16.5 -49q0 -27 16.5 -50.5t40.5 -43.5t48 -41.5t40.5 -54.5t16.5 -73q0 -56 -27 -93.5t-73 -52.5q-24 -9 -57 -11l-35 -45q66 -19 66 -72q0 -92 -174 -123z" />
    <glyph glyph-name="Scaron" unicode="&#x160;" horiz-adv-x="463" 
d="M463 538l-10 -2q-41 108 -74.5 149t-75.5 41q-48 0 -79 -35.5t-31 -88.5q0 -13 1.5 -25.5t6.5 -24.5t8.5 -21t13 -21t14 -18.5t17.5 -19.5l17 -17t20 -19t19 -18q56 -50 86.5 -99.5t30.5 -120.5q0 -102 -65 -157.5t-169 -55.5q-97 0 -157 31l-8 202l10 2
q43 -112 84.5 -163.5t96.5 -51.5q57 0 87 42.5t30 104.5q0 13 -2 25t-4 21.5t-8.5 21.5t-9 18.5t-12.5 19t-13 16.5t-16 17t-15.5 15t-17.5 16.5t-16 15.5q-31 29 -43 42t-33 40.5t-29 56.5t-8 65q0 95 63 150t155 55q71 0 133 -26zM334 782l-108 153l9 10l113 -73l153 73
l6 -10l-167 -153h-6z" />
    <glyph glyph-name="scaron" unicode="&#x161;" horiz-adv-x="331" 
d="M310 348l-6 -2q-36 74 -58.5 101t-54.5 27q-29 0 -45.5 -20t-16.5 -49q0 -27 16.5 -50.5t40.5 -43.5t48 -41.5t40.5 -54.5t16.5 -73q0 -73 -46.5 -115t-117.5 -42q-73 0 -116 28l-5 142l6 2q37 -82 69 -118t68 -36q30 0 50 22t20 60q0 31 -16.5 57t-39.5 46.5t-46.5 41.5
t-40 52.5t-16.5 69.5q0 68 44 104t110 36q59 0 97 -15zM199 540l-91 169l10 10l97 -86l139 86l6 -10l-156 -169h-5z" />
    <glyph glyph-name="Tcommaaccent" unicode="&#x162;" horiz-adv-x="591" 
d="M165 0v2q28 47 41 81t22 91l98 542l-82 -4q-8 -1 -18 -6.5t-22.5 -17.5t-23.5 -23.5t-26.5 -31t-25.5 -32t-26.5 -34.5t-24.5 -32l-10 4l65 193h499l-5 -195l-9 -2q-49 121 -68 150q-18 27 -34 27l-81 3l-97 -541q-10 -64 -10.5 -94t11.5 -78v-2h-173zM143 -239
q29 21 47 46.5t18 43.5q0 24 -27 57v2l79 51q28 -21 28 -55q0 -41 -44 -82t-98 -68z" />
    <glyph glyph-name="tcommaaccent" unicode="&#x163;" horiz-adv-x="318" 
d="M116 -15q-90 0 -62 139l72 333h-52v8l165 119h9l-23 -107h116l-4 -20h-116l-71 -334q-16 -72 17 -72q22 0 48.5 22t45.5 49l10 -7q-71 -130 -155 -130zM22 -239q29 21 47 46.5t18 43.5q0 24 -27 57v2l79 51q28 -21 28 -55q0 -41 -44 -82t-98 -68z" />
    <glyph glyph-name="Tcaron" unicode="&#x164;" horiz-adv-x="591" 
d="M165 0v2q28 47 41 81t22 91l98 542l-82 -4q-8 -1 -18 -6.5t-22.5 -17.5t-23.5 -23.5t-26.5 -31t-25.5 -32t-26.5 -34.5t-24.5 -32l-10 4l65 193h499l-5 -195l-9 -2q-49 121 -68 150q-18 27 -34 27l-81 3l-97 -541q-10 -64 -10.5 -94t11.5 -78v-2h-173zM386 782l-108 153
l9 10l113 -73l153 73l6 -10l-167 -153h-6z" />
    <glyph glyph-name="tcaron" unicode="&#x165;" horiz-adv-x="318" 
d="M116 -15q-90 0 -62 139l72 333h-52v8l165 119h9l-23 -107h116l-4 -20h-116l-71 -334q-16 -72 17 -72q22 0 48.5 22t45.5 49l10 -7q-71 -130 -155 -130zM338 775h89l-125 -203l-8 2z" />
    <glyph glyph-name="Tbar" unicode="&#x166;" horiz-adv-x="591" 
d="M164 0v2q28 47 41 81t22 91l33 183h-149l4 20h148l62 339l-82 -4q-8 -1 -18 -6.5t-22.5 -17.5t-23.5 -23.5t-26.5 -31t-25.5 -32t-26.5 -34.5t-24.5 -32l-10 4l65 193h499l-5 -195l-9 -2q-49 121 -68 150q-18 27 -34 27l-81 3l-61 -338h152l-4 -20h-151l-33 -183
q-10 -64 -10.5 -94t11.5 -78v-2h-173z" />
    <glyph glyph-name="tbar" unicode="&#x167;" horiz-adv-x="318" 
d="M116 -15q-90 0 -62 139l40 184h-45l4 18h45l28 131h-52v8l165 119h9l-23 -107h116l-4 -20h-116l-28 -131h123l-4 -18h-123l-39 -185q-16 -72 17 -72q22 0 48.5 22t45.5 49l10 -7q-71 -130 -155 -130z" />
    <glyph glyph-name="Utilde" unicode="&#x168;" horiz-adv-x="571" 
d="M256 -15q-103 0 -158 65.5t-32 192.5l58 315q10 60 9.5 93.5t-12.5 78.5v2h174v-2q-43 -67 -63 -172l-57 -312q-43 -236 102 -236q80 0 127.5 64.5t65.5 166.5l55 299q12 66 7 102t-31 88v2h141v-2q-45 -51 -62.5 -87.5t-29.5 -102.5l-56 -299q-10 -55 -26 -98t-43 -80.5
t-70 -57.5t-99 -20zM339 905q28 0 71 -20.5t71 -20.5q47 0 74 55l9 -2q-5 -25 -11 -42.5t-17.5 -39t-31.5 -32.5t-47 -11q-28 0 -71 20t-71 20q-25 0 -42.5 -12t-31.5 -43l-8 2q19 126 106 126z" />
    <glyph glyph-name="utilde" unicode="&#x169;" horiz-adv-x="470" 
d="M302 194q-93 -209 -203 -209q-46 0 -68.5 39.5t-3.5 108.5l54 204q18 57 13 90t-42 48v2h156l-86 -338q-10 -38 -1.5 -62.5t34.5 -24.5q38 0 81.5 66.5t96.5 198.5l14 54q12 31 5 60.5t-44 43.5v2h160l-87 -337q-12 -43 -14 -64.5t8 -37.5t37 -26v-2l-161 -19zM241 677
q23 0 63 -15.5t63 -15.5q47 0 60 46l9 -1q-5 -39 -28 -75.5t-63 -36.5q-22 0 -63.5 16t-66.5 16q-50 0 -63 -46l-9 1q3 37 28.5 74t69.5 37z" />
    <glyph glyph-name="Umacron" unicode="&#x16a;" horiz-adv-x="571" 
d="M256 -15q-103 0 -158 65.5t-32 192.5l58 315q10 60 9.5 93.5t-12.5 78.5v2h174v-2q-43 -67 -63 -172l-57 -312q-43 -236 102 -236q80 0 127.5 64.5t65.5 166.5l55 299q12 66 7 102t-31 88v2h141v-2q-45 -51 -62.5 -87.5t-29.5 -102.5l-56 -299q-10 -55 -26 -98t-43 -80.5
t-70 -57.5t-99 -20zM267 883h271l-10 -50h-271z" />
    <glyph glyph-name="umacron" unicode="&#x16b;" horiz-adv-x="470" 
d="M302 194q-93 -209 -203 -209q-46 0 -68.5 39.5t-3.5 108.5l54 204q18 57 13 90t-42 48v2h156l-86 -338q-10 -38 -1.5 -62.5t34.5 -24.5q38 0 81.5 66.5t96.5 198.5l14 54q12 31 5 60.5t-44 43.5v2h160l-87 -337q-12 -43 -14 -64.5t8 -37.5t37 -26v-2l-161 -19zM173 645
h244l-10 -49h-243z" />
    <glyph glyph-name="Ubreve" unicode="&#x16c;" horiz-adv-x="571" 
d="M256 -15q-103 0 -158 65.5t-32 192.5l58 315q10 60 9.5 93.5t-12.5 78.5v2h174v-2q-43 -67 -63 -172l-57 -312q-43 -236 102 -236q80 0 127.5 64.5t65.5 166.5l55 299q12 66 7 102t-31 88v2h141v-2q-45 -51 -62.5 -87.5t-29.5 -102.5l-56 -299q-10 -55 -26 -98t-43 -80.5
t-70 -57.5t-99 -20zM410 865q88 0 118 77h9q-3 -23 -11.5 -45t-24 -45t-42 -37t-61.5 -14q-34 0 -58 14t-35.5 37t-15.5 45.5t-3 44.5h9q18 -77 115 -77z" />
    <glyph glyph-name="ubreve" unicode="&#x16d;" horiz-adv-x="470" 
d="M302 194q-93 -209 -203 -209q-46 0 -68.5 39.5t-3.5 108.5l54 204q18 57 13 90t-42 48v2h156l-86 -338q-10 -38 -1.5 -62.5t34.5 -24.5q38 0 81.5 66.5t96.5 198.5l14 54q12 31 5 60.5t-44 43.5v2h160l-87 -337q-12 -43 -14 -64.5t8 -37.5t37 -26v-2l-161 -19zM295 631
q70 0 100 72h9q-5 -50 -32.5 -91t-82.5 -41t-78.5 42t-18.5 90h9q18 -72 94 -72z" />
    <glyph glyph-name="Uring" unicode="&#x16e;" horiz-adv-x="571" 
d="M256 -15q-103 0 -158 65.5t-32 192.5l58 315q10 60 9.5 93.5t-12.5 78.5v2h174v-2q-43 -67 -63 -172l-57 -312q-43 -236 102 -236q80 0 127.5 64.5t65.5 166.5l55 299q12 66 7 102t-31 88v2h141v-2q-45 -51 -62.5 -87.5t-29.5 -102.5l-56 -299q-10 -55 -26 -98t-43 -80.5
t-70 -57.5t-99 -20zM322 857q0 38 25.5 62t64.5 24t64.5 -24t25.5 -62t-25.5 -61.5t-64.5 -23.5t-64.5 23.5t-25.5 61.5zM361 857q0 -31 13.5 -48.5t37.5 -17.5t37.5 17.5t13.5 48.5t-13.5 49.5t-37.5 18.5t-37.5 -18.5t-13.5 -49.5z" />
    <glyph glyph-name="uring" unicode="&#x16f;" horiz-adv-x="470" 
d="M302 194q-93 -209 -203 -209q-46 0 -68.5 39.5t-3.5 108.5l54 204q18 57 13 90t-42 48v2h156l-86 -338q-10 -38 -1.5 -62.5t34.5 -24.5q38 0 81.5 66.5t96.5 198.5l14 54q12 31 5 60.5t-44 43.5v2h160l-87 -337q-12 -43 -14 -64.5t8 -37.5t37 -26v-2l-161 -19zM204 652
q0 38 25.5 62t64.5 24t64.5 -24t25.5 -62t-25.5 -61.5t-64.5 -23.5t-64.5 23.5t-25.5 61.5zM243 652q0 -66 51 -66t51 66q0 31 -13.5 49.5t-37.5 18.5t-37.5 -18.5t-13.5 -49.5z" />
    <glyph glyph-name="Uhungarumlaut" unicode="&#x170;" horiz-adv-x="571" 
d="M256 -15q-103 0 -158 65.5t-32 192.5l58 315q10 60 9.5 93.5t-12.5 78.5v2h174v-2q-43 -67 -63 -172l-57 -312q-43 -236 102 -236q80 0 127.5 64.5t65.5 166.5l55 299q12 66 7 102t-31 88v2h141v-2q-45 -51 -62.5 -87.5t-29.5 -102.5l-56 -299q-10 -55 -26 -98t-43 -80.5
t-70 -57.5t-99 -20zM567 949l51 -63l-168 -104l-8 10zM400 949l51 -63l-168 -104l-7 10z" />
    <glyph glyph-name="uhungarumlaut" unicode="&#x171;" horiz-adv-x="470" 
d="M302 194q-93 -209 -203 -209q-46 0 -68.5 39.5t-3.5 108.5l54 204q18 57 13 90t-42 48v2h156l-86 -338q-10 -38 -1.5 -62.5t34.5 -24.5q38 0 81.5 66.5t96.5 198.5l14 54q12 31 5 60.5t-44 43.5v2h160l-87 -337q-12 -43 -14 -64.5t8 -37.5t37 -26v-2l-161 -19zM431 729
l56 -54l-142 -124l-10 9zM287 729l56 -54l-142 -124l-9 9z" />
    <glyph glyph-name="Uogonek" unicode="&#x172;" horiz-adv-x="571" 
d="M217 -248q-35 0 -54.5 19.5t-19.5 55.5q0 48 35 90.5t89 67.5h-11q-103 0 -158 65.5t-32 192.5l58 315q10 60 9.5 93.5t-12.5 78.5v2h174v-2q-43 -67 -63 -172l-57 -312q-43 -236 102 -236q80 0 127.5 64.5t65.5 166.5l55 299q12 66 7 102t-31 88v2h141v-2
q-45 -51 -62.5 -87.5t-29.5 -102.5l-56 -299q-30 -158 -112 -219q-9 -7 -75 -38q-85 -41 -85 -119q0 -51 46 -51q38 0 71 46l8 -7q-53 -101 -130 -101z" />
    <glyph glyph-name="uogonek" unicode="&#x173;" horiz-adv-x="470" 
d="M196 -248q-34 0 -53.5 19t-19.5 54q0 47 35.5 92t93.5 75l51 204q-42 -95 -94 -153t-110 -58q-46 0 -68.5 39.5t-3.5 108.5l54 204q18 57 13 90t-42 48v2h156l-86 -338q-10 -38 -1.5 -62.5t34.5 -24.5q73 0 179 266l13 53q12 31 5 60.5t-44 43.5v2h160l-87 -337
q-12 -43 -14 -64.5t8 -37.5t37 -26v-2q-62 -6 -82 -10q-49 -10 -80 -36.5t-39.5 -51t-8.5 -48.5q0 -50 45 -50q37 0 72 46l8 -7q-53 -101 -131 -101z" />
    <glyph glyph-name="Wcircumflex" unicode="&#x174;" horiz-adv-x="816" 
d="M190 -8l-63 575q-12 102 -46 163v2h181v-2q-35 -58 -24 -164l42 -398l166 363l-3 36q-8 93 -45 163v2h181v-2q-36 -42 -25 -164l34 -402l172 361q62 132 37 205v2h114v-2q-61 -65 -107 -164l-275 -574h-32l-47 496l-229 -496h-31zM528 855l-153 -73l-6 10l167 153h6
l108 -153l-9 -10z" />
    <glyph glyph-name="wcircumflex" unicode="&#x175;" horiz-adv-x="570" 
d="M79 344q-2 53 -11 80.5t-30 50.5v2h134l7 -320l124 207q-3 66 -45 111v2h138l4 -315l64 113q48 81 52 129t-29 71v2h123v-2l-285 -485h-15l-6 333l-198 -333h-16zM357 626l-139 -86l-6 10l156 169h5l91 -169l-10 -10z" />
    <glyph glyph-name="Ycircumflex" unicode="&#x176;" horiz-adv-x="484" 
d="M114 2q26 38 37.5 67.5t21.5 80.5l33 187l-65 256q-28 97 -66 137v2h194v-2q-18 -16 -22.5 -52.5t5.5 -76.5l58 -231l101 169q72 113 45 191v2h126v-2q-37 -33 -62.5 -67t-70.5 -103l-137 -227l-31 -183q-10 -51 -8 -80.5t16 -67.5l-1 -2h-174v2zM378 855l-153 -73l-6 10
l167 153h6l108 -153l-9 -10z" />
    <glyph glyph-name="ycircumflex" unicode="&#x177;" horiz-adv-x="368" 
d="M-84 -125q128 -12 189 101l9 16l-35 352q-6 59 -15 84.5t-34 46.5v2h133l31 -339l75 137q33 60 45.5 96.5t5.5 62t-36 41.5v2h128v-2l-309 -543q-47 -84 -98 -117t-113 -40zM263 626l-139 -86l-6 10l156 169h5l91 -169l-10 -10z" />
    <glyph glyph-name="Ydieresis" unicode="&#x178;" horiz-adv-x="484" 
d="M114 2q26 38 37.5 67.5t21.5 80.5l33 187l-65 256q-28 97 -66 137v2h194v-2q-18 -16 -22.5 -52.5t5.5 -76.5l58 -231l101 169q72 113 45 191v2h126v-2q-37 -33 -62.5 -67t-70.5 -103l-137 -227l-31 -183q-10 -51 -8 -80.5t16 -67.5l-1 -2h-174v2zM521 868
q0 -24 -17 -41.5t-42 -17.5q-24 0 -41.5 17.5t-17.5 41.5q0 25 17.5 42.5t41.5 17.5q25 0 42 -17.5t17 -42.5zM341 868q0 -24 -17.5 -41.5t-41.5 -17.5q-25 0 -42 17.5t-17 41.5q0 25 17 42.5t42 17.5q24 0 41.5 -17.5t17.5 -42.5z" />
    <glyph glyph-name="Zacute" unicode="&#x179;" horiz-adv-x="512" 
d="M-27 0v11l472 705l-96 -3q-80 -3 -138.5 -51.5t-111.5 -126.5l-10 4l70 193h410v-11l-470 -705l118 3q57 2 109 34.5t85.5 73t70.5 99.5l10 -4l-83 -222h-436zM471 959l43 -78l-240 -99l-6 10z" />
    <glyph glyph-name="zacute" unicode="&#x17a;" horiz-adv-x="393" 
d="M-28 0v7l332 453l-97 -4q-51 -3 -152 -98l-4 2l49 117h315v-8l-331 -452l109 2q27 0 58.5 17.5t53.5 37t56 53.5l4 -2l-55 -125h-338zM343 749l55 -64l-202 -134l-7 8z" />
    <glyph glyph-name="Zdotaccent" unicode="&#x17b;" horiz-adv-x="512" 
d="M-27 0v11l472 705l-96 -3q-80 -3 -138.5 -51.5t-111.5 -126.5l-10 4l70 193h410v-11l-470 -705l118 3q57 2 109 34.5t85.5 73t70.5 99.5l10 -4l-83 -222h-436zM417 868q0 -24 -17.5 -41.5t-41.5 -17.5q-25 0 -42.5 17.5t-17.5 41.5q0 25 17.5 42.5t42.5 17.5
q24 0 41.5 -17.5t17.5 -42.5z" />
    <glyph glyph-name="zdotaccent" unicode="&#x17c;" horiz-adv-x="393" 
d="M-28 0v7l332 453l-97 -4q-51 -3 -152 -98l-4 2l49 117h315v-8l-331 -452l109 2q27 0 58.5 17.5t53.5 37t56 53.5l4 -2l-55 -125h-338zM324 658q0 -24 -17.5 -41.5t-41.5 -17.5q-25 0 -42 17.5t-17 41.5q0 25 17 42.5t42 17.5q24 0 41.5 -17.5t17.5 -42.5z" />
    <glyph glyph-name="Zcaron" unicode="&#x17d;" horiz-adv-x="512" 
d="M-27 0v11l472 705l-96 -3q-80 -3 -138.5 -51.5t-111.5 -126.5l-10 4l70 193h410v-11l-470 -705l118 3q57 2 109 34.5t85.5 73t70.5 99.5l10 -4l-83 -222h-436zM341 782l-108 153l9 10l113 -73l153 73l6 -10l-167 -153h-6z" />
    <glyph glyph-name="zcaron" unicode="&#x17e;" horiz-adv-x="393" 
d="M-28 0v7l332 453l-97 -4q-51 -3 -152 -98l-4 2l49 117h315v-8l-331 -452l109 2q27 0 58.5 17.5t53.5 37t56 53.5l4 -2l-55 -125h-338zM245 540l-91 169l10 10l97 -86l139 86l6 -10l-156 -169h-5z" />
    <glyph glyph-name="uni0192" unicode="&#x192;" horiz-adv-x="461" 
d="M-21 -190q-42 0 -62 10l-11 153l10 2q9 -19 23 -47t20.5 -41.5t15.5 -29t16 -21.5t14 -6q18 0 39.5 50.5t59.5 182.5l88 304h-82l7 20h81l19 65q43 150 101.5 222.5t137.5 72.5q43 0 63 -10l11 -153l-10 -2q-11 21 -23.5 47t-20 41t-15.5 29.5t-15 21t-15 6.5
q-19 0 -39.5 -49t-59.5 -184l-31 -107h108l-6 -20h-108l-76 -262q-45 -151 -103 -223t-137 -72z" />
    <glyph glyph-name="Aringacute" unicode="&#x1fa;" horiz-adv-x="519" 
d="M273 568l-128 -272h160zM80 0h-125v2q34 34 56.5 69.5t50.5 96.5l270 571h29l71 -583q14 -102 46 -154v-2h-177v2q33 46 20 159l-13 115h-172l-31 -66q-24 -50 -33 -93.5t-6 -70.5t14 -44v-2zM264 867q0 38 25.5 62t64.5 24t64.5 -24t25.5 -62t-25.5 -61.5t-64.5 -23.5
t-64.5 23.5t-25.5 61.5zM303 867q0 -31 13.5 -48.5t37.5 -17.5t37.5 17.5t13.5 48.5t-13.5 49.5t-37.5 18.5t-37.5 -18.5t-13.5 -49.5zM458 1140l43 -78l-240 -99l-6 10z" />
    <glyph glyph-name="aringacute" unicode="&#x1fb;" horiz-adv-x="464" 
d="M302 193q-90 -208 -190 -208q-45 0 -71 38.5t-26 106.5q0 84 38 166t112 139t163 57q56 0 92 -16l39 16h7l-91 -352q-18 -57 -12.5 -85t43.5 -43v-2l-156 -19zM161 58q21 0 43.5 20t43.5 57t37.5 71.5t35.5 81.5l41 153q-12 28 -51 28q-54 0 -100.5 -55t-70.5 -128.5
t-24 -139.5q0 -88 45 -88zM227 652q0 38 25.5 62t64.5 24t64.5 -24t25.5 -62t-25.5 -61.5t-64.5 -23.5t-64.5 23.5t-25.5 61.5zM266 652q0 -66 51 -66t51 66q0 31 -13.5 49.5t-37.5 18.5t-37.5 -18.5t-13.5 -49.5zM441 938l43 -78l-240 -99l-6 10z" />
    <glyph glyph-name="AEacute" unicode="&#x1fc;" horiz-adv-x="814" 
d="M433 571q8 49 9 64l-226 -339h167zM83 0h-122v2q72 62 142 166l338 504q-4 34 -30 58v2h385l12 -172l-10 -2q-75 149 -119 153l-111 5l-61 -337h54q10 0 22 5.5t21 12t22 19.5t20 20.5t20 23t16 19.5h10l-39 -217h-10q-2 4 -11.5 22.5t-15 27.5t-15 22t-20.5 19t-23 6
h-54l-62 -343l131 5q31 1 71 32t66 60.5t66 80.5l10 -3l-70 -191h-416v2q47 93 58 160l21 114h-176l-45 -67q-53 -85 -69.5 -129.5t-5.5 -77.5v-2zM726 959l43 -78l-240 -99l-6 10z" />
    <glyph glyph-name="aeacute" unicode="&#x1fd;" horiz-adv-x="673" 
d="M298 177q-89 -192 -187 -192q-43 0 -69.5 39t-26.5 106q0 83 38.5 166t109.5 139.5t153 56.5q78 0 117 -52q70 52 141 52q40 0 72.5 -16t32.5 -55q0 -50 -63 -82.5t-200 -34.5q-14 -53 -14 -106q0 -136 95 -136q73 0 118 78l4 -5q-26 -71 -72.5 -109t-106.5 -38
q-65 0 -103.5 45t-38.5 127v17zM161 58q67 0 161 229q18 45 45 84q-1 55 -14 76.5t-41 21.5q-52 0 -99 -54.5t-72 -129t-25 -139.5q0 -88 45 -88zM564 474q-42 0 -82.5 -45t-62.5 -115q103 18 142.5 53t39.5 70q0 37 -37 37zM523 749l55 -64l-202 -134l-7 8z" />
    <glyph glyph-name="Oslashacute" unicode="&#x1fe;" horiz-adv-x="675" 
d="M156 236q0 -74 14 -116l368 520q-36 87 -120 87q-77 0 -139 -77.5t-92.5 -188.5t-30.5 -225zM298 5q78 0 140 77.5t92.5 188.5t30.5 225q0 64 -14 118l-369 -521q36 -88 120 -88zM293 -15q-90 0 -153 54l-48 -68h-28l59 84q-80 83 -80 229q0 118 52.5 225t140.5 172.5
t187 65.5q91 0 152 -54l49 69h28l-60 -84q82 -84 82 -230q0 -118 -52.5 -225t-141 -172.5t-187.5 -65.5zM556 959l43 -78l-240 -99l-6 10z" />
    <glyph glyph-name="oslashacute" unicode="&#x1ff;" horiz-adv-x="442" 
d="M427 311q0 -79 -38.5 -155.5t-99.5 -123.5t-122 -47t-98 33l-64 -85h-27l76 101q-39 46 -39 131q0 80 38.5 156.5t99.5 123.5t122 47q59 0 98 -33l64 85h27l-76 -101q39 -49 39 -132zM110 108l219 293q-11 73 -56 73q-43 0 -81 -49t-60 -131t-22 -174v-12zM332 368
l-219 -292q11 -73 57 -73q63 0 112.5 107t49.5 247v11zM367 749l55 -64l-202 -134l-7 8z" />
    <glyph glyph-name="uni0218" unicode="&#x218;" horiz-adv-x="463" 
d="M463 538l-10 -2q-41 108 -74.5 149t-75.5 41q-48 0 -79 -35.5t-31 -88.5q0 -13 1.5 -25.5t6.5 -24.5t8.5 -21t13 -21t14 -18.5t17.5 -19.5l17 -17t20 -19t19 -18q56 -50 86.5 -99.5t30.5 -120.5q0 -102 -65 -157.5t-169 -55.5q-97 0 -157 31l-8 202l10 2
q43 -112 84.5 -163.5t96.5 -51.5q57 0 87 42.5t30 104.5q0 13 -2 25t-4 21.5t-8.5 21.5t-9 18.5t-12.5 19t-13 16.5t-16 17t-15.5 15t-17.5 16.5t-16 15.5q-31 29 -43 42t-33 40.5t-29 56.5t-8 65q0 95 63 150t155 55q71 0 133 -26zM106 -239q29 21 47 46.5t18 43.5
q0 24 -27 57v2l79 51q28 -21 28 -55q0 -41 -44 -82t-98 -68z" />
    <glyph glyph-name="uni0219" unicode="&#x219;" horiz-adv-x="331" 
d="M310 348l-6 -2q-36 74 -58.5 101t-54.5 27q-29 0 -45.5 -20t-16.5 -49q0 -27 16.5 -50.5t40.5 -43.5t48 -41.5t40.5 -54.5t16.5 -73q0 -73 -46.5 -115t-117.5 -42q-73 0 -116 28l-5 142l6 2q37 -82 69 -118t68 -36q30 0 50 22t20 60q0 31 -16.5 57t-39.5 46.5t-46.5 41.5
t-40 52.5t-16.5 69.5q0 68 44 104t110 36q59 0 97 -15zM26 -239q29 21 47 46.5t18 43.5q0 24 -27 57v2l79 51q28 -21 28 -55q0 -41 -44 -82t-98 -68z" />
    <glyph glyph-name="uni021A" unicode="&#x21a;" horiz-adv-x="591" 
d="M165 0v2q28 47 41 81t22 91l98 542l-82 -4q-8 -1 -18 -6.5t-22.5 -17.5t-23.5 -23.5t-26.5 -31t-25.5 -32t-26.5 -34.5t-24.5 -32l-10 4l65 193h499l-5 -195l-9 -2q-49 121 -68 150q-18 27 -34 27l-81 3l-97 -541q-10 -64 -10.5 -94t11.5 -78v-2h-173zM143 -239
q29 21 47 46.5t18 43.5q0 24 -27 57v2l79 51q28 -21 28 -55q0 -41 -44 -82t-98 -68z" />
    <glyph glyph-name="uni021B" unicode="&#x21b;" horiz-adv-x="318" 
d="M116 -15q-90 0 -62 139l72 333h-52v8l165 119h9l-23 -107h116l-4 -20h-116l-71 -334q-16 -72 17 -72q22 0 48.5 22t45.5 49l10 -7q-71 -130 -155 -130zM22 -239q29 21 47 46.5t18 43.5q0 24 -27 57v2l79 51q28 -21 28 -55q0 -41 -44 -82t-98 -68z" />
    <glyph glyph-name="uni0237" unicode="&#x237;" horiz-adv-x="209" 
d="M-96 -209q72 40 93 140l79 367q24 111 -22 147v2l158 50l-110 -498q-22 -97 -75 -151t-122 -63z" />
    <glyph glyph-name="circumflex" unicode="&#x2c6;" horiz-adv-x="306" 
d="M228 626l-139 -86l-6 10l156 169h5l91 -169l-10 -10z" />
    <glyph glyph-name="caron" unicode="&#x2c7;" horiz-adv-x="300" 
d="M191 540l-91 169l10 10l97 -86l139 86l6 -10l-156 -169h-5z" />
    <glyph glyph-name="breve" unicode="&#x2d8;" horiz-adv-x="306" 
d="M228 631q70 0 100 72h9q-3 -30 -13 -57.5t-37 -51t-65 -23.5q-55 0 -78.5 42t-18.5 90h9q18 -72 94 -72z" />
    <glyph glyph-name="dotaccent" unicode="&#x2d9;" horiz-adv-x="306" 
d="M286 658q0 -24 -17.5 -41.5t-41.5 -17.5q-25 0 -42 17.5t-17 41.5q0 25 17 42.5t42 17.5q24 0 41.5 -17.5t17.5 -42.5z" />
    <glyph glyph-name="ring" unicode="&#x2da;" horiz-adv-x="300" 
d="M140 652q0 38 25.5 62t64.5 24t64.5 -24t25.5 -62t-25.5 -61.5t-64.5 -23.5t-64.5 23.5t-25.5 61.5zM179 652q0 -66 51 -66t51 66q0 31 -13.5 49.5t-37.5 18.5t-37.5 -18.5t-13.5 -49.5z" />
    <glyph glyph-name="ogonek" unicode="&#x2db;" horiz-adv-x="300" 
d="M168 1q-51 -27 -72 -65t-21 -72q0 -50 45 -50q37 0 72 46l8 -7q-54 -101 -130 -101q-35 0 -54.5 19t-19.5 54q0 49 41 97.5t105 78.5h26z" />
    <glyph glyph-name="tilde" unicode="&#x2dc;" horiz-adv-x="306" 
d="M178 677q23 0 63 -15.5t63 -15.5q47 0 60 46l9 -1q-5 -39 -28 -75.5t-63 -36.5q-22 0 -63.5 16t-66.5 16q-50 0 -63 -46l-9 1q3 37 28.5 74t69.5 37z" />
    <glyph glyph-name="hungarumlaut" unicode="&#x2dd;" horiz-adv-x="306" 
d="M319 729l56 -54l-142 -124l-10 9zM175 729l56 -54l-142 -124l-9 9z" />
    <glyph glyph-name="Wgrave" unicode="&#x1e80;" horiz-adv-x="816" 
d="M190 -8l-63 575q-12 102 -46 163v2h181v-2q-35 -58 -24 -164l42 -398l166 363l-3 36q-8 93 -45 163v2h181v-2q-36 -42 -25 -164l34 -402l172 361q62 132 37 205v2h114v-2q-61 -65 -107 -164l-275 -574h-32l-47 496l-229 -496h-31zM591 782l-204 98l55 79l156 -167z" />
    <glyph glyph-name="wgrave" unicode="&#x1e81;" horiz-adv-x="570" 
d="M79 344q-2 53 -11 80.5t-30 50.5v2h134l7 -320l124 207q-3 66 -45 111v2h138l4 -315l64 113q48 81 52 129t-29 71v2h123v-2l-285 -485h-15l-6 333l-198 -333h-16zM399 542l-155 158l71 49l95 -200z" />
    <glyph glyph-name="Wacute" unicode="&#x1e82;" horiz-adv-x="816" 
d="M190 -8l-63 575q-12 102 -46 163v2h181v-2q-35 -58 -24 -164l42 -398l166 363l-3 36q-8 93 -45 163v2h181v-2q-36 -42 -25 -164l34 -402l172 361q62 132 37 205v2h114v-2q-61 -65 -107 -164l-275 -574h-32l-47 496l-229 -496h-31zM590 959l43 -78l-240 -99l-6 10z" />
    <glyph glyph-name="wacute" unicode="&#x1e83;" horiz-adv-x="570" 
d="M79 344q-2 53 -11 80.5t-30 50.5v2h134l7 -320l124 207q-3 66 -45 111v2h138l4 -315l64 113q48 81 52 129t-29 71v2h123v-2l-285 -485h-15l-6 333l-198 -333h-16zM432 749l55 -64l-202 -134l-7 8z" />
    <glyph glyph-name="Wdieresis" unicode="&#x1e84;" horiz-adv-x="816" 
d="M190 -8l-63 575q-12 102 -46 163v2h181v-2q-35 -58 -24 -164l42 -398l166 363l-3 36q-8 93 -45 163v2h181v-2q-36 -42 -25 -164l34 -402l172 361q62 132 37 205v2h114v-2q-61 -65 -107 -164l-275 -574h-32l-47 496l-229 -496h-31zM660 868q0 -24 -17 -41.5t-42 -17.5
q-24 0 -41.5 17.5t-17.5 41.5q0 25 17.5 42.5t41.5 17.5q25 0 42 -17.5t17 -42.5zM480 868q0 -24 -17.5 -41.5t-41.5 -17.5q-25 0 -42 17.5t-17 41.5q0 25 17 42.5t42 17.5q24 0 41.5 -17.5t17.5 -42.5z" />
    <glyph glyph-name="wdieresis" unicode="&#x1e85;" horiz-adv-x="570" 
d="M79 344q-2 53 -11 80.5t-30 50.5v2h134l7 -320l124 207q-3 66 -45 111v2h138l4 -315l64 113q48 81 52 129t-29 71v2h123v-2l-285 -485h-15l-6 333l-198 -333h-16zM320 658q0 -24 -17.5 -41.5t-41.5 -17.5q-25 0 -42 17.5t-17 41.5q0 25 17 42.5t42 17.5q24 0 41.5 -17.5
t17.5 -42.5zM500 658q0 -24 -17.5 -41.5t-42.5 -17.5q-24 0 -41.5 17.5t-17.5 41.5q0 25 17.5 42.5t41.5 17.5q25 0 42.5 -17.5t17.5 -42.5z" />
    <glyph glyph-name="Ygrave" unicode="&#x1ef2;" horiz-adv-x="484" 
d="M114 2q26 38 37.5 67.5t21.5 80.5l33 187l-65 256q-28 97 -66 137v2h194v-2q-18 -16 -22.5 -52.5t5.5 -76.5l58 -231l101 169q72 113 45 191v2h126v-2q-37 -33 -62.5 -67t-70.5 -103l-137 -227l-31 -183q-10 -51 -8 -80.5t16 -67.5l-1 -2h-174v2zM442 782l-204 98l55 79
l156 -167z" />
    <glyph glyph-name="ygrave" unicode="&#x1ef3;" horiz-adv-x="368" 
d="M-84 -125q128 -12 189 101l9 16l-35 352q-6 59 -15 84.5t-34 46.5v2h133l31 -339l75 137q33 60 45.5 96.5t5.5 62t-36 41.5v2h128v-2l-309 -543q-47 -84 -98 -117t-113 -40zM304 542l-155 158l71 49l95 -200z" />
    <glyph glyph-name="uni2009" unicode="&#x2009;" horiz-adv-x="81" 
 />
    <glyph glyph-name="endash" unicode="&#x2013;" horiz-adv-x="498" 
d="M40 263l4 19h434l-5 -19h-433z" />
    <glyph glyph-name="emdash" unicode="&#x2014;" horiz-adv-x="747" 
d="M40 263l4 19h683l-5 -19h-682z" />
    <glyph glyph-name="quoteleft" unicode="&#x2018;" horiz-adv-x="251" 
d="M286 749q-35 -26 -56.5 -56.5t-21.5 -53.5q0 -27 33 -68v-2l-96 -62q-33 25 -33 65q0 50 53.5 101.5t116.5 81.5z" />
    <glyph glyph-name="quoteright" unicode="&#x2019;" horiz-adv-x="251" 
d="M93 513q35 26 56.5 56.5t21.5 53.5q0 27 -33 68v2l96 62q33 -25 33 -65q0 -50 -53.5 -101.5t-116.5 -81.5z" />
    <glyph glyph-name="quotesinglbase" unicode="&#x201a;" horiz-adv-x="251" 
d="M-4 -89q35 26 56.5 56.5t21.5 53.5q0 27 -33 68v2l96 62q33 -25 33 -65q0 -50 -53.5 -101.5t-116.5 -81.5z" />
    <glyph glyph-name="quotedblleft" unicode="&#x201c;" horiz-adv-x="415" 
d="M449 749q-35 -26 -56.5 -56.5t-21.5 -53.5q0 -27 33 -68v-2l-96 -62q-33 25 -33 65q0 50 53.5 101.5t116.5 81.5zM285 749q-35 -26 -56.5 -56.5t-21.5 -53.5q0 -27 33 -68v-2l-96 -62q-33 25 -33 65q0 50 53.5 101.5t116.5 81.5z" />
    <glyph glyph-name="quotedblright" unicode="&#x201d;" horiz-adv-x="415" 
d="M93 513q35 26 56.5 56.5t21.5 53.5q0 27 -33 68v2l96 62q33 -25 33 -65q0 -50 -53.5 -101.5t-116.5 -81.5zM257 513q35 26 56.5 56.5t21.5 53.5q0 27 -33 68v2l96 62q33 -25 33 -65q0 -50 -53.5 -101.5t-116.5 -81.5z" />
    <glyph glyph-name="quotedblbase" unicode="&#x201e;" horiz-adv-x="415" 
d="M-4 -89q35 26 56.5 56.5t21.5 53.5q0 27 -33 68v2l96 62q33 -25 33 -65q0 -50 -53.5 -101.5t-116.5 -81.5zM160 -89q35 26 56.5 56.5t21.5 53.5q0 27 -33 68v2l96 62q33 -25 33 -65q0 -50 -53.5 -101.5t-116.5 -81.5z" />
    <glyph glyph-name="dagger" unicode="&#x2020;" horiz-adv-x="388" 
d="M127 0h-18l11 273l98 240l-180 -45l24 112l160 -45l-6 197h121l-95 -197l175 45l-24 -112l-156 46l-6 -253z" />
    <glyph glyph-name="daggerdbl" unicode="&#x2021;" horiz-adv-x="388" 
d="M174 197l6 -197h-121l94 197l-174 -45l23 112l155 -45l-12 156l71 138l-178 -45l24 112l160 -45l-6 197h121l-95 -197l175 45l-24 -112l-155 45l8 -154l-67 -140l178 45l-23 -112z" />
    <glyph glyph-name="bullet" unicode="&#x2022;" horiz-adv-x="327" 
d="M173 195q-38 0 -64 26.5t-26 63.5q0 39 26 65.5t64 26.5q37 0 64 -27t27 -65q0 -36 -27.5 -63t-63.5 -27z" />
    <glyph glyph-name="ellipsis" unicode="&#x2026;" horiz-adv-x="752" 
d="M102 -5q-27 0 -46.5 20t-19.5 46q0 29 19.5 48t46.5 19t46.5 -19t19.5 -48q0 -26 -20 -46t-46 -20zM351 -5q-27 0 -46.5 20t-19.5 46q0 29 19.5 48t46.5 19t46.5 -19t19.5 -48q0 -26 -20 -46t-46 -20zM600 -5q-27 0 -46.5 20t-19.5 46q0 29 19.5 48t46.5 19t46.5 -19
t19.5 -48q0 -26 -20 -46t-46 -20z" />
    <glyph glyph-name="perthousand" unicode="&#x2030;" horiz-adv-x="973" 
d="M365 600q0 -104 -58.5 -179t-130.5 -75q-49 0 -78 40.5t-29 106.5q0 104 59 179t131 75q48 0 77 -40.5t29 -106.5zM178 361q29 0 56 55.5t41 126t14 126.5q0 63 -33 63q-42 0 -76 -108.5t-34 -199.5q0 -63 32 -63zM81 15l520 728l18 -12l-522 -730zM637 246
q0 -104 -58.5 -179t-130.5 -75q-49 0 -78 40.5t-29 106.5q0 104 59 179t131 75q48 0 77 -40.5t29 -106.5zM450 7q29 0 56 55.5t41 126t14 126.5q0 63 -33 63q-42 0 -76 -108.5t-34 -199.5q0 -63 32 -63zM961 246q0 -104 -58.5 -179t-130.5 -75q-49 0 -78 40.5t-29 106.5
q0 104 59 179t131 75q48 0 77 -40.5t29 -106.5zM774 7q29 0 56 55.5t41 126t14 126.5q0 63 -33 63q-42 0 -76 -108.5t-34 -199.5q0 -63 32 -63z" />
    <glyph glyph-name="guilsinglleft" unicode="&#x2039;" horiz-adv-x="268" 
d="M172 52l-115 175l5 20l189 175l6 -6l-130 -186l52 -175z" />
    <glyph glyph-name="guilsinglright" unicode="&#x203a;" horiz-adv-x="268" 
d="M100 422l115 -175l-5 -20l-189 -175l-6 6l130 186l-52 175z" />
    <glyph glyph-name="fraction" unicode="&#x2044;" horiz-adv-x="283" 
d="M-108 15l520 728l18 -12l-522 -730z" />
    <glyph glyph-name="Euro" unicode="&#x20ac;" horiz-adv-x="662" 
d="M565 47q-22 -19 -86 -40.5t-124 -21.5q-127 0 -196 85.5t-69 220.5h-90l4 20h86q6 74 17 110h-80l5 20h80q40 134 144.5 220t235.5 86q89 0 158 -31l10 -179l-10 -2q-49 107 -88.5 149.5t-95.5 42.5q-85 0 -148.5 -81t-93.5 -205h206l-5 -20h-206q-10 -54 -15 -110h198
l-4 -20h-195q-1 -5 -1 -16v-16q0 -122 40.5 -188t114.5 -66q14 0 28 3.5t26 8t26.5 15t24 17.5t24.5 23t22.5 24.5t23.5 28.5t22.5 28.5t23.5 32t23 30.5l10 -3z" />
    <glyph glyph-name="trademark" unicode="&#x2122;" horiz-adv-x="659" 
d="M86 403v2q19 30 28 76l43 237l-26 -1q-19 0 -83 -77l-7 2l30 90h245l-3 -91l-7 -1q-36 77 -53 77l-28 1l-41 -237q-7 -53 0 -76v-2h-98zM359 403h-65v2q29 38 38 83l30 171q5 28 2 41.5t-17 29.5v2h91l35 -209l111 209h98v-2q-21 -16 -29.5 -29.5t-13.5 -42.5l-32 -177
q-10 -44 0 -76v-2h-97v2q20 33 28 76l34 190l-137 -259h-10l-44 260l-32 -184q-10 -44 10 -83v-2z" />
    <glyph glyph-name="onethird" unicode="&#x2153;" horiz-adv-x="639" 
d="M201 462q-10 -62 0 -107v-1h-120v1q27 41 41 107l39 195h-37l2 6q59 26 125 82h6zM61 15l520 728l18 -12l-522 -730zM425 -7q-53 0 -73 13l-8 102l5 1q23 -55 40 -78.5t41 -23.5q31 0 50 39.5t19 90.5q0 77 -45 77q-24 0 -52 -23l-5 6l135 118h-137l36 67h192l-1 -6
l-166 -147q11 4 27 4q42 0 70 -26t28 -74q0 -59 -43.5 -99.5t-112.5 -40.5z" />
    <glyph glyph-name="twothirds" unicode="&#x2154;" horiz-adv-x="679" 
d="M44 354l2 8q116 116 157.5 184.5t41.5 132.5q0 53 -29 53q-25 0 -85 -85q-2 -3 -3.5 -5t-3.5 -5t-4 -5l-5 1l26 97q43 16 81 16q50 0 76.5 -23t26.5 -63q0 -57 -50 -111.5t-157 -126.5h88q27 0 45.5 12t41.5 38l3 -1l-43 -117h-209zM101 15l520 728l18 -12l-522 -730z
M465 -7q-53 0 -73 13l-8 102l5 1q23 -55 40 -78.5t41 -23.5q31 0 50 39.5t19 90.5q0 77 -45 77q-24 0 -52 -23l-5 6l135 118h-137l36 67h192l-1 -6l-166 -147q11 4 27 4q42 0 70 -26t28 -74q0 -59 -43.5 -99.5t-112.5 -40.5z" />
    <glyph glyph-name="oneeighth" unicode="&#x215b;" horiz-adv-x="635" 
d="M211 462q-10 -62 0 -107v-1h-120v1q27 41 41 107l39 195h-37l2 6q59 26 125 82h6zM61 15l520 728l18 -12l-522 -730zM441 -7q-48 0 -77.5 24.5t-29.5 66.5q0 36 23.5 63t71.5 38q-45 41 -45 91q0 51 36 83.5t87 32.5q44 0 68.5 -23t24.5 -59q0 -33 -21.5 -57t-62.5 -34
q30 -25 45 -48t15 -58q0 -55 -39.5 -87.5t-95.5 -32.5zM446 7q29 0 47 19t18 49q0 46 -61 92l-14 12q-52 -35 -52 -97q0 -34 16 -54.5t46 -20.5zM446 320q0 -49 62 -94q41 36 41 90q0 28 -13 45t-37 17t-38.5 -15t-14.5 -43z" />
    <glyph glyph-name="threeeighths" unicode="&#x215c;" horiz-adv-x="665" 
d="M146 347q-53 0 -73 13l-8 102l5 1q23 -55 40 -78.5t41 -23.5q31 0 50 39.5t19 90.5q0 77 -45 77q-24 0 -52 -23l-5 6l135 118h-137l36 67h192l-1 -6l-166 -147q11 4 27 4q42 0 70 -26t28 -74q0 -59 -43.5 -99.5t-112.5 -40.5zM91 15l520 728l18 -12l-522 -730zM471 -7
q-48 0 -77.5 24.5t-29.5 66.5q0 36 23.5 63t71.5 38q-45 41 -45 91q0 51 36 83.5t87 32.5q44 0 68.5 -23t24.5 -59q0 -33 -21.5 -57t-62.5 -34q30 -25 45 -48t15 -58q0 -55 -39.5 -87.5t-95.5 -32.5zM476 7q29 0 47 19t18 49q0 46 -61 92l-14 12q-52 -35 -52 -97
q0 -34 16 -54.5t46 -20.5zM476 320q0 -49 62 -94q41 36 41 90q0 28 -13 45t-37 17t-38.5 -15t-14.5 -43z" />
    <glyph glyph-name="fiveeighths" unicode="&#x215d;" horiz-adv-x="652" 
d="M133 347q-48 0 -70 13l-8 102l5 1q23 -53 40.5 -77.5t39.5 -24.5q31 0 50.5 41.5t19.5 95.5q0 81 -55 81q-27 0 -53 -17l-3 2l59 175h171l-24 -68h-155l-29 -87q22 13 61 13q47 0 78 -25.5t31 -79.5q0 -64 -47 -104.5t-111 -40.5zM78 15l520 728l18 -12l-522 -730z
M459 -7q-48 0 -77.5 24.5t-29.5 66.5q0 36 23.5 63t71.5 38q-45 41 -45 91q0 51 36 83.5t87 32.5q44 0 68.5 -23t24.5 -59q0 -33 -21.5 -57t-62.5 -34q30 -25 45 -48t15 -58q0 -55 -39.5 -87.5t-95.5 -32.5zM464 7q29 0 47 19t18 49q0 46 -61 92l-14 12q-52 -35 -52 -97
q0 -34 16 -54.5t46 -20.5zM464 320q0 -49 62 -94q41 36 41 90q0 28 -13 45t-37 17t-38.5 -15t-14.5 -43z" />
    <glyph glyph-name="seveneighths" unicode="&#x215e;" horiz-adv-x="645" 
d="M83 354q72 154 216 311h-181l27 74h211v-5q-126 -197 -184 -380h-89zM71 15l520 728l18 -12l-522 -730zM451 -7q-48 0 -77.5 24.5t-29.5 66.5q0 36 23.5 63t71.5 38q-45 41 -45 91q0 51 36 83.5t87 32.5q44 0 68.5 -23t24.5 -59q0 -33 -21.5 -57t-62.5 -34q30 -25 45 -48
t15 -58q0 -55 -39.5 -87.5t-95.5 -32.5zM456 7q29 0 47 19t18 49q0 46 -61 92l-14 12q-52 -35 -52 -97q0 -34 16 -54.5t46 -20.5zM456 320q0 -49 62 -94q41 36 41 90q0 28 -13 45t-37 17t-38.5 -15t-14.5 -43z" />
    <glyph glyph-name="minus" unicode="&#x2212;" horiz-adv-x="532" 
d="M65 297v22h442v-22h-442z" />
    <glyph glyph-name="uni24C5" unicode="&#x24c5;" horiz-adv-x="834" 
d="M46 366q0 159 111 269.5t270 110.5t270.5 -110.5t111.5 -269.5t-111.5 -270t-270.5 -111t-270 111t-111 270zM72 366q0 -149 104 -254t251 -105q146 0 250 105t104 254t-103.5 253.5t-250.5 104.5t-251 -104.5t-104 -253.5zM300 156q22 37 22 95v208q0 56 -22 95v2h141
q82 0 118 -31t36 -80q0 -56 -42.5 -91.5t-118.5 -35.5h-39v-67q0 -57 22 -95v-3h-117v3zM432 539h-15q-13 0 -22 -1v-203h36q46 0 69 31.5t23 77.5q0 53 -24 74t-67 21z" />
    <glyph glyph-name="f.alt" unicode="&#xe4c5;" horiz-adv-x="262" 
d="M3 2q30 61 56 185l56 270h-63l5 20h63l15 74q24 104 82.5 165.5t128.5 61.5q27 0 57 -10l8 -115l-8 -2q-48 82 -65 97q-11 10 -21 10q-46 0 -80 -166l-24 -115h87l-4 -20h-88l-65 -307q-19 -94 -8 -148v-2h-132v2z" />
    <glyph glyph-name="k.alt" unicode="&#xe4ca;" horiz-adv-x="455" 
d="M-2 0v2q13 24 23 55.5t15 51.5t18 78l82 392q24 110 -21 147v2l158 50l-131 -628q-20 -96 -9 -148v-2h-135zM330 -10q-66 0 -111 102q-26 56 -52 156l137 129q18 17 27 27.5t17 23.5t7.5 24t-8.5 23v2h132v-2q-77 -32 -147 -102l-85 -79q21 -86 49 -146q23 -50 42 -66.5
t36 -16.5q24 0 38 21l3 -2q-11 -44 -33.5 -69t-51.5 -25z" />
    <glyph glyph-name="v.alt" unicode="&#xe4d5;" horiz-adv-x="402" 
d="M131 140q-10 -56 -4.5 -73.5t28.5 -17.5q46 0 97 72q38 54 65 131.5t27 133.5q0 67 -41 89v2h117v-2q-17 -87 -58.5 -194.5t-97.5 -184.5q-80 -111 -165 -111q-96 0 -61 154l44 201q14 58 10 89t-36 46v2h151z" />
    <glyph glyph-name="w.alt" unicode="&#xe4d6;" horiz-adv-x="632" 
d="M340 -15q-91 0 -60 154l1 4l-25 -43q-74 -115 -158 -115q-95 0 -60 154l44 201q14 58 10 89t-36 46v2h152l-77 -337q-10 -55 -4.5 -72t25.5 -17q38 0 77 55q72 97 99 251q12 49 6 77t-36 41v2h149l-76 -337q-10 -56 -4 -73.5t28 -17.5q41 0 91 68q40 57 63.5 134
t23.5 135q0 67 -40 89v2h117v-2q-13 -79 -51.5 -183.5t-88.5 -182.5q-82 -124 -170 -124z" />
    <glyph glyph-name="x.alt" unicode="&#xe4d7;" horiz-adv-x="429" 
d="M173 175q-43 -94 -92.5 -139.5t-115.5 -45.5l23 81q51 0 97 30t74 94l11 24l-31 142q-11 49 -27 74.5t-46 39.5v2h147l39 -184l12 27q40 93 87 130t113 37l-22 -81q-28 0 -46.5 -2.5t-42 -12t-42.5 -32.5t-34 -59l-18 -40l31 -144q11 -49 27.5 -74.5t46.5 -39.5v-2h-147
l-40 184z" />
    <glyph glyph-name="y.alt" unicode="&#xe4d8;" horiz-adv-x="388" 
d="M-86 -135q35 -5 98 14t112 60q0 217 -41 403q-13 64 -26.5 91t-46.5 42l-1 2h148q18 -55 31 -136q21 -130 23 -281q111 201 111 326q0 65 -46 89v2h119v-2q-35 -198 -164 -427q-30 -49 -58.5 -86.5t-70.5 -79t-96 -69.5t-116 -39z" />
    <glyph glyph-name="z.alt" unicode="&#xe4d9;" horiz-adv-x="373" 
d="M-29 0l1 7l327 390l-161 -4q-35 -1 -83 -35l-4 2l58 117h287v-8l-325 -388l176 3q52 1 94 43l4 -2l-55 -125h-319z" />
    <glyph glyph-name="idotaccent" horiz-adv-x="221" 
d="M246 658q0 -24 -17 -41.5t-42 -17.5q-24 0 -41.5 17.5t-17.5 41.5q0 25 17.5 42.5t41.5 17.5q25 0 42 -17.5t17 -42.5zM1 2q6 10 11 20t9.5 23t7.5 22t7.5 27t6.5 26.5t7.5 32.5t7.5 34l24 111q22 112 -21 147v2l158 50l-66 -310q-27 -128 -16 -185v-2h-136v2z" />
    <glyph glyph-name="space_uni0326" horiz-adv-x="300" 
d="M1 -239q29 21 47 46.5t18 43.5q0 24 -27 57v2l79 51q28 -21 28 -55q0 -41 -44 -82t-98 -68z" />
    <glyph glyph-name="five.num" horiz-adv-x="264" 
d="M123 347q-48 0 -70 13l-8 102l5 1q23 -53 40.5 -77.5t39.5 -24.5q31 0 50.5 41.5t19.5 95.5q0 81 -55 81q-27 0 -53 -17l-3 2l59 175h171l-24 -68h-155l-29 -87q22 13 61 13q47 0 78 -25.5t31 -79.5q0 -64 -47 -104.5t-111 -40.5z" />
    <glyph glyph-name="zero.num" horiz-adv-x="336" 
d="M366 600q0 -104 -58.5 -179t-130.5 -75q-49 0 -78 40.5t-29 106.5q0 104 59 179t131 75q48 0 77 -40.5t29 -106.5zM179 361q29 0 56 55.5t41 126t14 126.5q0 63 -33 63q-42 0 -76 -108.5t-34 -199.5q0 -63 32 -63z" />
    <glyph glyph-name="one.num" horiz-adv-x="191" 
d="M170 462q-10 -62 0 -107v-1h-120v1q27 41 41 107l39 195h-37l2 6q59 26 125 82h6z" />
    <glyph glyph-name="two.num" horiz-adv-x="276" 
d="M34 354l2 8q116 116 157.5 184.5t41.5 132.5q0 53 -29 53q-25 0 -85 -85q-2 -3 -3.5 -5t-3.5 -5t-4 -5l-5 1l26 97q43 16 81 16q50 0 76.5 -23t26.5 -63q0 -57 -50 -111.5t-157 -126.5h88q27 0 45.5 12t41.5 38l3 -1l-43 -117h-209z" />
    <glyph glyph-name="three.num" horiz-adv-x="280" 
d="M136 347q-53 0 -73 13l-8 102l5 1q23 -55 40 -78.5t41 -23.5q31 0 50 39.5t19 90.5q0 77 -45 77q-24 0 -52 -23l-5 6l135 118h-137l36 67h192l-1 -6l-166 -147q11 4 27 4q42 0 70 -26t28 -74q0 -59 -43.5 -99.5t-112.5 -40.5z" />
    <glyph glyph-name="four.num" horiz-adv-x="289" 
d="M135 355q26 42 36 99h-126l1 6l191 279h97l-267 -268h108l21 100h84l-19 -100h36l-6 -17h-34q-10 -57 0 -99v-1h-122v1z" />
    <glyph glyph-name="six.num" horiz-adv-x="299" 
d="M168 346q-47 0 -72.5 32.5t-25.5 87.5q0 37 12.5 75.5t39.5 79t78 74.5t119 52l3 -9q-98 -38 -146 -165q29 37 68 37q36 0 58 -25t22 -69q0 -68 -48 -119t-108 -51zM173 361q28 0 50 58t22 111q0 50 -30 50t-48 -34q-23 -73 -23 -129t29 -56z" />
    <glyph glyph-name="seven.num" horiz-adv-x="253" 
d="M60 354q72 154 216 311h-181l27 74h211v-5q-126 -197 -184 -380h-89z" />
    <glyph glyph-name="eight.num" horiz-adv-x="296" 
d="M172 347q-48 0 -77.5 24.5t-29.5 66.5q0 36 23.5 63t71.5 38q-45 41 -45 91q0 51 36 83.5t87 32.5q44 0 68.5 -23t24.5 -59q0 -33 -21.5 -57t-62.5 -34q30 -25 45 -48t15 -58q0 -55 -39.5 -87.5t-95.5 -32.5zM177 361q29 0 47 19t18 49q0 46 -61 92l-14 12
q-52 -35 -52 -97q0 -34 16 -54.5t46 -20.5zM177 674q0 -49 62 -94q41 36 41 90q0 28 -13 45t-37 17t-38.5 -15t-14.5 -43z" />
    <glyph glyph-name="nine.num" horiz-adv-x="299" 
d="M82 355q94 35 145 164q-28 -36 -67 -36q-36 0 -58 25t-22 69q0 68 48 119t108 51q47 0 72.5 -32.5t25.5 -87.5q0 -37 -12.5 -75.5t-39.5 -79t-78 -74.5t-119 -52zM189 513q29 0 48 34q23 70 23 129q0 56 -29 56q-28 0 -50 -58t-22 -111q0 -50 30 -50z" />
    <glyph glyph-name="five.den" horiz-adv-x="264" 
d="M63 -7q-48 0 -70 13l-8 102l5 1q23 -53 40.5 -77.5t39.5 -24.5q31 0 50.5 41.5t19.5 95.5q0 81 -55 81q-27 0 -53 -17l-3 2l59 175h171l-24 -68h-155l-29 -87q22 13 61 13q47 0 78 -25.5t31 -79.5q0 -64 -47 -104.5t-111 -40.5z" />
    <glyph glyph-name="zero.den" horiz-adv-x="336" 
d="M306 246q0 -104 -58.5 -179t-130.5 -75q-49 0 -78 40.5t-29 106.5q0 104 59 179t131 75q48 0 77 -40.5t29 -106.5zM119 7q29 0 56 55.5t41 126t14 126.5q0 63 -33 63q-42 0 -76 -108.5t-34 -199.5q0 -63 32 -63z" />
    <glyph glyph-name="one.den" horiz-adv-x="191" 
d="M110 108q-10 -62 0 -107v-1h-120v1q27 41 41 107l39 195h-37l2 6q59 26 125 82h6z" />
    <glyph glyph-name="two.den" horiz-adv-x="276" 
d="M-26 0l2 8q116 116 157.5 184.5t41.5 132.5q0 53 -29 53q-25 0 -85 -85q-7 -10 -11 -15l-5 1l26 97q43 16 81 16q50 0 76.5 -23t26.5 -63q0 -57 -50 -111.5t-157 -126.5h88q27 0 45.5 12t41.5 38l3 -1l-43 -117h-209z" />
    <glyph glyph-name="three.den" horiz-adv-x="280" 
d="M76 -7q-53 0 -73 13l-8 102l5 1q23 -55 40 -78.5t41 -23.5q31 0 50 39.5t19 90.5q0 77 -45 77q-24 0 -52 -23l-5 6l135 118h-137l36 67h192l-1 -6l-166 -147q11 4 27 4q42 0 70 -26t28 -74q0 -59 -43.5 -99.5t-112.5 -40.5z" />
    <glyph glyph-name="four.den" horiz-adv-x="289" 
d="M75 1q26 42 36 99h-126l1 6l191 279h97l-267 -268h108l21 100h84l-19 -100h36l-6 -17h-34q-10 -57 0 -99v-1h-122v1z" />
    <glyph glyph-name="six.den" horiz-adv-x="299" 
d="M108 -8q-47 0 -72.5 32.5t-25.5 87.5q0 37 12.5 75.5t39.5 79t78 74.5t119 52l3 -9q-98 -38 -146 -165q29 37 68 37q36 0 58 -25t22 -69q0 -68 -48 -119t-108 -51zM113 7q28 0 50 58t22 111q0 50 -30 50t-48 -34q-23 -73 -23 -129t29 -56z" />
    <glyph glyph-name="seven.den" horiz-adv-x="253" 
d="M0 0q72 154 216 311h-181l27 74h211v-5q-126 -197 -184 -380h-89z" />
    <glyph glyph-name="eight.den" horiz-adv-x="296" 
d="M112 -7q-48 0 -77.5 24.5t-29.5 66.5q0 36 23.5 63t71.5 38q-45 41 -45 91q0 51 36 83.5t87 32.5q44 0 68.5 -23t24.5 -59q0 -33 -21.5 -57t-62.5 -34q30 -25 45 -48t15 -58q0 -55 -39.5 -87.5t-95.5 -32.5zM117 7q29 0 47 19t18 49q0 46 -61 92l-14 12q-52 -35 -52 -97
q0 -34 16 -54.5t46 -20.5zM117 320q0 -49 62 -94q41 36 41 90q0 28 -13 45t-37 17t-38.5 -15t-14.5 -43z" />
    <glyph glyph-name="nine.den" horiz-adv-x="299" 
d="M22 1q94 35 145 164q-28 -36 -67 -36q-36 0 -58 25t-22 69q0 68 48 119t108 51q47 0 72.5 -32.5t25.5 -87.5q0 -37 -12.5 -75.5t-39.5 -79t-78 -74.5t-119 -52zM129 159q29 0 48 34q23 70 23 129q0 56 -29 56q-28 0 -50 -58t-22 -111q0 -50 30 -50z" />
    <glyph glyph-name="five.sub" horiz-adv-x="264" 
d="M47 -87q-48 0 -70 13l-8 102l5 1q23 -53 40.5 -77.5t39.5 -24.5q31 0 50.5 41.5t19.5 95.5q0 81 -55 81q-27 0 -53 -17l-3 2l59 175h171l-24 -68h-155l-29 -87q22 13 61 13q47 0 78 -25.5t31 -79.5q0 -64 -47 -104.5t-111 -40.5z" />
    <glyph glyph-name="zero.sub" horiz-adv-x="336" 
d="M290 166q0 -104 -58.5 -179t-130.5 -75q-49 0 -78 40.5t-29 106.5q0 104 59 179t131 75q48 0 77 -40.5t29 -106.5zM103 -73q29 0 56 55.5t41 126t14 126.5q0 63 -33 63q-42 0 -76 -108.5t-34 -199.5q0 -63 32 -63z" />
    <glyph glyph-name="one.sub" horiz-adv-x="191" 
d="M94 28q-10 -62 0 -107v-1h-120v1q27 41 41 107l39 195h-37l2 6q59 26 125 82h6z" />
    <glyph glyph-name="two.sub" horiz-adv-x="276" 
d="M-42 -80l2 8q116 116 157.5 184.5t41.5 132.5q0 53 -29 53q-25 0 -85 -85q-7 -10 -11 -15l-5 1l26 97q43 16 81 16q50 0 76.5 -23t26.5 -63q0 -57 -50 -111.5t-157 -126.5h88q27 0 45.5 12t41.5 38l3 -1l-43 -117h-209z" />
    <glyph glyph-name="three.sub" horiz-adv-x="280" 
d="M60 -87q-53 0 -73 13l-8 102l5 1q23 -55 40 -78.5t41 -23.5q31 0 50 39.5t19 90.5q0 77 -45 77q-24 0 -52 -23l-5 6l135 118h-137l36 67h192l-1 -6l-166 -147q11 4 27 4q42 0 70 -26t28 -74q0 -59 -43.5 -99.5t-112.5 -40.5z" />
    <glyph glyph-name="four.sub" horiz-adv-x="289" 
d="M59 -79q26 42 36 99h-126l1 6l191 279h97l-267 -268h108l21 100h84l-19 -100h36l-6 -17h-34q-10 -57 0 -99v-1h-122v1z" />
    <glyph glyph-name="six.sub" horiz-adv-x="299" 
d="M92 -88q-47 0 -72.5 32.5t-25.5 87.5q0 37 12.5 75.5t39.5 79t78 74.5t119 52l3 -9q-98 -38 -146 -165q29 37 68 37q36 0 58 -25t22 -69q0 -68 -48 -119t-108 -51zM97 -73q28 0 50 58t22 111q0 50 -30 50t-48 -34q-23 -73 -23 -129t29 -56z" />
    <glyph glyph-name="seven.sub" horiz-adv-x="253" 
d="M-16 -80q72 154 216 311h-181l27 74h211v-5q-126 -197 -184 -380h-89z" />
    <glyph glyph-name="eight.sub" horiz-adv-x="296" 
d="M96 -87q-48 0 -77.5 24.5t-29.5 66.5q0 36 23.5 63t71.5 38q-45 41 -45 91q0 51 36 83.5t87 32.5q44 0 68.5 -23t24.5 -59q0 -33 -21.5 -57t-62.5 -34q30 -25 45 -48t15 -58q0 -55 -39.5 -87.5t-95.5 -32.5zM101 -73q29 0 47 19t18 49q0 46 -61 92l-14 12
q-52 -35 -52 -97q0 -34 16 -54.5t46 -20.5zM101 240q0 -49 62 -94q41 36 41 90q0 28 -13 45t-37 17t-38.5 -15t-14.5 -43z" />
    <glyph glyph-name="nine.sub" horiz-adv-x="299" 
d="M160 312q47 0 72.5 -32t25.5 -87q0 -37 -12.5 -75.5t-39.5 -79t-78 -74.5t-119 -52l-3 9q98 38 146 165q-29 -37 -68 -37q-36 0 -58 25t-22 69q0 69 48 119t108 50zM155 298q-28 0 -50 -58t-22 -111q0 -50 30 -50t48 34q23 73 23 129t-29 56z" />
    <glyph glyph-name="plus.sub" horiz-adv-x="315" 
d="M148 106v-123h-20v123h-122v18h122v123h20v-123h123v-18h-123z" />
    <glyph glyph-name="minus.sub" horiz-adv-x="315" 
d="M6 106v18h265v-18h-265z" />
    <glyph glyph-name="five.sup" horiz-adv-x="264" 
d="M133 427q-48 0 -70 13l-8 102l5 1q23 -53 40.5 -77.5t39.5 -24.5q31 0 50.5 41.5t19.5 95.5q0 81 -55 81q-27 0 -53 -17l-3 2l59 175h171l-24 -68h-155l-29 -87q22 13 61 13q47 0 78 -25.5t31 -79.5q0 -64 -47 -104.5t-111 -40.5z" />
    <glyph glyph-name="zero.sup" horiz-adv-x="336" 
d="M376 680q0 -104 -58.5 -179t-130.5 -75q-49 0 -78 40.5t-29 106.5q0 104 59 179t131 75q48 0 77 -40.5t29 -106.5zM189 441q29 0 56 55.5t41 126t14 126.5q0 63 -33 63q-42 0 -76 -108.5t-34 -199.5q0 -63 32 -63z" />
    <glyph glyph-name="one.sup" horiz-adv-x="191" 
d="M180 542q-10 -62 0 -107v-1h-120v1q27 41 41 107l39 195h-37l2 6q59 26 125 82h6z" />
    <glyph glyph-name="two.sup" horiz-adv-x="276" 
d="M44 434l2 8q116 116 157.5 184.5t41.5 132.5q0 53 -29 53q-25 0 -85 -85q-2 -3 -3.5 -5t-3.5 -5t-4 -5l-5 1l26 97q43 16 81 16q50 0 76.5 -23t26.5 -63q0 -57 -50 -111.5t-157 -126.5h88q27 0 45.5 12t41.5 38l3 -1l-43 -117h-209z" />
    <glyph glyph-name="three.sup" horiz-adv-x="280" 
d="M146 427q-53 0 -73 13l-8 102l5 1q23 -55 40 -78.5t41 -23.5q31 0 50 39.5t19 90.5q0 77 -45 77q-24 0 -52 -23l-5 6l135 118h-137l36 67h192l-1 -6l-166 -147q11 4 27 4q42 0 70 -26t28 -74q0 -59 -43.5 -99.5t-112.5 -40.5z" />
    <glyph glyph-name="four.sup" horiz-adv-x="289" 
d="M145 435q26 42 36 99h-126l1 6l191 279h97l-267 -268h108l21 100h84l-19 -100h36l-6 -17h-34q-10 -57 0 -99v-1h-122v1z" />
    <glyph glyph-name="six.sup" horiz-adv-x="299" 
d="M178 426q-47 0 -72.5 32.5t-25.5 87.5q0 37 12.5 75.5t39.5 79t78 74.5t119 52l3 -9q-98 -38 -146 -165q29 37 68 37q36 0 58 -25t22 -69q0 -68 -48 -119t-108 -51zM183 441q28 0 50 58t22 111q0 50 -30 50t-48 -34q-23 -73 -23 -129t29 -56z" />
    <glyph glyph-name="seven.sup" horiz-adv-x="253" 
d="M70 434q72 154 216 311h-181l27 74h211v-5q-126 -197 -184 -380h-89z" />
    <glyph glyph-name="eight.sup" horiz-adv-x="296" 
d="M182 427q-48 0 -77.5 24.5t-29.5 66.5q0 36 23.5 63t71.5 38q-45 41 -45 91q0 51 36 83.5t87 32.5q44 0 68.5 -23t24.5 -59q0 -33 -21.5 -57t-62.5 -34q30 -25 45 -48t15 -58q0 -55 -39.5 -87.5t-95.5 -32.5zM187 441q29 0 47 19t18 49q0 46 -61 92l-14 12
q-52 -35 -52 -97q0 -34 16 -54.5t46 -20.5zM187 754q0 -49 62 -94q41 36 41 90q0 28 -13 45t-37 17t-38.5 -15t-14.5 -43z" />
    <glyph glyph-name="nine.sup" horiz-adv-x="299" 
d="M92 435q94 35 145 164q-28 -36 -67 -36q-36 0 -58 25t-22 69q0 68 48 119t108 51q47 0 72.5 -32.5t25.5 -87.5q0 -37 -12.5 -75.5t-39.5 -79t-78 -74.5t-119 -52zM199 593q29 0 48 34q23 70 23 129q0 56 -29 56q-28 0 -50 -58t-22 -111q0 -50 30 -50z" />
    <glyph glyph-name="plus.sup" horiz-adv-x="315" 
d="M237 616v-123h-20v123h-122v18h122v123h20v-123h123v-18h-123z" />
    <glyph glyph-name="minus.sup" horiz-adv-x="315" 
d="M95 616v18h265v-18h-265z" />
    <glyph glyph-name="space_uni0326.alt" horiz-adv-x="300" 
d="M312 788q-29 -21 -47 -46.5t-18 -43.5q0 -24 27 -57v-2l-79 -51q-28 21 -28 55q0 41 44 82t98 68z" />
    <glyph glyph-name="caron.alt" horiz-adv-x="306" 
d="M195 775h89l-125 -203l-8 2z" />
    <glyph glyph-name="space.uc" horiz-adv-x="191" 
 />
    <glyph glyph-name="questiondown.uc" horiz-adv-x="424" 
d="M348 509q-17 -62 -46.5 -112t-58 -81.5t-55 -61.5t-42.5 -66.5t-16 -82.5t17 -74t48 -28q35 0 71 34.5t88 105.5l6 -2l-46 -131q-73 -25 -135 -25q-72 0 -115 34t-43 103q0 42 17.5 76t45 57t63 50t69 51.5t65.5 64.5t51 88h16zM351 737q27 0 46.5 -19.5t19.5 -46.5
q0 -29 -19 -48.5t-47 -19.5t-47 19.5t-19 48.5q0 27 19.5 46.5t46.5 19.5z" />
    <glyph glyph-name="exclamdown.uc" horiz-adv-x="232" 
d="M18 2l152 507h16l-63 -507l-1 -2h-105zM196 737q27 0 46.5 -19.5t19.5 -46.5q0 -29 -19 -48.5t-47 -19.5t-47 19.5t-19 48.5q0 27 19.5 46.5t46.5 19.5z" />
    <glyph glyph-name="hyphen.uc" horiz-adv-x="273" 
d="M46 348l11 48h214l-10 -48h-215z" />
    <glyph glyph-name="endash.uc" horiz-adv-x="498" 
d="M50 360l4 19h434l-5 -19h-433z" />
    <glyph glyph-name="emdash.uc" horiz-adv-x="747" 
d="M50 360l4 19h683l-5 -19h-682z" />
    <glyph glyph-name="guilsinglleft.uc" horiz-adv-x="269" 
d="M185 112l-115 175l5 20l189 175l6 -6l-130 -186l52 -175z" />
    <glyph glyph-name="guilsinglright.uc" horiz-adv-x="269" 
d="M104 482l115 -175l-5 -20l-189 -175l-6 6l130 186l-52 175z" />
    <glyph glyph-name="guillemotleft.uc" horiz-adv-x="418" 
d="M335 112l-115 175l5 20l189 175l6 -6l-130 -186l52 -175zM185 112l-115 175l5 20l189 175l6 -6l-130 -186l52 -175z" />
    <glyph glyph-name="guillemotright.uc" horiz-adv-x="418" 
d="M253 482l115 -175l-5 -20l-189 -175l-6 6l130 186l-52 175zM103 482l115 -175l-5 -20l-189 -175l-6 6l130 186l-52 175z" />
    <glyph glyph-name="parenleft.uc" horiz-adv-x="346" 
d="M225 -90q-131 122 -131 339q0 175 84 314t232 232l6 -10q-106 -105 -171 -264t-65 -338q0 -161 54 -266z" />
    <glyph glyph-name="parenright.uc" horiz-adv-x="346" 
d="M159 794q131 -122 131 -338q0 -175 -84 -314t-232 -232l-6 10q106 105 171 264t65 338q0 160 -54 265z" />
    <glyph glyph-name="bracketleft.uc" horiz-adv-x="365" 
d="M217 795h241l-4 -20h-153l-180 -845h155l-5 -20h-241z" />
    <glyph glyph-name="bracketright.uc" horiz-adv-x="365" 
d="M184 -90h-241l4 20h153l180 844h-155l5 20h241z" />
    <glyph glyph-name="braceleft.uc" horiz-adv-x="340" 
d="M230 -90q-170 0 -170 106q0 43 27.5 89t55 89.5t27.5 79.5q0 68 -97 68h-21l5 21h21q113 0 131 87q8 38 -8.5 107t-10.5 107q12 63 70.5 97t156.5 34h16l-4 -20h-16q-59 0 -91.5 -25t-40.5 -82q-7 -44 -3 -107t-3 -90q-14 -61 -56 -88t-112 -29l-1 -3q121 0 121 -98
q0 -48 -41 -131t-41 -124q0 -37 22.5 -52.5t67.5 -15.5h15l-4 -20h-16z" />
    <glyph glyph-name="braceright.uc" horiz-adv-x="340" 
d="M148 794q170 0 170 -106q0 -42 -27.5 -88t-55 -89.5t-27.5 -79.5q0 -68 97 -68h21l-5 -21h-21q-113 0 -131 -87q-8 -38 8.5 -107t10.5 -107q-12 -63 -70.5 -97t-156.5 -34h-16l4 20h16q59 0 91.5 25t40.5 82q7 44 3 107t3 90q14 61 56 88t112 29l1 3q-121 0 -121 98
q0 48 41 131t41 123q0 37 -22.5 52.5t-67.5 15.5h-15l4 20h16z" />
    <glyph glyph-name="slash.uc" horiz-adv-x="363" 
d="M474 821h28l-572 -911h-28z" />
    <glyph glyph-name="backslash.uc" horiz-adv-x="361" 
d="M59 821l314 -911h-26l-314 911h26z" />
    <glyph glyph-name="bar.uc" horiz-adv-x="205" 
d="M115 -89v911h25v-911h-25z" />
    <glyph glyph-name="at.uc" horiz-adv-x="856" 
d="M443 -41q-170 0 -280 96.5t-110 263.5q0 88 34 168t93.5 139.5t144.5 94.5t182 35q156 0 249 -84t93 -229q0 -122 -65 -206.5t-163 -84.5q-40 0 -67 16t-37.5 40t-14.5 52t2 53q-76 -166 -161 -166q-37 0 -59 33.5t-22 90.5q0 113 76.5 210t188.5 97q43 0 80 -14l37 14h6
l-62 -237q-10 -38 -13.5 -66t-0.5 -52.5t18.5 -37.5t42.5 -13q72 0 119 83.5t47 192.5q0 137 -80.5 212.5t-217.5 75.5q-89 0 -164 -34.5t-124 -93t-76 -134t-27 -158.5q0 -157 92.5 -247t242.5 -90q130 0 214 60l9 -16q-91 -64 -227 -64zM387 213q59 0 134 192l34 130
q-9 24 -42 24q-45 0 -83.5 -47t-58.5 -110t-20 -119q0 -70 36 -70z" />
    <glyph glyph-name="grave.uc" horiz-adv-x="306" 
d="M349 782l-204 98l55 79l156 -167z" />
    <glyph glyph-name="dieresis.uc" horiz-adv-x="306" 
d="M413 868q0 -24 -17 -41.5t-42 -17.5q-24 0 -41.5 17.5t-17.5 41.5q0 25 17.5 42.5t41.5 17.5q25 0 42 -17.5t17 -42.5zM233 868q0 -24 -17.5 -41.5t-41.5 -17.5q-25 0 -42 17.5t-17 41.5q0 25 17 42.5t42 17.5q24 0 41.5 -17.5t17.5 -42.5z" />
    <glyph glyph-name="macron.uc" horiz-adv-x="300" 
d="M123 883h271l-10 -50h-271z" />
    <glyph glyph-name="acute.uc" horiz-adv-x="306" 
d="M367 959l43 -78l-240 -99l-6 10z" />
    <glyph glyph-name="circumflex.uc" horiz-adv-x="306" 
d="M275 855l-153 -73l-6 10l167 153h6l108 -153l-9 -10z" />
    <glyph glyph-name="caron.uc" horiz-adv-x="300" 
d="M246 782l-108 153l9 10l113 -73l153 73l6 -10l-167 -153h-6z" />
    <glyph glyph-name="breve.uc" horiz-adv-x="306" 
d="M256 865q88 0 118 77h9q-3 -23 -11.5 -45t-24 -45t-42 -37t-61.5 -14q-34 0 -58 14t-35.5 37t-15.5 45.5t-3 44.5h9q18 -77 115 -77z" />
    <glyph glyph-name="dotaccent.uc" horiz-adv-x="306" 
d="M316 868q0 -24 -17.5 -41.5t-41.5 -17.5q-25 0 -42.5 17.5t-17.5 41.5q0 25 17.5 42.5t42.5 17.5q24 0 41.5 -17.5t17.5 -42.5z" />
    <glyph glyph-name="ring.uc" horiz-adv-x="300" 
d="M158 867q0 38 25.5 62t64.5 24t64.5 -24t25.5 -62t-25.5 -61.5t-64.5 -23.5t-64.5 23.5t-25.5 61.5zM197 867q0 -31 13.5 -48.5t37.5 -17.5t37.5 17.5t13.5 48.5t-13.5 49.5t-37.5 18.5t-37.5 -18.5t-13.5 -49.5z" />
    <glyph glyph-name="tilde.uc" horiz-adv-x="306" 
d="M197 905q28 0 71 -20.5t71 -20.5q47 0 74 55l9 -2q-5 -25 -11 -42.5t-17.5 -39t-31.5 -32.5t-47 -11q-28 0 -71 20t-71 20q-25 0 -42.5 -12t-31.5 -43l-8 2q19 126 106 126z" />
    <glyph glyph-name="hungarumlaut.uc" horiz-adv-x="306" 
d="M395 949l51 -63l-168 -104l-8 10zM228 949l51 -63l-168 -104l-7 10z" />
    <glyph glyph-name="Cacute.pl" horiz-adv-x="617" 
d="M520 47q-22 -19 -86 -40.5t-124 -21.5q-128 0 -197 85.5t-69 220.5q0 123 53 227.5t146 166.5t204 62q79 0 159 -31l10 -179l-10 -2q-53 108 -91.5 150t-93.5 42q-79 0 -141 -71.5t-93 -177.5t-31 -219q0 -122 40.5 -188t115.5 -66q14 0 28.5 3.5t26.5 8t26.5 15t24 17.5
t24.5 23l22.5 24t23.5 29t22 29t23.5 31.5t22.5 30.5l10 -3zM495 961l62 -58l-157 -121l-8 7z" />
    <glyph glyph-name="Nacute.pl" horiz-adv-x="592" 
d="M168 623l-75 -431q-12 -65 -7 -102.5t31 -87.5v-2h-124v2q26 32 40.5 62.5t19.5 51.5t15 76l69 378l-1 -2q11 60 7 94t-34 68v2h131l241 -559l65 367q12 66 8.5 102t-25.5 88v2h123v-2q-38 -53 -53.5 -88.5t-27.5 -101.5l-98 -540l-31 -3zM465 961l62 -58l-157 -121l-8 7
z" />
    <glyph glyph-name="Oacute.pl" horiz-adv-x="675" 
d="M675 448q0 -118 -52.5 -225t-141 -172.5t-187.5 -65.5q-113 0 -181.5 83t-68.5 216q0 118 52.5 225t140.5 172.5t187 65.5q113 0 182 -83t69 -216zM157 236q0 -108 35.5 -169.5t106.5 -61.5q78 0 140 77.5t92.5 188.5t30.5 225q0 108 -36 169.5t-107 61.5
q-77 0 -139 -77.5t-92.5 -188.5t-30.5 -225zM497 961l62 -58l-157 -121l-8 7z" />
    <glyph glyph-name="Sacute.pl" horiz-adv-x="463" 
d="M463 538l-10 -2q-41 108 -74.5 149t-75.5 41q-48 0 -79 -35.5t-31 -88.5q0 -13 1.5 -25.5t6.5 -24.5t8.5 -21t13 -21t14 -18.5t17.5 -19.5l17 -17t20 -19t19 -18q56 -50 86.5 -99.5t30.5 -120.5q0 -102 -65 -157.5t-169 -55.5q-97 0 -157 31l-8 202l10 2
q43 -112 84.5 -163.5t96.5 -51.5q57 0 87 42.5t30 104.5q0 13 -2 25t-4 21.5t-8.5 21.5t-9 18.5t-12.5 19t-13 16.5t-16 17t-15.5 15t-17.5 16.5t-16 15.5q-31 29 -43 42t-33 40.5t-29 56.5t-8 65q0 95 63 150t155 55q71 0 133 -26zM377 961l62 -58l-157 -121l-8 7z" />
    <glyph glyph-name="Zacute.pl" horiz-adv-x="512" 
d="M-27 0v11l472 705l-96 -3q-80 -3 -138.5 -51.5t-111.5 -126.5l-10 4l70 193h410v-11l-470 -705l118 3q57 2 109 34.5t85.5 73t70.5 99.5l10 -4l-83 -222h-436zM411 961l62 -58l-157 -121l-8 7z" />
    <glyph glyph-name="acute.pl" horiz-adv-x="300" 
d="M219 749l70 -44l-142 -163l-9 6z" />
    <glyph glyph-name="acute.ucpl" horiz-adv-x="300" 
d="M298 961l62 -58l-157 -121l-8 7z" />
    <glyph glyph-name="cacute.pl" 
d="M350 152q-22 -77 -69 -122t-115 -45q-72 0 -111.5 49t-39.5 134q0 127 80 225.5t195 98.5q69 0 94 -16v-130l-9 -2q-5 9 -17 30.5t-16.5 29.5t-14 23t-15 20.5t-14.5 13.5t-17.5 10.5t-18.5 2.5q-50 0 -98.5 -76.5t-48.5 -181.5q0 -75 28 -114t79 -39q78 0 122 91z
M298 749l70 -44l-142 -163l-9 6z" />
    <glyph glyph-name="divide.osf" horiz-adv-x="545" 
d="M51 232v22h442v-22h-442zM271 11q-27 0 -46.5 20t-19.5 46q0 29 19.5 48t46.5 19t46.5 -19t19.5 -48q0 -26 -20 -46t-46 -20zM271 335q-27 0 -46.5 20t-19.5 46q0 29 19.5 48t46.5 19t46.5 -19t19.5 -48q0 -26 -20 -46t-46 -20z" />
    <glyph glyph-name="eight.osf" horiz-adv-x="417" 
d="M192 -10q-75 0 -128 44t-53 126q0 68 42.5 123.5t128.5 86.5q-88 88 -88 186q0 85 55.5 138t131.5 53q64 0 107 -38.5t43 -104.5q0 -57 -34.5 -110t-113.5 -84q53 -53 82 -102.5t29 -117.5q0 -94 -59.5 -147t-142.5 -53zM173 602q0 -38 17.5 -75t35 -57t51.5 -54
q93 68 93 189q0 59 -25 90.5t-69 31.5q-47 0 -75 -35t-28 -90zM194 10q56 0 87.5 35.5t31.5 96.5q0 21 -3 39.5t-12 37.5t-15 31.5t-21.5 31.5t-21.5 26t-26.5 28.5t-24.5 26.5q-119 -77 -119 -209q0 -71 33.5 -107.5t90.5 -36.5z" />
    <glyph glyph-name="equal.osf" horiz-adv-x="532" 
d="M44 312v22h442v-22h-442zM44 172v22h442v-22h-442z" />
    <glyph glyph-name="f.short" horiz-adv-x="274" 
d="M129 457h-64l5 20h64l7 35q58 266 175 266q22 0 50 -10l8 -115l-8 -2l-42 83q-11 24 -21 24q-7 0 -12.5 -8.5t-15 -45t-25.5 -112.5l-24 -115h88l-4 -20h-88l-131 -622h-93z" />
    <glyph glyph-name="f_f.short" horiz-adv-x="513" 
d="M129 457h-64l5 20h64l11 54q22 107 72.5 167t119.5 60q28 0 55 -10l7 -105l-7 -2q-50 78 -63 90q-9 7 -15 7q-33 0 -68 -166l-20 -95h147l7 35q58 266 175 266q23 0 50 -10l8 -115l-8 -2l-42 83q-11 24 -21 24q-7 0 -12.5 -8.5t-15 -45t-25.5 -112.5l-24 -115h88l-4 -20
h-88l-131 -622h-93l131 622h-146l-131 -622h-93z" />
    <glyph glyph-name="five.osf" horiz-adv-x="387" 
d="M57 -245q-84 0 -133 32l-10 143l9 1q39 -81 72 -118t76 -37q56 0 94.5 56.5t38.5 141.5q0 93 -46 154.5t-123 91.5l113 277h260l-38 -92h-238l-45 -110q86 -29 141.5 -99t55.5 -179q0 -116 -62 -189t-165 -73z" />
    <glyph glyph-name="four.osf" horiz-adv-x="421" 
d="M191 0h-231v10l406 497h8l-80 -438h93l-25 -69h-80l-36 -195h-91zM254 337l-220 -268h170z" />
    <glyph glyph-name="four.osfalt" horiz-adv-x="410" 
d="M189 0h-238l3 10l348 467h113l-433 -453h212l28 156h92l-29 -156h85l-10 -24h-79l-36 -195h-91z" />
    <glyph glyph-name="greater.osf" horiz-adv-x="530" 
d="M37 20v26l407 195l-407 195v26l430 -208v-26z" />
    <glyph glyph-name="less.osf" horiz-adv-x="530" 
d="M44 228v26l430 208v-26l-407 -195l407 -195v-26z" />
    <glyph glyph-name="minus.osf" horiz-adv-x="532" 
d="M44 232v22h442v-22h-442z" />
    <glyph glyph-name="multiply.osf" horiz-adv-x="472" 
d="M236 226l-170 -170l-16 17l169 169l-169 169l16 17l170 -169l169 169l16 -17l-169 -169l169 -169l-16 -17z" />
    <glyph glyph-name="nacute.pl" horiz-adv-x="501" 
d="M362 328q9 38 0.5 62.5t-34.5 24.5q-41 0 -81.5 -61t-98.5 -195l-2 -11q-20 -95 -9 -146v-2h-135v2q33 64 56 185l24 111q24 111 -21 147v2l154 50l-57 -267q44 116 101.5 189t121.5 73q47 0 69 -41.5t7 -116.5l-41 -193q-17 -65 -13 -95t43 -38v-2l-159 -15zM344 749
l70 -44l-142 -163l-9 6z" />
    <glyph glyph-name="nine.osf" horiz-adv-x="472" 
d="M277 512q82 0 128 -57.5t46 -157.5q0 -73 -27.5 -150t-81.5 -151.5t-145 -140t-206 -105.5l-3 10q195 89 299 302q-43 -52 -110 -52q-73 0 -115.5 53t-42.5 138q0 120 77 215.5t181 95.5zM275 492q-49 0 -88 -55.5t-57 -129t-18 -144.5q0 -133 82 -133q67 0 115 83
q49 123 49 237q0 142 -83 142z" />
    <glyph glyph-name="oacute.pl" horiz-adv-x="442" 
d="M427 311q0 -79 -38.5 -155.5t-99.5 -123.5t-122 -47q-74 0 -113 47.5t-39 132.5q0 80 38.5 156.5t99.5 123.5t122 47q74 0 113 -48t39 -133zM110 120q0 -117 60 -117q63 0 112.5 107t49.5 247q0 117 -59 117q-43 0 -81 -49t-60 -131t-22 -174zM317 749l70 -44l-142 -163
l-9 6z" />
    <glyph glyph-name="one.osf" horiz-adv-x="239" 
d="M151 160q-12 -63 -9 -94t25 -64v-2h-180v2q33 32 46.5 62.5t26.5 95.5l50 269h-70l2 11l171 67h2z" />
    <glyph glyph-name="plus.osf" horiz-adv-x="532" 
d="M277 232v-209h-24v209h-209v22h209v209h24v-209h209v-22h-209z" />
    <glyph glyph-name="sacute.pl" horiz-adv-x="331" 
d="M310 348l-6 -2q-36 74 -58.5 101t-54.5 27q-29 0 -45.5 -20t-16.5 -49q0 -27 16.5 -50.5t40.5 -43.5t48 -41.5t40.5 -54.5t16.5 -73q0 -73 -46.5 -115t-117.5 -42q-73 0 -116 28l-5 142l6 2q37 -82 69 -118t68 -36q30 0 50 22t20 60q0 31 -16.5 57t-39.5 46.5t-46.5 41.5
t-40 52.5t-16.5 69.5q0 68 44 104t110 36q59 0 97 -15zM246 749l70 -44l-142 -163l-9 6z" />
    <glyph glyph-name="seven.osf" horiz-adv-x="382" 
d="M-61 -245q222 427 399 650h-292l35 92h329v-10q-32 -46 -65.5 -104t-55.5 -98.5t-62.5 -127t-54.5 -117t-65.5 -145.5t-62.5 -140h-105z" />
    <glyph glyph-name="six.osf" horiz-adv-x="472" 
d="M195 -10q-82 0 -128 57.5t-46 157.5q0 73 27.5 150t81.5 151.5t145 140t206 105.5l3 -10q-195 -89 -299 -302q43 52 110 52q73 0 115.5 -53t42.5 -138q0 -120 -77 -215.5t-181 -95.5zM197 10q49 0 88 55.5t57 129t18 144.5q0 133 -82 133q-67 0 -115 -83
q-49 -123 -49 -237q0 -142 83 -142z" />
    <glyph glyph-name="three.osf" horiz-adv-x="380" 
d="M81 -245q-85 0 -148 39l-10 143l9 1q40 -86 75.5 -124t92.5 -38q68 0 101 49.5t33 118.5q0 76 -39.5 128t-108.5 77v5q114 46 159.5 103t45.5 127q0 51 -20.5 77t-55.5 26q-42 0 -75.5 -33.5t-83.5 -107.5l-5 2l41 127q55 32 128 32q69 0 109.5 -38t40.5 -93
q0 -59 -47.5 -107t-127.5 -77q52 -26 87 -80t35 -127q0 -102 -66 -166t-170 -64z" />
    <glyph glyph-name="three.osfalt" horiz-adv-x="380" 
d="M81 -245q-85 0 -148 39l-10 143l9 1q40 -86 75.5 -124t92.5 -38q68 0 101 49.5t33 118.5q0 76 -39.5 128t-108.5 77v5q205 84 205 199q0 44 -26.5 69t-79.5 25q-65 0 -114 -42l-5 5q68 97 170 97q64 0 99 -35t35 -91q0 -62 -47.5 -111t-127.5 -78q52 -26 87 -80t35 -127
q0 -102 -66 -166t-170 -64z" />
    <glyph glyph-name="two.osf" 
d="M-30 0v8q158 102 224.5 193t66.5 186q0 100 -60 100q-36 0 -71.5 -36.5t-79.5 -107.5l-6 2l40 129q53 33 123 33t109.5 -37t39.5 -96q0 -78 -69.5 -153.5t-196.5 -138.5h156q33 0 51.5 11.5t43.5 45.5l6 -3l-47 -136h-330z" />
    <glyph glyph-name="two.osfalt" 
d="M-30 0l2 8q55 34 109 74q183 140 183 265q0 50 -25 74.5t-69 24.5q-59 0 -107 -41l-5 5q68 97 165 97q60 0 96.5 -35.5t36.5 -97.5q0 -80 -65 -150t-194 -142h151q24 0 45 10t31.5 19.5t26.5 27.5l6 -5l-81 -134h-306z" />
    <glyph glyph-name="zacute.pl" horiz-adv-x="393" 
d="M-28 0v7l332 453l-97 -4q-51 -3 -152 -98l-4 2l49 117h315v-8l-331 -452l109 2q27 0 58.5 17.5t53.5 37t56 53.5l4 -2l-55 -125h-338zM293 749l70 -44l-142 -163l-9 6z" />
    <glyph glyph-name="zero.osf" horiz-adv-x="470" 
d="M189 -10q-75 0 -122 60t-47 149q0 120 81 214t180 94q75 0 122 -60t47 -149q0 -120 -81 -214t-180 -94zM193 10q48 0 86.5 56.5t57 132.5t18.5 148q0 140 -78 140q-48 0 -86.5 -56.5t-57 -132.5t-18.5 -147q0 -141 78 -141z" />
    <glyph glyph-name="kcommaaccent.alt" horiz-adv-x="455" 
d="M-2 0v2q13 24 23 55.5t15 51.5t18 78l82 392q24 110 -21 147v2l158 50l-131 -628q-20 -96 -9 -148v-2h-135zM330 -10q-66 0 -111 102q-26 56 -52 156l137 129q18 17 27 27.5t17 23.5t7.5 24t-8.5 23v2h132v-2q-77 -32 -147 -102l-85 -79q21 -86 49 -146q23 -50 42 -66.5
t36 -16.5q24 0 38 21l3 -2q-11 -44 -33.5 -69t-51.5 -25zM83 -239q29 21 47 46.5t18 43.5q0 24 -27 57v2l79 51q28 -21 28 -55q0 -41 -44 -82t-98 -68z" />
    <glyph glyph-name="yacute.alt" horiz-adv-x="388" 
d="M-86 -135q35 -5 98 14t112 60q0 217 -41 403q-13 64 -26.5 91t-46.5 42l-1 2h148q18 -55 31 -136q21 -130 23 -281q111 201 111 326q0 65 -46 89v2h119v-2q-35 -198 -164 -427q-30 -49 -58.5 -86.5t-70.5 -79t-96 -69.5t-116 -39zM339 749l55 -64l-202 -134l-7 8z" />
    <glyph glyph-name="ydieresis.alt" horiz-adv-x="388" 
d="M-86 -135q35 -5 98 14t112 60q0 217 -41 403q-13 64 -26.5 91t-46.5 42l-1 2h148q18 -55 31 -136q21 -130 23 -281q111 201 111 326q0 65 -46 89v2h119v-2q-35 -198 -164 -427q-30 -49 -58.5 -86.5t-70.5 -79t-96 -69.5t-116 -39zM216 658q0 -24 -17.5 -41.5t-41.5 -17.5
q-25 0 -42 17.5t-17 41.5q0 25 17 42.5t42 17.5q24 0 41.5 -17.5t17.5 -42.5zM396 658q0 -24 -17.5 -41.5t-42.5 -17.5q-24 0 -41.5 17.5t-17.5 41.5q0 25 17.5 42.5t41.5 17.5q25 0 42.5 -17.5t17.5 -42.5z" />
    <glyph glyph-name="zacute.alt" horiz-adv-x="373" 
d="M-29 0l1 7l327 390l-161 -4q-35 -1 -83 -35l-4 2l58 117h287v-8l-325 -388l176 3q52 1 94 43l4 -2l-55 -125h-319zM343 749l55 -64l-202 -134l-7 8z" />
    <glyph glyph-name="zdotaccent.alt" horiz-adv-x="373" 
d="M-29 0l1 7l327 390l-161 -4q-35 -1 -83 -35l-4 2l58 117h287v-8l-325 -388l176 3q52 1 94 43l4 -2l-55 -125h-319zM324 658q0 -24 -17.5 -41.5t-41.5 -17.5q-25 0 -42 17.5t-17 41.5q0 25 17 42.5t42 17.5q24 0 41.5 -17.5t17.5 -42.5z" />
    <glyph glyph-name="zcaron.alt" horiz-adv-x="373" 
d="M-29 0l1 7l327 390l-161 -4q-35 -1 -83 -35l-4 2l58 117h287v-8l-325 -388l176 3q52 1 94 43l4 -2l-55 -125h-319zM246 540l-91 169l10 10l97 -86l139 86l6 -10l-156 -169h-5z" />
    <glyph glyph-name="germandbls.alt" horiz-adv-x="499" 
d="M319 -15q-33 0 -72 9.5t-52 18.5l-5 142l6 2q38 -83 68.5 -118.5t68.5 -35.5q31 0 49.5 19.5t18.5 53.5q0 29 -16 55t-39 46l-46 40t-39 47.5t-16 59.5q0 36 21 64.5t50.5 50.5t59 47.5t50.5 69.5t21 102q0 101 -72 101q-56 0 -89.5 -49t-55.5 -154l-78 -367
q-25 -124 -14 -187v-2h-135v2q26 49 56 185l57 270h-65l4 20h65l8 36q26 126 94 196t162 70q66 0 104 -34t38 -98q0 -45 -21.5 -82.5t-52 -61.5t-61.5 -45t-52.5 -43.5t-21.5 -46.5q0 -21 16 -41t38.5 -37.5t45.5 -38t39 -51.5t16 -69q0 -66 -42.5 -106t-110.5 -40z" />
    <glyph glyph-name="zacute.altpl" horiz-adv-x="373" 
d="M-29 0l1 7l327 390l-161 -4q-35 -1 -83 -35l-4 2l58 117h287v-8l-325 -388l176 3q52 1 94 43l4 -2l-55 -125h-319zM292 749l70 -44l-142 -163l-9 6z" />
    <glyph glyph-name="f.shortalt" horiz-adv-x="274" 
d="M16 2q30 61 56 185l57 270h-64l5 20h64l7 35q58 266 175 266q22 0 50 -10l8 -115l-8 -2l-42 83q-11 24 -21 24q-6 0 -9.5 -3.5t-9.5 -21t-13.5 -49t-20.5 -92.5l-24 -115h88l-4 -20h-89l-65 -307q-19 -94 -8 -148v-2h-132v2z" />
    <glyph glyph-name="f_f.shortalt" horiz-adv-x="513" 
d="M16 2q30 61 56 185l57 270h-64l5 20h64l11 54q24 107 73.5 167t118.5 60q28 0 55 -10l7 -105l-7 -2q-50 78 -63 90q-9 7 -15 7q-34 0 -68 -166l-20 -95h147l7 35q58 266 175 266q23 0 50 -10l8 -115l-8 -2l-42 83q-11 24 -21 24q-6 0 -9.5 -3.5t-9.5 -21t-13.5 -49
t-20.5 -92.5l-24 -115h88l-4 -20h-89l-65 -307q-19 -94 -8 -148v-2h-132v2q30 61 56 185l57 270h-147l-65 -307q-19 -94 -8 -148v-2h-132v2z" />
    <glyph glyph-name="ampersand.alt" horiz-adv-x="780" 
d="M582 -15q-84 0 -158 55q-73 -55 -173 -55q-101 0 -160.5 52.5t-59.5 140.5q0 79 48.5 138t152.5 88q-3 30 -3 60q0 134 60.5 208.5t148.5 74.5q57 0 90.5 -32.5t33.5 -86.5q0 -70 -57 -123t-167 -79q31 -189 146 -288q68 89 68 194q0 75 -55 86v6h204v-6
q-25 -8 -34.5 -12t-22.5 -15.5t-26 -32.5t-53 -112q-45 -94 -64 -122q65 -47 142 -47q79 0 104 51l4 -3q-16 -63 -57.5 -101.5t-111.5 -38.5zM330 524q0 -47 7 -90q161 70 161 198q0 44 -17 69t-49 25q-46 0 -74 -53t-28 -149zM295 29q58 0 105 31q-65 56 -108 142t-57 184
q-97 -62 -97 -186q0 -80 42 -125.5t115 -45.5z" />
    <glyph glyph-name="wacute.alt" horiz-adv-x="632" 
d="M340 -15q-91 0 -60 154l1 4l-25 -43q-74 -115 -158 -115q-95 0 -60 154l44 201q14 58 10 89t-36 46v2h152l-77 -337q-10 -55 -4.5 -72t25.5 -17q38 0 77 55q72 97 99 251q12 49 6 77t-36 41v2h149l-76 -337q-10 -56 -4 -73.5t28 -17.5q41 0 91 68q40 57 63.5 134
t23.5 135q0 67 -40 89v2h117v-2q-13 -79 -51.5 -183.5t-88.5 -182.5q-82 -124 -170 -124zM463 749l55 -64l-202 -134l-7 8z" />
    <glyph glyph-name="wcircumflex.alt" horiz-adv-x="632" 
d="M340 -15q-91 0 -60 154l1 4l-25 -43q-74 -115 -158 -115q-95 0 -60 154l44 201q14 58 10 89t-36 46v2h152l-77 -337q-10 -55 -4.5 -72t25.5 -17q38 0 77 55q72 97 99 251q12 49 6 77t-36 41v2h149l-76 -337q-10 -56 -4 -73.5t28 -17.5q41 0 91 68q40 57 63.5 134
t23.5 135q0 67 -40 89v2h117v-2q-13 -79 -51.5 -183.5t-88.5 -182.5q-82 -124 -170 -124zM388 626l-139 -86l-6 10l156 169h5l91 -169l-10 -10z" />
    <glyph glyph-name="wdieresis.alt" horiz-adv-x="632" 
d="M340 -15q-91 0 -60 154l1 4l-25 -43q-74 -115 -158 -115q-95 0 -60 154l44 201q14 58 10 89t-36 46v2h152l-77 -337q-10 -55 -4.5 -72t25.5 -17q38 0 77 55q72 97 99 251q12 49 6 77t-36 41v2h149l-76 -337q-10 -56 -4 -73.5t28 -17.5q41 0 91 68q40 57 63.5 134
t23.5 135q0 67 -40 89v2h117v-2q-13 -79 -51.5 -183.5t-88.5 -182.5q-82 -124 -170 -124zM351 658q0 -24 -17.5 -41.5t-41.5 -17.5q-25 0 -42 17.5t-17 41.5q0 25 17 42.5t42 17.5q24 0 41.5 -17.5t17.5 -42.5zM531 658q0 -24 -17.5 -41.5t-42.5 -17.5q-24 0 -41.5 17.5
t-17.5 41.5q0 25 17.5 42.5t41.5 17.5q25 0 42.5 -17.5t17.5 -42.5z" />
    <glyph glyph-name="wgrave.alt" horiz-adv-x="632" 
d="M340 -15q-91 0 -60 154l1 4l-25 -43q-74 -115 -158 -115q-95 0 -60 154l44 201q14 58 10 89t-36 46v2h152l-77 -337q-10 -55 -4.5 -72t25.5 -17q38 0 77 55q72 97 99 251q12 49 6 77t-36 41v2h149l-76 -337q-10 -56 -4 -73.5t28 -17.5q41 0 91 68q40 57 63.5 134
t23.5 135q0 67 -40 89v2h117v-2q-13 -79 -51.5 -183.5t-88.5 -182.5q-82 -124 -170 -124zM432 542l-155 158l71 49l95 -200z" />
    <glyph glyph-name="ycircumflex.alt" horiz-adv-x="388" 
d="M-86 -135q35 -5 98 14t112 60q0 217 -41 403q-13 64 -26.5 91t-46.5 42l-1 2h148q18 -55 31 -136q21 -130 23 -281q111 201 111 326q0 65 -46 89v2h119v-2q-35 -198 -164 -427q-30 -49 -58.5 -86.5t-70.5 -79t-96 -69.5t-116 -39zM253 626l-139 -86l-6 10l156 169h5
l91 -169l-10 -10z" />
    <glyph glyph-name="ygrave.alt" horiz-adv-x="388" 
d="M-86 -135q35 -5 98 14t112 60q0 217 -41 403q-13 64 -26.5 91t-46.5 42l-1 2h148q18 -55 31 -136q21 -130 23 -281q111 201 111 326q0 65 -46 89v2h119v-2q-35 -198 -164 -427q-30 -49 -58.5 -86.5t-70.5 -79t-96 -69.5t-116 -39zM297 542l-155 158l71 49l95 -200z" />
    </font>
</defs>
</svg>
